<?xml version="1.0" encoding="utf-8"?>
<!-- Generator: Adobe Illustrator 16.0.0, SVG Export Plug-In . SVG Version: 6.00 Build 0)  -->
<!DOCTYPE svg PUBLIC "-//W3C//DTD SVG 1.1//EN" "http://www.w3.org/Graphics/SVG/1.1/DTD/svg11.dtd">
<svg version="1.1" id="Layer_1" xmlns="http://www.w3.org/2000/svg" xmlns:xlink="http://www.w3.org/1999/xlink" x="0px" y="0px"
	 width="80px" height="80px" viewBox="0 0 80 80" enable-background="new 0 0 80 80" xml:space="preserve">
<g>
	<path fill="#FFFFFF" d="M64.147,30.48c0-5.261-4.263-9.526-9.528-9.526c-5.262,0-9.523,4.266-9.523,9.526
		c0,5.265,4.262,9.529,9.523,9.529C59.885,40.01,64.147,35.745,64.147,30.48z M53.702,36.582v-0.624c0-0.458-0.014-0.476-0.461-0.54
		c-0.558-0.081-1.098-0.213-1.621-0.459c-0.394-0.197-0.442-0.296-0.329-0.724c0.081-0.308,0.161-0.621,0.263-0.935
		c0.113-0.36,0.213-0.41,0.541-0.228c0.554,0.297,1.164,0.459,1.789,0.542c0.11,0.014,0.222,0.021,0.334,0.021
		c0.29,0,0.571-0.051,0.844-0.168c0.704-0.313,0.807-1.116,0.215-1.607c-0.199-0.164-0.427-0.294-0.673-0.392
		c-0.609-0.264-1.265-0.476-1.836-0.822c-0.935-0.556-1.541-1.344-1.477-2.476c0.081-1.295,0.804-2.097,1.999-2.542
		c0.492-0.179,0.492-0.165,0.492-0.687v-0.525c0.018-0.394,0.081-0.459,0.458-0.459h0.363c0.817,0,0.817,0,0.817,0.82
		c0,0.571,0,0.571,0.575,0.671c0.443,0.066,0.87,0.195,1.28,0.378c0.23,0.098,0.31,0.261,0.245,0.491
		c-0.097,0.362-0.196,0.705-0.312,1.065c-0.115,0.327-0.213,0.378-0.522,0.231c-0.643-0.313-1.315-0.444-2.02-0.396
		c-0.182,0.018-0.361,0.036-0.541,0.117c-0.606,0.262-0.704,0.935-0.196,1.361c0.263,0.214,0.556,0.361,0.87,0.493
		c0.54,0.228,1.08,0.44,1.59,0.721c1.639,0.9,2.081,2.952,0.917,4.362c-0.408,0.506-0.948,0.853-1.591,1.013
		c-0.276,0.084-0.394,0.216-0.394,0.51c0.018,0.277,0,0.558,0,0.837c0,0.245-0.129,0.392-0.377,0.392
		c-0.245-0.016-0.558-0.016-0.85-0.033C53.833,36.991,53.702,36.846,53.702,36.582z"/>
	<path fill="#FFFFFF" d="M43.404,30.958c0-1.458-1.184-2.642-2.64-2.642c-1.46,0-2.642,1.184-2.642,2.642
		c0,1.46,1.182,2.64,2.642,2.64C42.22,33.598,43.404,32.419,43.404,30.958z"/>
	<circle fill="#FFFFFF" cx="68.492" cy="30.958" r="2.64"/>
	<path fill="#FFFFFF" d="M75.671,14.938H34.173c-2.393,0-4.345,1.95-4.345,4.345v14.494c0.639-0.032,1.279-0.05,1.933-0.05
		c0.605,0,1.196,0.018,1.785,0.05v-9.787c0.348,0.079,0.708,0.129,1.084,0.129c2.427,0,4.411-1.967,4.411-4.413
		c0-0.374-0.047-0.737-0.129-1.082h32.317c-0.052,0.264-0.085,0.543-0.085,0.805c0,2.426,1.972,4.41,4.414,4.41
		c0.261,0,0.526-0.031,0.769-0.065v13.363c-0.242-0.047-0.508-0.066-0.769-0.066c-2.428,0-4.414,1.971-4.414,4.412
		c0,0.283,0.033,0.542,0.085,0.804H48.06v0.297v0.13v3.298h27.599c2.394,0,4.342-1.953,4.342-4.347V19.283
		C80.019,16.888,78.065,14.938,75.671,14.938z"/>
	<path fill="#FFFFFF" d="M4.427,36.173c2.395,0.898,5.56,1.391,8.904,1.391c1.771,0,3.495-0.145,5.067-0.408
		c0.87-0.656,1.984-1.279,3.412-1.803c1.426-0.526,3.082-0.937,4.853-1.199v-2.377v-0.098v-0.065v-5.578v-0.095v-0.066v-5.576
		v-0.097c0-1.294-0.77-3.131-4.427-4.508c-2.397-0.921-5.56-1.413-8.905-1.413c-3.344,0-6.509,0.492-8.904,1.394
		C0.771,17.036,0,18.873,0,20.186v5.673v0.065v5.673v0.066v0.065v5.608v0.065v0.066v5.672v0.066v5.674
		c0,1.293,0.771,3.131,4.427,4.508c2.395,0.903,5.56,1.396,8.904,1.396c0.724,0,1.427-0.018,2.131-0.066v-0.561v-0.064v-0.03v-0.036
		v-2.245c-0.686,0.049-1.407,0.084-2.131,0.084c-3.001,0-5.805-0.427-7.868-1.2c-2.053-0.769-2.526-1.539-2.526-1.736v-1.854
		c0.426,0.229,0.934,0.443,1.49,0.656c2.395,0.901,5.56,1.395,8.904,1.395c0.724,0,1.427-0.02,2.131-0.066v-0.706v-0.033V48.29
		v-2.245c-0.686,0.046-1.407,0.082-2.131,0.082c-3.001,0-5.805-0.426-7.868-1.2c-2.053-0.771-2.526-1.539-2.526-1.736v-1.837
		c0.426,0.229,0.934,0.444,1.49,0.659c2.395,0.896,5.56,1.388,8.904,1.388c0.724,0,1.427-0.013,2.131-0.063v-0.702
		c0-0.658,0.099-1.511,0.493-2.428c-0.853,0.081-1.719,0.113-2.624,0.113c-3.001,0-5.805-0.426-7.868-1.197
		c-2.053-0.769-2.526-1.538-2.526-1.737v-1.837C3.377,35.728,3.871,35.958,4.427,36.173z M23.728,31.598v0.017
		c-0.036,0.245-0.526,0.986-2.51,1.72c-2.082,0.772-4.886,1.198-7.872,1.198c-3,0-5.803-0.426-7.869-1.198
		c-2.049-0.768-2.523-1.541-2.523-1.737v-1.829c0.422,0.226,0.922,0.437,1.474,0.648c2.395,0.899,5.56,1.392,8.904,1.392
		c3.345,0,6.508-0.493,8.905-1.392c0.556-0.213,1.047-0.427,1.492-0.655V31.598z M23.728,25.843v0.016
		c-0.036,0.247-0.526,0.982-2.51,1.724c-2.082,0.769-4.886,1.195-7.872,1.195c-3,0-5.803-0.426-7.869-1.195
		c-2.049-0.774-2.523-1.546-2.523-1.739v-1.83c0.422,0.227,0.922,0.435,1.474,0.651c2.395,0.898,5.56,1.39,8.904,1.39
		c3.345,0,6.508-0.492,8.905-1.39c0.556-0.218,1.047-0.428,1.492-0.658V25.843z M5.463,18.431c2.08-0.772,4.882-1.198,7.868-1.198
		c3,0,5.805,0.426,7.871,1.198c1.982,0.738,2.474,1.476,2.508,1.721v0.05c-0.034,0.245-0.526,0.984-2.508,1.722
		c-2.083,0.771-4.886,1.194-7.871,1.194c-3.001,0-5.805-0.424-7.868-1.194c-2.053-0.77-2.526-1.542-2.526-1.737
		S3.411,19.184,5.463,18.431z"/>
	<path fill="#FFFFFF" d="M40.649,38.09c-2.393-0.9-5.558-1.395-8.903-1.395c-3.347,0-6.51,0.495-8.904,1.395
		c-3.658,1.361-4.427,3.198-4.427,4.511v5.673v0.063v5.673v0.068v0.066v5.605v0.068c0,1.295,0.769,3.131,4.427,4.506
		c2.394,0.904,5.557,1.396,8.904,1.396c3.345,0,6.511-0.491,8.903-1.396c3.654-1.359,4.426-3.195,4.426-4.506V59.75v-5.576v-0.096
		v-0.068v-5.571v-0.102v-0.063v-5.575v-0.098C45.096,41.303,44.322,39.466,40.649,38.09z M23.873,40.86
		c2.085-0.77,4.889-1.196,7.873-1.196c3,0,5.805,0.426,7.869,1.196c1.986,0.74,2.495,1.478,2.51,1.724v0.051
		c-0.032,0.241-0.523,0.98-2.51,1.721c-2.082,0.771-4.887,1.195-7.869,1.195c-3.001,0-5.807-0.425-7.873-1.195
		c-2.047-0.773-2.526-1.544-2.526-1.738C21.347,42.419,21.81,41.616,23.873,40.86z M42.157,59.785
		c-0.017,0.194-0.475,0.968-2.524,1.736c-2.082,0.771-4.886,1.2-7.871,1.2c-3,0-5.804-0.43-7.87-1.2
		c-2.05-0.769-2.526-1.542-2.526-1.736v-1.838c0.426,0.23,0.935,0.442,1.492,0.655c2.395,0.903,5.561,1.396,8.904,1.396
		c3.345,0,6.508-0.492,8.903-1.396c0.556-0.213,1.05-0.425,1.493-0.655V59.785z M42.141,54.027v0.018
		c-0.031,0.248-0.523,0.983-2.508,1.721c-2.082,0.771-4.886,1.2-7.871,1.2c-3,0-5.804-0.43-7.87-1.2
		c-2.05-0.771-2.526-1.539-2.526-1.738v-1.835c0.426,0.228,0.935,0.444,1.492,0.655c2.395,0.901,5.561,1.393,8.904,1.393
		c3.345,0,6.508-0.491,8.903-1.393c0.556-0.211,1.05-0.428,1.493-0.655L42.141,54.027z M42.141,48.274v0.016
		c-0.031,0.246-0.523,0.985-2.508,1.721c-2.082,0.771-4.886,1.198-7.871,1.198c-3,0-5.804-0.428-7.87-1.198
		c-2.05-0.769-2.526-1.541-2.526-1.736v-1.833c0.426,0.221,0.935,0.438,1.492,0.65c2.395,0.901,5.561,1.394,8.904,1.394
		c3.345,0,6.508-0.492,8.903-1.394c0.556-0.212,1.05-0.43,1.493-0.65L42.141,48.274z"/>
</g>
</svg>
