<?xml version="1.0" encoding="utf-8"?>
<!-- Generator: Adobe Illustrator 16.0.0, SVG Export Plug-In . SVG Version: 6.00 Build 0)  -->
<!DOCTYPE svg PUBLIC "-//W3C//DTD SVG 1.1//EN" "http://www.w3.org/Graphics/SVG/1.1/DTD/svg11.dtd">
<svg version="1.1" id="Layer_1" xmlns:svg="http://www.w3.org/2000/svg"
	 xmlns="http://www.w3.org/2000/svg" xmlns:xlink="http://www.w3.org/1999/xlink" x="0px" y="0px" width="623.622px"
	 height="623.622px" viewBox="-0.001 -36.851 623.622 623.622" enable-background="new -0.001 -36.851 623.622 623.622"
	 xml:space="preserve">
<path fill="#BFE06E" stroke="#FFFFFF" d="M323.824-34.593"/>
<g>
	<g>
		<g>
			<polygon fill="#969696" stroke="#FFFFFF" points="231.583,8.928 231.583,9.035 231.795,9.343 231.897,9.447 231.795,9.655 
				231.795,9.758 232,9.964 232,10.169 232.101,10.273 231.897,10.273 231.897,10.482 232,10.482 232.309,10.688 232.517,10.894 
				232.412,11.103 232.724,11.515 232.619,11.617 232.619,11.827 232.724,11.93 232.724,12.032 233.03,12.238 232.928,12.447 
				233.03,12.55 233.03,12.653 232.928,12.961 233.133,13.17 233.03,13.17 233.03,13.375 232.825,13.581 232.825,13.684 
				233.03,14.099 233.241,14.305 233.344,14.099 233.447,14.305 233.651,14.514 233.651,-0.68 233.55,-0.272 233.345,-0.272 
				233.242,0.036 233.242,0.246 233.134,0.349 233.345,0.554 233.134,0.658 232.827,0.658 232.827,0.76 232.725,1.175 232.93,1.693 
				232.827,1.796 232.827,1.899 232.725,1.899 232.62,2.001 232.62,2.105 232.827,2.105 232.827,2.313 232.725,2.313 232.62,2.208 
				232.517,2.417 232.309,2.52 232.309,2.726 232.1,2.829 232.1,2.935 232.206,3.244 232.1,3.45 231.999,3.659 231.999,3.863 
				232.206,4.07 232.1,4.173 231.999,4.69 231.999,4.793 231.688,5.208 231.583,5.517 231.795,5.621 231.795,5.727 231.583,5.932 
				231.688,6.139 231.583,6.241 231.688,6.451 231.583,6.553 231.583,6.656 231.583,7.174 231.48,7.482 231.583,8.103 231.48,8.308 
							"/>
			<polygon fill="#969696" stroke="#FFFFFF" points="97.434,223.697 97.434,223.801 97.539,223.697 			"/>
			<polygon fill="#969696" stroke="#FFFFFF" points="125.237,211.087 125.134,211.19 125.237,211.19 			"/>
			<polygon fill="#969696" stroke="#FFFFFF" points="231.796,-19.178 231.796,-19.076 231.898,-19.076 			"/>
			<polygon fill="#969696" stroke="#FFFFFF" points="325.531,456.444 325.531,456.341 325.324,456.341 			"/>
			<polygon fill="#969696" stroke="#FFFFFF" points="233.344,-4.71 233.447,-4.607 233.651,-4.607 233.651,-5.228 233.549,-5.018 
				233.447,-4.916 233.549,-4.916 233.549,-4.813 			"/>
			<polygon fill="#969696" stroke="#FFFFFF" points="324.601,453.756 324.601,453.654 324.501,453.756 			"/>
			<polygon fill="#969696" stroke="#FFFFFF" points="333.592,567.547 333.701,567.753 333.592,567.753 333.701,567.857 
				333.802,567.857 			"/>
			<polygon fill="#969696" stroke="#FFFFFF" points="96.298,224.215 96.195,224.007 96.195,224.112 96.093,224.112 96.195,224.215 
							"/>
			<line fill="#969696" stroke="#FFFFFF" x1="111.283" y1="582.916" x2="111.286" y2="581.932"/>
			<polygon fill="#969696" stroke="#FFFFFF" points="74.738,117.348 74.802,117.66 74.697,117.763 74.389,117.866 74.389,118.072 
				74.802,118.384 74.594,118.59 74.802,118.59 75.317,118.384 75.317,118.487 75.214,118.59 75.009,118.693 75.112,118.902 
				75.317,119.004 75.629,119.004 75.731,119.107 75.834,119.004 75.937,119.107 76.042,119.625 76.148,119.729 76.25,119.729 
				76.455,119.625 76.455,119.416 76.56,119.313 76.87,119.21 76.87,119.107 76.56,118.902 76.769,118.487 76.871,118.384 
				77.079,118.487 77.181,118.59 77.386,118.487 77.492,118.384 77.492,118.281 77.492,118.175 77.598,118.487 77.701,118.59 
				77.905,118.59 78.114,118.59 77.905,118.795 78.008,119.106 78.114,119.106 78.423,119.209 78.526,119.312 78.526,119.518 
				78.629,119.518 79.043,119.312 79.455,119.106 79.765,118.692 79.87,118.174 79.87,117.557 80.076,117.347 74.738,117.347 			"/>
			<polygon fill="#969696" stroke="#FFFFFF" points="69.219,200.547 69.219,200.442 69.116,200.547 			"/>
			<polygon fill="#969696" stroke="#FFFFFF" points="70.05,201.167 70.05,201.27 70.166,201.329 70.253,201.061 			"/>
			<polygon fill="#969696" stroke="#FFFFFF" points="70.253,201.374 70.166,201.329 70.151,201.374 			"/>
		</g>
		<path id="Bolívia-Peru_1_" fill="#BABABA" stroke="#FFFFFF" d="M84.853,225.62l-0.131-2.44l-3.411-0.411l-5.58,1.858
			l-5.995-0.826l0.62-19.118l0.519-4.241l-5.374,3.205l-7.34,4.548l-12.298-1.344l-1.553-4.959l-6.097-2.38l-7.75-0.826l3.928-6.41
			l-2.276-2.688l-4.754-5.785l-4.96-7.545l-0.002-2.958l-3.925-3.348l3.41-3.72l0.724-7.235l7.753-4.857l-0.414-7.65l3.204-5.374
			l3.205-9.713l8.473-5.374l11.37-5.062l7.234-0.723l5.912-3.414c0-1.871,0-3.825,0-5.78c0.649-0.652,1.389-1.305,2.127-1.955
			c0-0.572,0-1.224,0-1.874c1.479-1.305,2.954-2.607,4.433-3.909c0-2.526,0-5.049,0-7.655c-1.479,0-2.954,0-4.433,0
			c-0.648-0.654-1.387-1.302-2.127-1.956c-0.736,0-1.475,0-2.214,0c-0.742-0.652-1.479-1.302-2.218-1.954c-2.864,0-5.731,0-8.688,0
			c-0.735,0.652-1.475,1.302-2.218,1.954c-0.736-0.652-1.476-1.302-2.215-1.954c-1.389,0-2.867,0-4.346,0
			c-0.739,0.652-1.475,1.302-2.213,1.954c-1.39,0-2.867,0-4.345,0c-0.74,0.653-1.477,1.302-2.218,1.956c-5.082,0-10.165,0-15.336,0
			c0-1.875,0-3.829,0-5.784c-1.389-1.302-2.867-2.607-4.346-3.91c-0.735,0-1.475,0-2.215,0c0-0.651,0-1.301,0-1.953
			c-2.124-1.874-4.345-3.828-6.56-5.782c-0.738,0-1.479,0-2.218,0c-0.648-0.569-1.389-1.222-2.123-1.875
			c-1.479,0-4.393-0.344-5.872-0.344v229.373l4.325-2.209l23.667,13.111l8.154,3.173l11.925,5.56l12.79,6.991l2.132,4.709
			l8.04,3.764l3.5,2.731l5.887,1.317c1.222,0,2.525,0,3.829,0c1.302-1.22,2.604-2.523,3.909-3.826c0-0.654,0-1.302,0-1.958
			c0.568-0.649,1.22-1.3,1.871-1.953c0-3.176,0-6.352,0-9.61c1.303-1.223,2.607-2.524,3.91-3.825c0-0.653,0-1.304,0-1.955
			c1.222-1.306,2.525-2.607,3.825-3.912c0-2.522,0-5.045,0-7.651c-0.569,0-1.221,0-1.87,0c-1.306-1.307-2.607-2.607-3.911-3.91
			c0-2.526,0-5.05,0-7.656c0-3.828,0-7.736,0-11.646c0.652-0.57,1.304-1.221,1.957-1.874c0-0.649,0-1.303,0-1.953
			c0.648-0.65,1.302-1.303,1.956-1.958c0-2.523,0-5.128,0-7.735c-0.652-0.568-1.306-1.222-1.956-1.87
			c0.648-0.653,1.302-1.305,1.956-1.958c0-4.479,0-8.958,0-13.516c0.569-0.572,1.221-1.222,1.87-1.874c0-1.302,0-2.607,0-3.909
			c-0.57-0.652-1.221-1.305-1.87-1.955c0-0.572,0-1.222,0-1.874c-1.306-1.302-2.607-2.606-3.912-3.908c0-0.569,0-1.222,0-1.874
			c-0.65-0.653-1.302-1.302-1.955-1.955c0-0.652,0-1.302,0-1.954c-0.569-0.569-1.222-1.222-1.871-1.873c0-0.65,0-1.302,0-1.956
			c-0.653-0.65-1.305-1.302-1.955-1.955L84.853,225.62z"/>
		<path id="Chile-Bolívia_1_" fill="#BABABA" stroke="#FFFFFF" d="M95.24,338.098l-5.214-1.302c0-3.176,0-6.352,0-9.609
			c1.302-1.224,2.607-2.525,3.909-3.825c0-0.655,0-1.307,0-1.956c1.222-1.305,2.526-2.606,3.825-3.912c0-2.522,0-5.044,0-7.651
			c-0.57,0-1.222,0-1.869,0c-1.306-1.305-2.607-2.606-3.912-3.909c0-2.527,0-5.051,0-7.657c0-3.828,0-7.736,0-11.646
			c0.654-0.569,1.306-1.22,1.957-1.874c0-0.648,0-1.303,0-1.953c0.65-0.651,1.304-1.304,1.957-1.956c0-2.523,0-5.13,0-7.738
			c-0.653-0.568-1.307-1.222-1.957-1.87c0.65-0.653,1.304-1.305,1.957-1.958c0-4.477,0-8.957,0-13.516
			c0.569-0.571,1.221-1.221,1.868-1.874c0-1.3,0-2.607,0-3.909c-0.569-0.653-1.221-1.305-1.868-1.955c0-0.572,0-1.221,0-1.874
			c-1.306-1.302-2.607-2.606-3.912-3.908c0-0.568,0-1.222,0-1.874c-0.651-0.652-1.304-1.302-1.955-1.955c0-0.652,0-1.302,0-1.954
			c-0.569-0.569-1.222-1.222-1.871-1.873c0-0.65,0-1.303,0-1.956c-0.654-0.65-1.306-1.302-1.955-1.955
			c0-0.569-1.348-5.062-1.348-5.715l-0.131-1.786l10.439,0.517l5.166,2.068l5.789-2.79l2.481-4.237l5.888-1.137l5.994-4.445
			l10.026-6.2l7.65-2.171l8.992-0.102v-3.153l3.824,4.184l-0.311,4.03l-0.309,3.102l-0.594,2.859l0.698,5.306l1.031,2.584
			l-0.62,5.375l3.517,7.853l6.718,6.097l7.368,2.793l6.065,0.724l7.444,3.513l2.376-0.104l2.791,3.098l3.205,2.173l3.307,1.032
			l4.548,0.928l4.34,4.861l2.999,1.134l4.442,0.415l4.754-0.518l4.962,3l2.17,0.514l3.099,3.929l3.6,9.647l-0.915,8.132l1.14,18.291
			h28.215l-0.207,3.31l-1.962,5.786l4.441,5.067l4.342,4.44l3.928,4.447l1.341,1.86l-0.723,4.031l-2.178,10.427l-6.71,13.875h-3.213
			l-3.9-5.499h-1.954l-3.5-1.956h-11.889l-1.955,1.956h-3.908l-1.875,1.874l-6.738,1.126l-2.953,0.828h-6.402l-0.851,5.923
			l-2.356,1.813l-3.075,4.947l-2.107,4.061L202.007,379v9.916l-1.956,7.736v3.823l-3.825-3.828h-17.428v3.828l-1.871,1.955v1.954
			l-3.911,1.876l-2.844-1.183l-6.768-6.475l-5.071,1.161l-0.711,0.711h-1.955l-1.955-1.872l-8.622,0.96l-2.945,2.867h-3.825v3.83
			l-3.908,3.906l-0.248,3.834h-1.627c-3.176,0-6.435,0-9.691,0c0-0.652,0-1.304,0-1.959c-0.572-0.569-1.222-1.222-1.873-1.867
			c0-1.876,0-3.831,0-5.785c-0.652-0.652-1.301-1.301-1.956-1.956c0-0.653,0-1.304,0-1.955c-0.653-0.572-1.3-1.222-1.954-1.873
			c0-1.301,0-2.606,0-3.908c-0.653-0.569-1.302-1.221-1.956-1.873c0-0.647,0-1.301,0-1.954c-1.873-1.874-3.829-3.83-5.784-5.783
			c0-1.872,0-3.83,0-5.784c-0.568-0.647-1.22-1.302-1.874-1.954c0-5.785,0-11.563,0-17.346c-1.299-1.305-2.604-2.607-3.906-3.908
			c-0.57,0-1.222,0-1.874,0c0-1.222,0-2.527,0-3.83c-0.65-0.65-1.301-1.304-1.955-1.953c0-2.528,0-5.13,0-7.737
			c-0.648-0.568-1.302-1.223-1.957-1.871c0-0.654,0-1.302,0-1.958c-0.569,0-1.22,0-1.869,0L95.24,338.098z"/>
		<path id="Bolívia-Peru_3_" fill="#BABABA" stroke="#FFFFFF" d="M69.345,116.831l1.531-0.515l2.79,0.308l1.652,2.379l1.137,0.412
			l2.585-0.103l8.785-46.195l0.102-2.896l-0.621-3.822l-2.169-3.205v-3.41l-6.718-5.579l0.103-11.785l5.374-1.445l3.41-1.241
			l1.861,1.446l2.274-0.207l0.103-4.236l-2.685-2.585h-3.413l-4.769,0.396l0.844-10.318l4.441-1.138l2.584,0.933l18.707-0.205
			l-2.384-1.605l2.176-2.22l3.516,2.478l2.375-3.2l1.963,0.205l1.759-2.169l1.344-0.724l3.571,1.843
			c-1.304-1.222-2.607-2.523-3.91-3.829c0-0.652,0-1.302,0-1.955c-0.571-0.652-1.222-1.302-1.872-1.954c0-0.568,0-1.221,0-1.873
			c1.222-1.302,2.524-2.604,3.829-3.909c0-1.875,0-3.829,0-5.783c-1.224-1.222-2.527-2.523-3.829-3.825c0-0.653,0-1.304,0-1.958
			c-0.652-0.65-1.305-1.302-1.953-1.954c0-1.871,0-3.825,0-5.78c-0.652-0.572-1.306-1.225-1.956-1.874c0-0.653,0-1.306,0-1.955
			c0.648-0.653,1.302-1.305,1.956-1.955c0-3.176,0-6.354,0-9.61c0.648-0.653,1.613-2.241,2.266-2.893l0.34-4.172H-0.001V76.222
			c0,0,4.39,0.137,5.868,0.137c0.735,0.653,1.477,1.305,2.124,1.875c0.74,0,1.48,0,2.218,0c2.215,1.954,4.437,3.909,6.56,5.782
			c0,0.652,0,1.302,0,1.954c0.74,0,1.479,0,2.215,0c1.479,1.302,2.957,2.607,4.346,3.909c0,1.956,0,3.91,0,5.784
			c5.172,0,10.254,0,15.336,0c0.742-0.654,1.479-1.302,2.218-1.956c1.479,0,2.956,0,4.344,0c0.74-0.651,1.476-1.302,2.215-1.953
			c1.479,0,2.957,0,4.346,0c0.739,0.651,1.479,1.302,2.215,1.953c0.743-0.651,1.483-1.302,2.218-1.953c2.957,0,5.824,0,8.688,0
			c0.74,0.651,1.476,1.302,2.218,1.953c0.74,0,1.479,0,2.215,0c0.739,0.653,1.479,1.302,2.127,1.956c1.479,0,2.954,0,4.433,0
			c0,2.606,0,5.128,0,7.655c-1.479,1.302-2.954,2.604-4.433,3.909c0,0.65,0,1.302,0,1.874c-0.738,0.65-1.479,1.302-2.127,1.955
			C69.345,113.004,69.345,114.96,69.345,116.831"/>
		<path id="Bolívia-Peru_4_" fill="#BABABA" stroke="#FFFFFF" d="M212.891-34.085l6.3,5.065l2.266,0.022l0.416,3.205l-2.482,2.375
			l-2.272,2.067l-1.656,1.553l-3.411-0.103l-0.826,1.343l-2.482,0.514l-1.861,2.38l-4.751,1.652l-4.135,0.724l-4.032-1.134
			l-1.238,1.857l-2.999-0.515l-0.724,2.479l0.724,3.928l-1.031-0.723l-2.794,1.861l-3.099-3.102l-0.208-2.17l-3.617,0.207
			l-0.62,1.036l-1.032,0.103l-1.861-2.375l-0.103,1.756l-4.343,1.35l-2.271-4.243l-6.72-0.206l-3.41-2.896l-1.396,1.676l5.632,5.765
			l4.857,3.928l-1.135,2.378l0.308,4.652l2.584,2.79l1.241,3.928l-1.138,2.894l5.686,1.754l3.718-0.827l0.723,0.518l0.104,3.513
			l-7.75,3l-2.482,1.032l-1.755,5.58l-2.482,3.308l-0.206-2.478l-5.583,4.237l-1.345-1.036l-2.479,2.276l-2.793,0.723l-0.207,2.79
			l-2.686,0.827l-1.241,2.896h-2.273l0.827-3.41l-1.963-1.347l-2.478,0.932l-3.722,2.376l-3.493,0.61l-8.185-6.85l-4.032,0.557
			l0.207-5.271l-0.929-5.063l-1.656-0.518l0.473-3.636c-1.303-1.221-2.607-2.523-3.912-3.828c0-0.652,0-1.302,0-1.955
			c-0.569-0.652-1.22-1.302-1.87-1.954c0-0.568,0-1.221,0-1.874c1.221-1.302,2.523-2.604,3.828-3.909c0-1.875,0-3.828,0-5.783
			c-1.224-1.222-2.527-2.523-3.828-3.825c0-0.652,0-1.304,0-1.958c-0.652-0.65-1.305-1.302-1.955-1.954c0-1.871,0-3.824,0-5.779
			c-0.651-0.572-1.304-1.225-1.954-1.874c0-0.653,0-1.305,0-1.955c0.648-0.652,1.302-1.304,1.954-1.954c0-3.176,0-6.355,0-9.611
			c0.649-0.653,1.615-2.241,2.266-2.893l0.345-4.174h94.548L212.891-34.085z"/>
		<path id="Guiana-Suriname_1_" fill="#BABABA" stroke="#FFFFFF" d="M210.993-36.851c2.607,2.604,5.672,5.304,8.197,7.831
			c0.652,0,1.301,0,1.956,0l0.93-1.733l3.205,0.207l2.688-0.933l1.86,1.138l1.652,3.41l-0.517,3.723l-2.065,3.098l4.133,1.137
			l3.205,1.655l-0.621,2.79l1.549,1.134l1.449,2.275l-0.621,1.238l-4.445,4.86l-0.206,4.754l-1.758,7.441l1.139,4.857l2.169,3.205
			l0.516,3.098l1.135,4.344l1.45,1.24l2.375,2.893l5.169,3.513l2.687,1.549l2.894-1.032l3.513-0.206v-2.378l2.38-1.652l3.928,0.62
			l4.031-3.102l3.41,0.518l3.308-4.031l1.86,0.206l1.757-1.138l4.96,2.276l1.009-1.964c0-1.305,0-2.607,0-3.913
			c-1.222-1.221-2.523-2.522-3.825-3.825c0-0.653,0-1.305,0-1.955c-0.652-0.571-1.304-1.225-1.954-1.874c0-1.305,0-2.607,0-3.909
			c-0.653-0.571-1.306-1.222-1.956-1.873c0-0.654,0-1.302,0-1.956c-0.573-0.652-1.224-1.305-1.873-1.954c-0.653,0-1.306,0-1.956,0
			c-2.526-2.527-5.128-5.13-7.735-7.737c0-2.527,0-5.05,0-7.658c0.648-0.648,1.3-1.301,1.954-1.953c0-1.871,0-3.828,0-5.782
			c1.222-1.302,2.525-2.604,3.829-3.909c1.871,0,3.825,0,5.784,0c0-1.222,0-2.523,0-3.829c0.648-0.649,3.42-4.063,4.074-4.715
			H210.993z"/>
		<path id="Guiana-Suriname_3_" fill="#BABABA" stroke="#FFFFFF" d="M281.271,19.991c0-1.305,0-2.607,0-3.913
			c-1.222-1.221-2.522-2.522-3.825-3.825c0-0.653,0-1.305,0-1.955c-0.652-0.571-1.303-1.225-1.954-1.874c0-1.305,0-2.606,0-3.909
			c-0.653-0.571-1.306-1.221-1.956-1.873c0-0.654,0-1.302,0-1.956c-0.572-0.652-1.225-1.305-1.873-1.954c-0.652,0-1.306,0-1.956,0
			c-2.526-2.526-5.129-5.13-7.736-7.737c0-2.527,0-5.05,0-7.657c0.648-0.648,1.3-1.302,1.954-1.954c0-1.871,0-3.829,0-5.782
			c1.222-1.302,2.524-2.604,3.829-3.909c1.872,0,3.825,0,5.783,0c0-1.222,0-2.523,0-3.829c0.649-0.65,3.423-4.064,4.078-4.718
			h47.486c-1.301,1.302-4.195,6.107-5.416,7.33c0,0.653,0,1.302,0,1.955c-0.654,0.652-1.302,1.302-1.956,1.954
			c0,0.653,0,1.305,0,1.955c0.653,0.652,1.301,1.306,1.956,1.874c0,2.606,0,5.21,0,7.737c0.651,0.652,1.301,1.302,1.953,1.954
			c0,0.653,0,1.302,0,1.875c1.302,1.302,2.607,2.604,3.828,3.909c0,1.954,0,3.909,0,5.782c-0.651,0.65-1.304,1.302-1.955,1.954
			c0,1.302,0,2.604,0,3.825c-1.304,1.306-2.605,2.607-3.826,3.829c0,1.306-0.388,7.217-0.388,8.519l-3.169-1.122l-2.584-1.964
			l-1.344-0.415l0.103-1.343l-2.79,0.206l-2.066-2.479l-6.41,2.479l-4.133,0.209l-3.41-1.552l-3.102,3.723l2.378,2.688l0.828,1.963
			l-1.032,2.375l-2.793-0.825l-3.925-0.827l-4.575-0.154"/>
		<path id="Guiana-Suriname_4_" fill="#BABABA" stroke="#FFFFFF" d="M325.101-36.851h16.586l9.17,8.366l5.856,6.38l3.234,3.958
			l-1.239,5.169l-2.066,1.861l-4.963,7.957l-3.718,6.409l-2.791,7.544l-4.651,4.548l-1.655,1.446h-5.271l0.933-1.137l-1.55-1.241
			l-2.174,0.829l-2.375,0.103l-1.962-1.24l-2.895,1.964l-4.272,1.536c0-1.302,0.388-7.213,0.388-8.519
			c1.221-1.221,2.522-2.523,3.826-3.829c0-1.221,0-2.523,0-3.825c0.65-0.652,1.303-1.304,1.955-1.954c0-1.874,0-3.828,0-5.782
			c-1.221-1.305-2.526-2.607-3.828-3.909c0-0.572,0-1.221,0-1.875c-0.651-0.652-1.301-1.302-1.953-1.954c0-2.527,0-5.13,0-7.737
			c-0.654-0.568-1.302-1.222-1.956-1.874c0-0.649,0-1.302,0-1.954c0.653-0.653,1.301-1.302,1.956-1.955c0-0.653,0-1.302,0-1.955
			c1.221-1.221,2.837-3.774,4.139-5.075L325.101-36.851z"/>
		<path fill="#BABABA" stroke="#FFFFFF" d="M111.281,583.8c0-0.57,0-1.223,0-1.875c-0.65-0.648-1.299-1.303-1.955-1.955
			c0-1.221,0-2.523,0-3.825c-0.568-0.651-1.22-1.305-1.874-1.953c0-0.653,0-1.305,0-1.959c-0.647-0.647-1.299-1.302-1.954-1.957
			c0-1.223,0-2.522,0-3.825c-0.65-0.649-1.302-1.3-1.955-1.956c0-1.223,0-2.524,0-3.827c-0.569-0.653-1.221-1.304-1.874-1.953
			c0-0.573,0-1.223,0-1.874c-0.65-0.654-1.302-1.302-1.955-1.956c0-1.874,0-3.827,0-5.782c0.65-0.651,1.302-1.301,1.955-1.953
			c0-2.528,0-5.131,0-7.737c0.571-0.569,1.221-1.223,1.874-1.873c0-0.649,0-1.303,0-1.957c0.65-0.648,1.303-1.3,1.955-1.953
			c0-1.874,0-3.827,0-5.787c-0.65-0.645-1.302-1.299-1.955-1.953c0-3.83,0-7.655,0-11.563c0.65-0.573,1.303-1.222,1.955-1.869
			c0-3.18,0-6.44,0-9.696c1.222-1.219,2.528-2.527,3.827-3.828c0-0.647,0-1.297,0-1.955c0.654-0.651,1.303-1.297,1.955-1.953
			c0-0.569,0-1.223,0-1.874c0.652-0.653,1.302-1.298,1.957-1.956c0-1.22,0-2.521,0-3.827c2.526-2.522,5.127-5.129,7.737-7.736
			c0-0.648,0-1.303,0-1.955c-0.653-0.649-1.301-1.301-1.956-1.954c0-0.569,0-1.223,0-1.871c-0.653-0.651-1.3-1.305-1.955-1.959
			c0.652-0.647,1.299-1.3,1.955-1.953c0-1.871,0-3.825,0-5.78c-0.653-0.576-1.3-1.221-1.955-1.872c0-7.085,0-14.173,0-21.258
			c1.299-1.22,2.607-2.525,3.908-3.827c0.569,0,1.219,0,1.873,0c0.649-0.649,1.301-1.303,1.956-1.956c0.65,0,1.3,0,1.955,0
			c1.222-1.3,2.523-2.604,3.829-3.907c0.649,0,1.299,0,1.955,0c0-1.874,0-3.829,0-5.784c0.568-0.569,1.222-1.222,1.874-1.87
			c0-2.526,0-5.132,0-7.736c-0.572-0.651-1.225-1.305-1.874-1.953l0,0c0.568-0.653,1.222-1.305,1.874-1.961c0-0.569,0-1.222,0-1.87
			c1.299-1.304,2.604-2.606,3.908-3.906c0-1.223,0-2.527,0-3.829c1.222,0,2.524,0,3.825,0c1.303-1.221,2.607-2.528,3.91-3.827
			c2.525,0,5.047,0,7.654,0c0.652,0.569,1.304,1.22,1.956,1.871c0.653,0,1.303,0,1.955,0c0.572-0.572,1.221-1.22,1.874-1.871
			c1.3,0,2.607,0,3.907,0c1.874,1.871,3.83,3.827,5.784,5.782c0.654,0,1.3,0,1.955,0c0.569,0.569,1.221,1.221,1.874,1.874
			c0.65,0,1.3,0,1.955,0c0.652-0.573,1.302-1.223,1.957-1.874c0-0.652,0-1.302,0-1.955c0.568-0.653,1.219-1.305,1.871-1.956
			c0-1.22,0-2.526,0-3.828c5.785,0,11.562,0,17.428,0c0.569,0.652,1.222,1.3,1.872,1.957l0,0c0.65,0.651,1.302,1.299,1.954,1.871
			c0,0.649,0,1.301,0,1.956c1.955,1.955,3.909,3.908,5.783,5.782c0,0.649,0,1.304,0,1.957c2.609,2.604,5.216,5.209,7.737,7.735
			c0.653,0,1.306,0,1.957,0c0.65,0.649,1.304,1.301,1.872,1.87c0.653,0,1.302,0,1.957,0c1.955,1.954,3.907,3.911,5.783,5.783
			c1.954,0,3.908,0,5.782,0c0.65,0.653,1.302,1.304,1.957,1.955c1.955,0,3.908,0,5.783,0c1.301,1.306,2.604,2.607,3.825,3.827
			c0.652,0,1.304,0,1.956,0c1.304,1.305,2.607,2.607,3.827,3.909c0.652,0,1.305,0,1.956,0c1.304,1.305,2.607,2.607,3.828,3.827
			c1.304,0,2.607,0,3.91,0c0.651,0.654,1.302,1.303,1.953,1.957c1.306,0,2.607,0,3.829,0c0.652,0.65,1.302,1.3,1.954,1.953
			c0.652,0,1.305,0,1.874,0c1.956,1.958,3.909,3.908,5.784,5.787c0,0.651,0,1.298,0,1.87c-0.651,0.647-1.305,1.299-1.873,1.957
			c0,0.653,0,1.298,0,1.953c-0.653,0.654-1.302,1.304-1.956,1.877c0,0.648,0,1.297,0,1.953c-1.301,1.302-2.608,2.603-3.83,3.909
			c0,1.954,0,3.907,0,5.781c-0.65,0.65-1.3,1.302-1.954,1.871c0,0.653,0,1.301,0,1.953c-1.3,1.308-2.607,2.606-3.829,3.829
			c0,0.654,0,1.306,0,1.955c3.909,0,7.738,0,11.566,0c0.652,0.652,1.299,1.306,1.872,1.955c8.388,0,16.776,0,25.081,0
			c0.653-0.649,1.306-1.303,1.958-1.955c0.649,0,1.302,0,1.954,0c0-0.649,0-1.301,0-1.955c0.653-0.647,1.305-1.302,1.954-1.87
			c0.653,0,1.306,0,1.875,0c1.953-1.959,3.908-3.912,5.781-5.783c0.653,0,1.304,0,1.957,0c0-0.651,0-1.305,0-1.954
			c0.652-0.651,1.3-1.305,1.955-1.953c0-3.911,0-7.736,0-11.566l0.996,0.433l0.929-0.412l0.723-0.313l0.621,0.621v-0.415
			l0.929,0.209l-0.515-0.41l0.31-0.308l1.344-0.62l-0.308,0.928l0.206,0.725l0.309,0.204l0.31-0.826l0.309,0.416l0.413-0.416
			l0.62,0.826h0.208l0.517,0.105l0.206-0.105l0.103,0.105l-0.103,0.206l0.518-0.102l-0.103,0.514l0.205-0.103l0.415,0.621
			l-0.103,0.208l-0.212,0.206l0.212,0.106l-0.106,0.308l0.209,0.21l-0.103,0.103l0.41,0.206l0.104,0.313l-0.207,0.306l-0.104,0.104
			l-0.103,0.313l0.206,0.102v0.725h0.207h0.103v0.517h-0.42l0.104,0.62l0.308,0.105v0.206h0.107l0.308,0.103l0.205,0.21
			l-0.102,0.206l0.209,0.104l0.208,0.208l0.103-0.106l0.31,0.519h-0.105l-0.103,0.307l0.103,0.209L326.669,461v0.104l0.309,0.206
			h0.105l0.103,0.213l0.104,0.203l0.311,0.206l0.103,0.104l0.206,0.313h0.104v0.203l0.208,0.107l-0.208,0.31l0.104,0.102
			l0.104,0.208l-0.104,0.519l-0.62,0.826v0.211l-0.206,0.206l-0.104,0.308l0.206,0.311l-0.103,0.722l0.103,0.105l-0.103,0.826
			l-0.412-0.104v0.312h0.208l-0.104,0.307l-0.209,1.347l-0.307,0.206l0.412,0.414v0.104l-0.208,0.103l-0.208,0.414l0.104,0.518
			l0.31-0.21l0.208,0.517h-0.104l0.41,1.346h0.313l0.205,0.31l-0.518-0.105l0.313,0.516v0.311l-0.313,0.208l0.211,0.306
			l-0.414-0.204l0.104,0.414h-0.412l-0.412,1.236l-0.313,0.211l0.313,0.21l-0.208,0.206h-0.209l-0.208-0.206l-0.104,0.306
			l0.411,0.311l-0.411,0.102v0.212l-0.31,0.104l0.103,0.206l-0.207,0.102l-0.103,0.104l0.103,0.102l-0.103,0.107l-0.308-0.621
			l-0.414,0.102l-0.518,0.623l-0.517-0.31l-0.104,0.62l-0.723,0.104l-0.31,0.826l-0.414,0.104l-0.307,0.62l-1.242-0.102v-0.411
			l-0.21-0.211l-0.307,0.828l-0.31,0.621l-0.105,0.62l-0.617,0.208l-0.107,0.619l-0.41,0.103l-0.724-0.62l0.104,0.826l-0.207,0.105
			l-0.622-0.726l-0.414-0.206l-0.307,0.311h-0.518l0.412,0.726l-0.93,0.102l-0.206,0.307l-0.312,0.105l-0.723-0.828l-0.62,1.444
			h-0.309l-0.206-0.512l-0.312,0.102v0.927l-0.621-0.204l-0.62,0.308l-0.411-0.104l-0.105-0.623l-0.309-0.103l-0.621,1.549h-0.62
			l-0.103,1.553l-0.416,0.41l-0.103,0.312l-0.307,0.103l-0.518-0.103l-0.414,0.309l-0.514-0.412l-0.415,0.516l0.723,0.309v0.623
			l-0.723-0.312l-0.723,0.312l-1.036-0.105l-1.031,1.24l-0.932-0.106l-0.206,0.622l-0.517,0.105l-0.103,0.411l0.209,0.308
			l-0.106,0.311l-0.62,0.31l-0.515,0.62l-0.723-0.311l-0.83,1.245l-0.514-0.518l-0.209-0.104l-0.411,0.309l0.103,0.206l-0.206,0.414
			l-2.172,1.034V495l0.62,0.21l0.932,0.623l-0.415,1.546h-0.205l-0.416-0.827l-1.653-0.31l-0.828,0.725l0.21,1.24l-1.861,0.414
			l-0.207,0.724l0.411,0.52l-2.893,2.994l-1.652,0.31v1.446l-0.621,0.829l-0.724,0.206l-0.518,0.722l0.308,0.313l-0.308,0.93
			l-1.241,0.103l-1.446,0.518l-0.93,1.759l0.106,0.409l-1.036,1.759l-2.892,2.585l-3.41,3.717l-0.623,0.208l-1.137,0.106
			l-1.241,1.446l0.102,0.826l-0.102,0.62l-0.307,0.412l-1.549,1.138l-0.517,0.827l-1.553,0.828l-0.929,0.206h0.517l0.725,0.308
			l0.103,0.106l0.103,0.928l0.827,0.206l0.107-0.308l1.134,0.206l-0.103,0.312h0.517l0.409-0.518l0.108,0.206l0.724-0.306
			l0.936,1.639l-1.874,1.958v11.563l-1.955,1.956v5.783l-1.957,1.871l1.957,1.958v13.52l-1.957,1.953v1.872l-1.873,1.953
			l-0.007,14.517H111.484L111.281,583.8"/>
		<path fill="#BABABA" stroke="#FFFFFF" d="M132.538,414.001c-3.176,0-6.435,0-9.691,0c0-0.652,0-1.304,0-1.957
			c-0.573-0.569-1.222-1.222-1.873-1.869c0-1.876,0-3.83,0-5.785c-0.653-0.651-1.301-1.301-1.956-1.954c0-0.652,0-1.304,0-1.956
			c-0.653-0.572-1.3-1.22-1.955-1.871c0-1.302,0-2.607,0-3.909c-0.652-0.569-1.302-1.222-1.957-1.874c0-0.648,0-1.302,0-1.955
			c-1.871-1.873-3.828-3.828-5.783-5.781c0-1.872,0-3.829,0-5.785c-0.568-0.647-1.221-1.301-1.874-1.955c0-5.784,0-11.563,0-17.346
			c-1.299-1.304-2.604-2.606-3.906-3.906c-0.569,0-1.221,0-1.874,0c0-1.223,0-2.527,0-3.832c-0.65-0.648-1.302-1.303-1.955-1.953
			c0-2.527,0-5.128,0-7.737c-0.649-0.568-1.303-1.22-1.957-1.87c0-0.654,0-1.301,0-1.959c-0.569,0-1.221,0-1.868,0l-0.652-0.648
			l-5.214-1.301c-0.65,0.651-1.302,1.302-1.87,1.954c0,0.653,0,1.301,0,1.956c-1.306,1.304-2.607,2.606-3.909,3.826
			c-1.238,0-2.471,0-3.639,0c0.087,4.745-0.104,10.191-0.064,14.918c3.339,3.469,0.307,2.828,3.08,6.819
			c1.796,5.911,0.758,8.075,0.791,15.915c3.639,3.285,0.352,7.598,1.973,9.397c2.435,2.701,3.289,6.397-0.234,8.355
			c-1.257,4.545-0.128,33.065,0.058,47.816c0.037,3.062,2.096,3.698,2.054,5.77c-0.054,2.784-1.848,4.069-1.883,4.096
			c0.502,1.019-0.361,8.421,0.012,10.954c0.289,1.967,1.98,1.944,1.468,2.667c-2.77,3.929,0.744,6.254-3.256,11.338
			c-0.858,1.96,0.424,11.534-0.343,13.754c-0.054,2.047,0.406,6.901-0.366,8.162c-2.418,3.934-1.761,6.813-3.344,7.829
			c0,1.072-0.635,5.679-0.355,6.213l0.18-0.185c0,1.314,1.925,2.477,2.449,3.737c2.51,4.664,2.359,6.858-0.82,12.992
			c0.494,1.517,0.494,3.882-0.007,5.397c0.718,1.535,0.825,3.94,0.417,5.617c0.336,1.371,0.583,2.833,0.415,4.246
			c1.398,1.998,1.673,5.212,2.318,7.528c2.054-2.661-0.991,4.877,3.063,10.514c1.08,1.778-0.003,4.234-0.036,6.33
			c0.105,2.708-0.044,9.101,0.347,12.049h22.964c0-0.324-0.203-4.503-0.203-4.838c-0.65-0.648-1.299-1.303-1.955-1.955
			c0-1.221,0-2.523,0-3.825c-0.568-0.651-1.22-1.305-1.874-1.953c0-0.653,0-1.305,0-1.959c-0.647-0.647-1.299-1.302-1.954-1.957
			c0-1.223,0-2.522,0-3.825c-0.65-0.651-1.302-1.3-1.955-1.956c0-1.223,0-2.524,0-3.827c-0.569-0.653-1.221-1.304-1.874-1.953
			c0-0.573,0-1.223,0-1.874c-0.65-0.654-1.302-1.302-1.955-1.956c0-1.874,0-3.827,0-5.782c0.65-0.651,1.302-1.301,1.955-1.953
			c0-2.528,0-5.131,0-7.737c0.571-0.569,1.221-1.223,1.874-1.873c0-0.649,0-1.303,0-1.957c0.65-0.648,1.303-1.3,1.955-1.953
			c0-1.874,0-3.827,0-5.787c-0.65-0.647-1.302-1.299-1.955-1.953c0-3.83,0-7.655,0-11.563c0.65-0.573,1.303-1.222,1.955-1.869
			c0-3.18,0-6.44,0-9.696c1.222-1.219,2.528-2.527,3.827-3.828c0-0.647,0-1.297,0-1.955c0.654-0.651,1.303-1.3,1.955-1.953
			c0-0.569,0-1.223,0-1.874c0.652-0.653,1.302-1.3,1.957-1.956c0-1.22,0-2.521,0-3.827c2.526-2.522,5.127-5.129,7.737-7.736
			c0-0.648,0-1.303,0-1.955c-0.653-0.649-1.301-1.301-1.956-1.954c0-0.569,0-1.223,0-1.871c-0.653-0.651-1.3-1.305-1.955-1.959
			c0.652-0.647,1.299-1.3,1.955-1.953c0-1.871,0-3.825,0-5.78c-0.653-0.576-1.3-1.223-1.955-1.872c0-7.085,0-14.173,0-21.258
			c1.299-1.22,2.607-2.525,3.907-3.827c0.57,0,1.22,0,1.874,0c0.649-0.649,1.301-1.303,1.956-1.956c0.65,0,1.3,0,1.955,0
			c1.222-1.3,2.523-2.604,3.829-3.908c0.649,0,1.299,0,1.955,0c0-1.873,0-3.829,0-5.783c0.568-0.569,1.222-1.222,1.874-1.871
			c0-2.525,0-5.131,0-7.735c-0.571-0.651-1.222-1.302-1.869-1.949h-0.004V414.001z"/>
		<path id="Argentina-Uruguai" fill="#BABABA" stroke="#FFFFFF" d="M330.509,582.666c0.652-0.654-2.703,4.098-2.703,4.098h-62.117
			c0-2.523,0-11.923,0-14.53c0.573-0.647,1.222-1.302,1.875-1.953c0-0.569,0-1.223,0-1.872c0.652-0.65,1.3-1.304,1.954-1.953
			c0-4.479,0-8.959,0-13.519c-0.65-0.654-1.3-1.306-1.954-1.957c0.652-0.571,1.3-1.219,1.954-1.873c0-1.874,0-3.827,0-5.78
			c0.653-0.653,1.301-1.303,1.957-1.961c0-3.826,0-7.651,0-11.56c0.568-0.651,1.221-1.302,1.872-1.96c0-1.22,0-2.521,0-3.825
			l6.194-0.5l12.816,11.883l0.192,5.099l6.588-7.183l10.583,10.867l8.888,5.919l8.373,4.935l4.754,7.442l5.167,2.584l-7.687,8.7"/>
	</g>
</g>
<g>
	<polygon fill="#03A9AE" stroke="#FFFFFF" points="387.998,510.898 384.25,509.46 381.31,510.585 384.345,506.567 384.452,502.532 
		387.349,500.352 387.32,498.297 375.185,496.96 365.216,487.134 358.667,482.991 354.81,482.46 352.123,479.898 342.869,478.86 
		336.763,476.587 332.419,476.482 325.219,477.44 321.06,479.625 317.621,481.742 309.998,483.96 305.697,488.887 296.248,494.585 
		297.373,495.96 294.222,496.601 288.248,503.523 285.498,507.46 282.889,508.939 279.231,514.322 274.477,518.669 272.099,520.222 
		271.623,522.023 267.623,524.773 270.659,526.837 273.295,526.589 273.345,524.02 279.935,523.773 292.355,535.403 
		292.547,540.501 299.135,533.319 309.865,544.284 314.881,545.843 317.31,548.96 327.06,554.648 331.613,562.293 336.945,564.835 
		330.16,572.695 330.373,579.523 332.56,580.273 342.373,571.898 346.06,563.835 351.56,555.142 361,549.338 369.847,541.816 
		376.389,533.046 381.373,521.023 385.359,515.161 387.761,511.857 	"/>
	<polygon fill="#03A9AE" stroke="#FFFFFF" points="325.219,477.44 332.419,476.482 336.763,476.587 342.869,478.86 352.123,479.898 
		354.81,482.46 358.667,482.991 365.216,487.134 375.185,496.96 387.32,498.297 387.349,500.352 384.452,502.532 384.345,506.567 
		381.31,510.585 384.25,509.46 387.998,510.898 394.825,504.228 401.748,499.21 404.123,491.46 404.305,484.953 404.789,475.648 
		404.248,471.96 403.31,471.335 403.31,469.335 406.268,462.724 404.748,458.585 396.649,459.416 391.264,462.419 386.978,460.868 
		382.84,459.834 377.565,460.149 374.976,459.318 371.563,462.837 369.802,463.25 366.805,463.562 364.013,465.529 364.84,468.738 
		361.644,470.585 360.391,468.532 353.467,468.115 350.361,466.257 345.294,465.533 340.844,464.705 336.9,464.793 333.707,463.152 
		331.221,463.669 328.115,463.796 326.771,469.172 327.701,473.613 	"/>
	<polyline id="Parana" fill="#03A9AE" stroke="#FFFFFF" points="328.115,463.796 331.221,463.669 333.707,463.152 336.9,464.793 
		340.844,464.705 345.294,465.533 350.361,466.257 353.467,468.115 360.391,468.532 361.644,470.585 364.84,468.738 
		364.013,465.529 366.805,463.562 369.802,463.25 371.563,462.837 374.976,459.318 377.565,460.149 382.84,459.834 386.978,460.868 
		391.264,462.419 396.649,459.416 404.748,458.585 406.268,454.96 409.594,452.263 408.643,451.127 413.661,447.267 
		411.181,446.751 410.244,443.232 408.691,444.165 406.828,443.851 405.9,445.197 404.967,443.956 406.002,439.501 404.655,438.361 
		398.134,438.364 394.097,438.365 395.135,433.916 390.438,426.566 390.228,422.944 389.196,417.765 387.231,413.863 
		384.31,413.863 383.82,410.551 380.095,411.482 373.269,410.755 372.237,411.479 369.032,408.792 365.103,407.863 361.588,406.724 
		356.629,406.113 350.94,405.077 350.217,406.834 344.53,405.697 338.477,405.96 335.975,406.729 328.328,412.209 327.912,414.587 
		326.26,418 323.053,419.342 321.193,427.096 317.68,429.675 318.606,433.627 317.475,439.082 315.618,444.911 315.618,448.507 
		317.723,450.632 316.977,452.46 321.31,451.96 324.092,453.344 325.538,457.688 326.771,460.379 327.827,463.46 	"/>
	<polyline id="saopaulo" fill="#03A9AE" stroke="#FFFFFF" points="414.978,443.79 425.858,436.828 428.962,433.83 430.202,432.277 
		438.778,427.418 440.539,427.936 442.607,425.659 448.935,424.613 451.978,424.613 453.677,424.419 453.685,426.889 
		456.27,424.921 453.159,422.456 456.478,420.581 460.51,418.31 463.919,418.003 461.644,415.829 462.978,411.457 470.078,409.88 
		472.561,405.083 468.978,405.077 466.867,406.567 463.136,402.946 456.311,404.556 453.519,406.773 449.692,406.153 
		447.418,407.499 448.452,409.047 444.72,410.184 439.037,410.601 439.245,408.739 437.278,407.5 438.417,406.256 438.478,404.556 
		433.968,401.909 435.208,398.911 434.277,397.356 435.002,396.217 435,392.493 436.241,390.736 436.653,388.664 434.045,386.786 
		431.482,386.902 429.721,387.419 427.549,383.587 426.644,379.123 424.978,377.018 427.755,375.835 426.928,373.24 
		424.311,371.457 424.644,369.457 425.587,368.275 423.002,366.104 422.176,364.45 420.312,365.484 419.811,366.289 
		418.142,364.861 415.971,365.379 415.141,366.827 412.146,367.138 410.284,365.693 409.765,367.245 404.29,367.76 401.191,367.865 
		400.88,371.482 399.311,371.789 398.604,367.552 397.883,367.552 396.225,369.929 394.311,368.789 394.37,365.381 394.884,364.553 
		391.475,364.347 389.307,363.934 385.07,364.14 379.9,363.211 376.492,361.659 373.285,363.73 368.944,365.587 367.395,369.005 
		365.428,370.038 363.153,370.66 361.603,372.728 359.332,375.311 358.917,379.962 357.366,380.477 355.921,382.751 
		354.987,383.163 355.402,385.542 353.644,388.642 351.991,388.848 352.402,391.222 350.439,393.603 348.476,395.772 
		345.681,399.907 341.034,402.39 336.278,405.077 338.477,405.96 344.53,405.697 350.217,406.834 350.94,405.077 356.629,406.113 
		361.588,406.724 365.103,407.863 369.032,408.792 372.237,411.479 373.269,410.755 380.095,411.482 383.82,410.551 384.31,413.863 
		387.231,413.863 389.196,417.765 390.228,422.944 390.438,426.566 395.135,433.916 394.097,438.365 398.134,438.364 
		404.655,438.361 406.002,439.501 404.967,443.956 405.9,445.197 406.828,443.851 408.691,444.165 410.244,443.232 411.181,446.751 
		413.299,447.192 413.661,447.267 	"/>
	<polyline fill="#03A9AE" stroke="#FFFFFF" points="368.944,365.587 373.285,363.73 376.492,361.659 379.9,363.211 385.07,364.14 
		389.307,363.934 391.475,364.347 394.884,364.553 394.37,365.381 394.311,368.789 396.225,369.929 397.883,367.552 
		398.604,367.552 399.311,371.789 400.88,371.482 401.191,367.865 404.29,367.76 409.765,367.245 410.284,365.693 412.146,367.138 
		415.141,366.827 415.971,365.379 418.142,364.861 419.811,366.289 420.312,365.484 422.176,364.45 423.002,366.104 
		425.587,368.275 424.644,369.457 424.311,371.457 426.928,373.24 427.755,375.835 424.978,377.018 426.644,379.123 
		427.549,383.587 429.721,387.419 431.482,386.902 434.045,386.786 436.653,388.664 436.241,390.736 435,392.493 435.002,396.217 
		434.277,397.356 435.208,398.911 433.968,401.909 438.478,404.556 438.417,406.256 437.278,407.5 439.245,408.739 439.037,410.601 
		444.72,410.184 448.452,409.047 447.418,407.499 449.692,406.153 453.519,406.773 456.311,404.556 463.136,402.946 
		470.951,400.303 477.575,397.919 482.957,397.61 485.44,396.68 488.856,397.816 501.36,391.714 499.435,390.585 501.358,388.096 
		502.809,382.816 503.119,380.331 505.805,379.502 506.935,377.018 508.462,372.686 507.526,371.031 509.082,368.447 
		514.867,368.135 515.56,364.46 517.765,363.481 517.87,360.999 517.87,359.46 521.075,357.375 522.003,354.48 520.865,351.065 
		518.896,348.269 516.931,347.128 517.81,345.21 519.185,346.585 521.584,346.821 520.86,344.335 519.826,343.715 520.342,340.922 
		517.56,340.335 518.185,337.46 520.137,336.269 522.311,335.65 523.761,336.272 522.105,333.583 523.864,333.48 525.104,333.999 
		526.862,332.754 529.651,332.544 531.516,332.959 532.756,332.134 532.135,329.341 529.445,326.959 526.185,323.835 
		527.478,321.683 528.185,316.21 530.995,316.62 532.136,315.48 530.636,314.667 532.034,311.343 535.031,309.279 537.206,306.486 
		537.206,303.585 535.551,301.933 532.549,299.553 530.271,299.553 529.028,298.522 526.96,298.725 522.096,296.969 
		518.167,298.518 515.793,298.311 515.277,294.487 508.457,288.183 506.282,289.423 503.802,288.91 500.694,288.185 
		494.076,284.458 488.594,281.459 484.663,281.872 482.079,283.217 476.31,280.585 477.936,275.978 471.725,274.53 466.245,276.395 
		457.935,282.085 456.619,282.602 453.154,285.412 450.435,285.335 448.649,288.398 443.788,290.674 442.56,289.335 
		445.031,286.125 444.089,284.376 439.856,284.669 437.185,281.335 436.031,283.838 436.445,286.732 433.858,287.459 
		431.484,286.732 430.45,287.769 430.552,289.421 430.185,290.96 431.69,292.108 429.81,293.585 430.14,295.521 431.06,296.835 
		432.207,300.484 427.24,301.206 424.344,303.691 423.927,306.64 421.935,309.96 425.185,313.96 426.31,317.085 427.036,318.333 
		423.103,321.854 421.81,324.085 422.176,326.405 423.923,326.356 425.276,328.062 423.621,331.063 424.967,334.582 418.935,338.46 
		414.406,341.212 408.749,339.448 403.81,338.585 400.268,338.72 395.929,340.58 392.31,343.267 390.653,341.511 387.551,343.371 
		383.103,343.267 378.935,344.085 376.06,347.46 374.941,351.332 371.935,352.335 369.636,355.46 370.435,357.231 368.219,359.709 
		367.9,361.882 368.685,365.835 	"/>
	<polygon fill="#03A9AE" stroke="#FFFFFF" points="521.232,385.501 519.263,384.158 518.894,384.711 515.144,384.211 
		510.153,382.606 509.327,377.848 506.935,377.018 505.805,379.502 503.119,380.331 502.809,382.816 501.358,388.096 
		499.435,390.585 501.36,391.714 488.856,397.816 485.44,396.68 482.957,397.61 477.575,397.919 470.951,400.303 463.136,402.946 
		466.867,406.567 468.978,405.077 472.561,405.083 470.078,409.88 467.283,410.5 467.977,410.975 470.977,410.975 472.561,411.627 
		474.227,410.601 478.477,410.601 481.144,412.044 483.644,410.975 486.644,411.377 485.477,408.627 487.561,406.961 
		490.811,407.627 488.771,410.831 495.644,410.127 504.227,410.975 505.644,408.544 504.644,405.711 506.811,403.377 
		509.477,401.127 516.894,398.044 520.394,396.127 520.419,390.845 519.575,388.807 	"/>
	<polygon fill="#03A9AE" stroke="#FFFFFF" points="540.623,338.696 532.756,332.134 531.516,332.959 529.651,332.544 
		526.862,332.754 525.104,333.999 523.864,333.48 522.105,333.583 523.761,336.272 522.311,335.65 520.137,336.269 518.185,337.46 
		517.56,340.335 520.342,340.922 519.826,343.715 520.86,344.335 521.584,346.821 519.185,346.585 517.81,345.21 516.931,347.128 
		518.896,348.269 520.865,351.065 522.003,354.48 521.075,357.375 517.87,359.46 517.87,360.999 517.765,363.481 515.56,364.46 
		514.867,368.135 509.082,368.447 507.526,371.031 508.462,372.686 506.935,377.018 509.327,377.848 510.153,382.606 
		515.144,384.211 518.894,384.711 519.263,384.158 520.253,384.833 521.334,382.96 523.779,378.46 526.435,376.46 529.81,372.71 
		531.31,368.71 533.185,363.085 538.136,358.75 540.06,354.576 539.844,348.163 	"/>
	<polygon fill="#03A9AE" stroke="#FFFFFF" points="444.089,284.376 445.031,286.125 442.56,289.335 443.788,290.674 
		448.649,288.398 450.435,285.335 453.154,285.412 456.619,282.602 457.935,282.085 466.245,276.395 471.725,274.53 
		477.936,275.978 476.31,280.585 482.079,283.217 484.663,281.872 488.594,281.459 494.076,284.458 500.694,288.185 503.802,288.91 
		506.282,289.423 508.457,288.183 515.277,294.487 515.793,298.311 518.167,298.518 522.096,296.969 526.96,298.725 
		529.028,298.522 530.271,299.553 532.549,299.553 535.551,301.933 537.206,303.585 537.206,306.486 535.031,309.279 
		532.034,311.343 530.636,314.667 532.136,315.48 530.995,316.62 528.185,316.21 527.478,321.683 526.185,323.835 529.445,326.959 
		532.135,329.341 532.756,332.134 540.623,338.696 542.42,335.041 547.177,331.11 548.313,329.561 549.035,315.915 550.278,309.092 
		552.977,299.19 550.377,283.145 552.242,269.913 551.62,265.778 550.976,258.794 556.998,254.199 559.476,254.199 567.649,246.449 
		575.241,231.654 570.479,232.48 566.65,229.998 563.976,225.127 562.614,221.725 563.035,219.666 565.104,219.354 567.274,219.768 
		569.137,219.044 568.721,214.393 570.376,213.361 568.929,208.19 566.344,206.743 565.724,201.885 565.255,199.409 
		563.394,199.097 561.389,194.241 561.496,192.277 559.635,192.896 558.497,191.865 558.601,189.796 557.671,189.796 
		556.533,192.276 555.31,189.587 553.122,189.074 551.468,189.177 548.469,187.729 547.436,187.729 546.713,185.555 
		544.123,185.662 540.612,187.108 540.401,189.281 537.405,189.9 537.817,191.348 534.925,193.415 533.374,194.138 531.719,193.727 
		531.203,196.723 527.48,199.514 524.171,199.41 525.518,194.863 523.033,192.381 521.897,189.901 518.07,187.833 514.348,188.896 
		511.968,191.793 507.517,196.237 501.728,197.063 496.457,200.27 492.733,201.306 490.395,198.782 485.597,198.721 
		482.807,196.653 478.976,198.96 477.228,201.306 480.02,205.96 479.81,207.921 478.469,209.994 476.61,213.714 474.543,214.75 
		473.643,217.96 470.612,217.748 469.578,216.922 465.976,217.627 463.374,220.539 460.976,221.794 458.099,221.469 454.18,219.286 
		453.035,216.402 453.241,214.024 450.655,209.887 448.534,210.876 448.31,213.127 446.051,215.427 441.296,218.321 440.78,220.907 
		437.369,226.801 434.81,228.46 437.267,231.969 443.163,233.523 440.059,234.555 438.81,236.46 439.028,237.761 441.923,238.173 
		441.81,238.96 438.822,239.829 438.614,242.621 440.059,245.618 441.096,247.377 442.236,247.171 442.129,247.895 440.27,248.722 
		440.27,254.409 442.751,254.099 440.057,256.247 440.265,260.694 443.575,259.351 443.262,260.382 440.888,262.142 
		440.977,264.794 441.199,267.313 439.643,269.294 440.143,272.127 442.233,273.411 445.23,275.993 445.334,277.445 444.61,278.582 
		444.61,280.962 444.193,283.756 	"/>
	<polygon id="goias" fill="#03A9AE" stroke="#FFFFFF" points="445.23,275.993 442.233,273.411 440.143,272.127 439.643,269.294 
		441.199,267.313 440.977,264.794 440.888,262.142 443.262,260.382 443.575,259.351 440.265,260.694 440.057,256.247 
		442.422,254.361 432.435,254.96 429.002,257.51 424.649,258.585 422.48,259.06 418.81,257.085 418.06,258.96 419.582,261.422 
		418.96,262.561 416.069,260.285 412.859,259.043 410.737,259.585 411.81,257.085 406.852,258.941 406.56,256.835 405.198,260.184 
		404.31,260.21 404.886,256.463 402.92,254.808 402.81,253.46 400.848,252.118 399.196,254.6 397.853,252.841 396.51,252.428 
		394.541,254.804 393.404,256.872 393.2,259.56 385.31,254.835 378.932,252.43 379.185,248.96 381.415,245.708 376.81,247.96 
		375.435,251.085 375.872,253.687 373.685,257.085 373.493,261.547 370.595,266.509 370.435,272.21 369.769,273.331 
		368.629,278.087 368.425,280.052 366.685,284.71 363.982,287.182 362.328,286.664 359.56,287.96 358.501,289.457 357.368,294.494 
		355.662,298.47 352.435,300.21 348.81,300.96 346.512,304.105 343.685,306.335 342.682,307.315 343.509,310.212 341.75,312.387 
		337.06,316.085 335.329,321.494 334.189,326.876 335.744,331.021 336.641,334.595 335.918,334.806 336.435,338.625 338.811,338.42 
		340.935,339.278 339.845,341.005 338.636,342.743 339.949,343.9 342.81,343.96 344.807,344.005 347.699,346.18 352.254,348.665 
		357.636,351.047 362.812,352.496 367.052,354.255 369.46,357.951 370.435,357.231 369.636,355.46 371.935,352.335 374.941,351.332 
		376.06,347.46 378.935,344.085 383.103,343.267 387.551,343.371 390.653,341.511 392.31,343.267 395.929,340.58 400.268,338.72 
		403.81,338.585 408.749,339.448 414.406,341.212 418.935,338.46 424.967,334.582 423.621,331.063 425.276,328.062 423.923,326.356 
		422.176,326.405 421.81,324.085 423.103,321.854 427.036,318.333 426.31,317.085 425.185,313.96 421.935,309.96 423.927,306.64 
		424.333,303.768 421.478,303.127 415.034,303.183 409.228,302.793 410.073,301.217 409.228,298.841 411.228,297.71 
		409.763,295.043 411.002,294.499 422.993,294.499 424.438,296.048 424.438,297.913 423.611,300.501 423.611,302.054 
		424.817,303.285 427.24,301.206 432.207,300.484 431.06,296.835 430.14,295.521 429.81,293.585 431.69,292.108 430.185,290.96 
		430.552,289.421 430.45,287.769 431.484,286.732 433.858,287.459 436.445,286.732 436.031,283.838 437.185,281.335 
		439.856,284.669 444.089,284.376 444.193,283.756 444.61,280.962 444.61,278.582 445.334,277.445 	"/>
	<polygon id="DF" fill="#03A9AE" stroke="#FFFFFF" points="411.002,294.499 422.993,294.499 424.438,296.048 424.438,297.913 
		423.611,300.501 423.611,302.054 424.818,303.287 424.342,303.77 421.478,303.127 415.034,303.183 409.228,302.793 
		410.073,301.217 409.228,298.841 411.228,297.71 409.763,295.043 	"/>
	<g>
		<polygon fill="#03A9AE" stroke="#FFFFFF" points="432.435,254.96 429.002,257.51 424.649,258.585 422.48,259.06 418.81,257.085 
			418.06,258.96 419.582,261.422 418.96,262.561 416.069,260.285 412.859,259.043 410.737,259.585 411.81,257.085 406.852,258.941 
			406.56,256.835 405.198,260.184 404.31,260.21 404.886,256.463 402.92,254.808 402.81,253.46 400.848,252.118 399.196,254.6 
			397.853,252.841 396.51,252.428 394.541,254.804 393.404,256.872 393.2,259.56 385.31,254.835 378.932,252.43 379.185,248.96 
			381.415,245.708 376.81,247.96 375.435,251.085 375.793,253.213 374.177,252.428 372.81,250.481 373.556,247.462 373.349,241.464 
			373.145,236.816 373.455,234.541 372.317,232.268 374.213,221.314 377.212,213.461 379.81,205.629 381.435,200.96 
			383.313,196.822 386.514,192.443 389.31,189.21 392.928,184.419 395.774,179.203 396.447,173.458 394.81,172.835 393.06,170.835 
			392.685,168.46 395.728,165.292 395.934,163.122 395.728,159.917 398.414,157.953 400.791,157.126 403.685,155.991 
			403.376,154.585 404.185,152.96 406.169,151.231 407.614,150.923 407.06,148.21 409.475,147.204 409.061,145.445 410.303,144.721 
			409.681,142.86 409.786,141.101 411.025,140.999 412.062,139.139 409.891,138.104 408.44,135.933 406.56,136.96 403.376,135.106 
			405.06,133.21 406.165,132.624 409.264,132.83 411.435,133.762 413.916,133.348 415.154,133.451 416.709,135.724 420.74,136.965 
			421.685,138.21 422.56,140.835 422.806,144.307 422.935,148.835 423.117,150.716 422.29,154.952 421.568,159.086 420.326,161.979 
			418.778,163.221 417.952,163.636 419.086,165.083 421.027,165.186 422.064,166.324 420.305,167.977 421.435,168.585 
			423.923,171.181 425.788,173.665 428.997,177.592 430.685,175.314 433.76,175.314 435.723,175.314 437.173,176.659 
			437.173,179.866 436.653,181.313 434.483,181.933 432.621,182.76 431.276,185.448 430.653,187.829 430.241,190.205 
			427.685,193.308 428.48,193.308 431.587,194.859 432.31,198.683 433.963,198.683 436.06,201.21 434.31,203.71 436.857,205.195 
			437.372,206.54 438.924,210.775 441.298,210.775 444.191,210.98 448.431,211.912 448.31,213.127 446.051,215.427 441.296,218.321 
			440.78,220.907 437.369,226.801 434.81,228.46 437.267,231.969 443.163,233.523 440.059,234.555 438.81,236.46 439.028,237.761 
			441.923,238.173 441.81,238.96 438.822,239.829 438.614,242.621 440.059,245.618 441.096,247.377 442.236,247.171 
			442.129,247.895 440.27,248.722 440.27,254.409 		"/>
	</g>
	<polygon fill="#03A9AE" stroke="#FFFFFF" points="367.9,361.882 368.219,359.709 370.435,357.231 369.46,357.951 367.052,354.255 
		362.812,352.496 357.636,351.047 352.254,348.665 347.699,346.18 344.807,344.005 342.81,343.96 339.949,343.9 338.636,342.743 
		339.845,341.005 340.935,339.278 338.811,338.42 336.435,338.625 335.918,334.806 336.641,334.595 336.532,334.158 
		334.678,333.977 328.472,333.355 323.608,332.214 324.846,329.42 327.56,328.96 326.607,321.875 320.088,327.461 317.811,328.391 
		316.157,326.422 312.849,325.699 308.398,327.563 304.258,327.563 297.527,323.318 291.655,320.735 285.444,322.907 280.06,323.21 
		277.579,326.944 274.89,330.046 270.964,331.182 268.666,331.07 268.897,331.39 268.174,335.421 265.995,345.848 259.681,358.906 
		259.79,361.339 263.925,364.853 259.481,367.438 261.651,372.713 263.403,377.466 263.926,386.359 263.615,391.628 
		261.964,397.936 268.029,398.766 274.966,400.005 281.591,400.003 284.695,397.936 291.218,400.938 294.939,401.865 
		295.06,404.462 298.041,406.726 297.523,409.209 299.276,416.023 299.38,420.677 300.93,426.985 305.569,427.505 311.366,425.643 
		316.642,427.401 317.968,429.464 321.193,427.096 323.053,419.342 326.26,418 327.912,414.587 328.328,412.209 335.975,406.729 
		338.477,405.96 336.278,405.077 341.034,402.39 345.681,399.907 348.476,395.772 350.439,393.603 352.402,391.222 351.991,388.848 
		353.644,388.642 355.402,385.542 354.987,383.163 355.921,382.751 357.366,380.477 358.917,379.962 359.332,375.311 
		361.603,372.728 363.153,370.66 365.428,370.038 367.395,369.005 368.944,365.587 368.685,365.835 	"/>
	<g>
		<polygon fill="#03A9AE" stroke="#FFFFFF" points="267.409,339.082 267.409,339.082 268.174,335.421 		"/>
		<g>
			<polygon fill="#03A9AE" stroke="#FFFFFF" points="335.918,334.806 336.111,336.237 336.111,336.237 			"/>
			<g>
				<polygon fill="#03A9AE" stroke="#FFFFFF" points="397.853,252.841 398.519,253.714 398.519,253.713 				"/>
				<polygon fill="#03A9AE" stroke="#FFFFFF" points="374.177,252.428 372.81,250.481 373.556,247.462 373.349,241.464 
					373.145,236.816 373.455,234.541 372.317,232.268 374.213,221.314 377.212,213.461 379.81,205.629 379.92,205.314 
					282.108,198.288 276.109,195.187 269.701,188.879 268.045,187.846 266.91,179.574 259.257,166.031 256.207,173.996 
					257.444,178.444 255.872,188.969 207.534,189.379 206.574,194.503 207.851,211.296 206.574,222.813 224.802,224.118 
					230.802,225.773 231.425,231.354 228.31,234.96 232.976,242.318 232.455,247.383 228.217,255.345 223.355,263.409 
					220.81,265.96 220.749,266.214 221.874,266.48 224.973,270.409 228.573,280.056 227.658,288.188 228.798,306.479 
					257.013,306.479 256.806,309.789 254.844,315.575 259.285,320.642 263.628,325.083 267.556,329.53 268.666,331.07 
					270.964,331.182 274.89,330.046 277.579,326.944 280.06,323.21 285.444,322.907 291.655,320.735 297.527,323.318 
					304.258,327.563 308.398,327.563 312.849,325.699 316.157,326.422 317.811,328.391 320.088,327.461 326.607,321.875 
					327.56,328.96 324.846,329.42 323.608,332.214 328.472,333.355 334.678,333.977 336.531,334.158 335.744,331.021 
					334.189,326.876 335.329,321.494 337.06,316.085 341.75,312.387 343.509,310.212 342.682,307.315 343.685,306.335 
					346.512,304.105 348.81,300.96 352.435,300.21 355.662,298.47 357.368,294.494 358.501,289.457 359.56,287.96 362.328,286.664 
					363.982,287.182 366.685,284.71 368.425,280.052 368.629,278.087 369.769,273.331 370.435,272.21 370.595,266.509 
					373.493,261.547 373.685,257.085 375.872,253.687 375.793,253.213 				"/>
			</g>
		</g>
	</g>
	<polygon fill="#03A9AE" stroke="#FFFFFF" points="588.058,213.151 583.404,210.462 579.579,206.846 573.477,202.822 
		569.137,201.778 565.517,200.792 565.724,201.885 566.344,206.743 568.929,208.19 570.376,213.361 568.721,214.393 
		569.137,219.044 567.274,219.768 565.104,219.354 563.035,219.666 562.614,221.725 563.976,225.127 566.65,229.998 570.479,232.48 
		575.241,231.654 574.66,232.787 577.615,228.346 581.646,222.351 586.202,217.46 590.743,215.94 	"/>
	<polygon fill="#03A9AE" stroke="#FFFFFF" points="607.143,189.587 604.938,189.803 601.477,189.587 599.556,190.214 
		595.104,192.282 592.311,195.283 587.447,197.548 585.277,196.721 582.795,197.753 580.626,197.24 575.25,193.105 572.147,192.691 
		569.81,189.587 567.184,193.931 562.558,197.072 563.394,199.097 565.255,199.409 565.517,200.792 569.137,201.778 
		573.477,202.822 579.579,206.846 583.404,210.462 588.058,213.151 590.743,215.94 592.617,212.438 596.753,208.199 
		601.406,202.408 608.13,193.83 610.11,190.423 	"/>
	<polygon fill="#03A9AE" stroke="#FFFFFF" points="614.242,169.543 610.107,167.368 607.726,167.162 603.977,168.131 
		603.477,170.797 596.969,173.678 593.764,173.468 590.767,173.782 589.311,174.504 587.811,174.964 586.318,178.846 
		581.875,181.431 579.702,180.087 579.293,178.332 578.672,176.158 576.396,176.47 576.678,174.504 579.29,173.262 578.77,171.507 
		579.184,169.955 581.662,168.506 580.836,166.958 576.802,165.615 575.667,166.647 574.428,166.647 572.256,169.023 
		569.257,171.194 566.566,173.159 564.187,173.366 562.43,174.089 560.881,171.713 557.052,172.437 555.394,170.888 
		553.118,172.233 551.047,174.197 549.311,173.964 548.876,172.333 546.497,172.131 546.497,170.887 545.465,168.818 
		541.024,165.92 537.305,166.335 536.167,167.265 532.136,167.885 530.998,166.955 527.527,167.294 524.477,168.464 
		526.081,170.602 525.667,173.082 527.423,173.907 526.701,178.456 524.633,180.523 519.477,183.797 514.348,188.896 
		518.07,187.833 521.897,189.901 523.033,192.381 525.518,194.863 524.171,199.41 527.48,199.514 531.203,196.723 531.719,193.727 
		533.374,194.138 534.925,193.415 537.817,191.348 537.405,189.9 540.401,189.281 540.612,187.108 544.123,185.662 546.713,185.555 
		547.436,187.729 548.469,187.729 551.468,189.177 553.122,189.074 555.31,189.587 556.533,192.276 557.671,189.796 
		558.601,189.796 558.497,191.865 559.635,192.896 561.496,192.277 561.389,194.241 562.558,197.072 567.184,193.931 
		569.81,189.587 572.147,192.691 575.25,193.105 580.626,197.24 582.795,197.753 585.277,196.721 587.447,197.548 592.311,195.283 
		595.104,192.282 599.556,190.214 601.477,189.587 604.938,189.803 607.143,189.587 610.11,190.423 609.587,191.323 610.11,190.797 
		611.345,186.285 613.312,179.979 614.449,174.297 	"/>
	<polygon fill="#03A9AE" stroke="#FFFFFF" points="613.288,158.284 612.455,152.797 600.973,152.8 592.692,151.661 590.73,150.007 
		588.765,152.178 589.49,153.829 588.562,155.587 588.666,158.377 586.287,159.927 583.499,157.034 580.605,157.137 578.02,158.275 
		576.781,156.207 574.298,155.895 574.921,153.725 576.678,151.21 578.847,147.625 578.02,145.868 570.163,148.449 566.961,151.655 
		564.058,153.101 561.476,152.792 557.764,150.93 556.524,154.448 556.422,158.068 553.06,159.46 555.068,160.65 555.892,163.651 
		556.927,164.167 557.234,167.58 555.154,171.03 555.394,170.888 557.052,172.437 560.881,171.713 562.43,174.089 564.187,173.366 
		566.566,173.159 569.257,171.194 572.256,169.023 574.428,166.647 575.667,166.647 576.802,165.615 580.836,166.958 
		581.662,168.506 579.184,169.955 578.77,171.507 579.29,173.262 576.678,174.504 576.396,176.47 578.672,176.158 579.293,178.332 
		579.702,180.087 581.875,181.431 586.318,178.846 587.811,174.964 589.311,174.504 590.767,173.782 593.764,173.468 
		596.969,173.678 603.477,170.797 603.977,168.131 607.726,167.162 610.107,167.368 614.242,169.543 614.248,169.687 
		614.947,168.313 615.051,164.384 	"/>
	<polygon fill="#03A9AE" stroke="#FFFFFF" points="557.764,150.93 561.476,152.792 564.058,153.101 566.961,151.655 
		570.163,148.449 578.02,145.868 578.847,147.625 576.678,151.21 574.921,153.725 574.298,155.895 576.781,156.207 578.02,158.275 
		580.605,157.137 583.499,157.034 586.287,159.927 588.666,158.377 588.562,155.587 589.49,153.829 588.765,152.178 590.73,150.007 
		592.692,151.661 600.973,152.8 612.455,152.797 610.591,148.146 608.936,141.528 606.245,133.984 602.215,131.5 594.876,131.089 
		586.607,130.983 579.89,128.504 576.678,127.058 571.62,129.123 569.552,133.154 566.138,139.045 565.213,141.942 559.729,146.596 
		557.558,149.697 557.558,151.515 	"/>
	<g>
		<polygon fill="#03A9AE" stroke="#FFFFFF" points="516.052,109.084 516.31,115.21 518.641,117.667 517.553,122.302 516.56,128.71 
			521.635,132.345 522.361,143.515 523.705,151.578 524.843,155.715 528.457,156.854 529.391,159.332 527.4,167.343 
			527.527,167.294 530.998,166.955 532.136,167.885 536.167,167.265 537.305,166.335 541.024,165.92 545.465,168.818 
			546.497,170.887 546.497,172.131 548.876,172.333 549.311,173.964 551.047,174.197 553.118,172.233 555.154,171.03 
			557.234,167.58 556.927,164.167 555.892,163.651 555.068,160.65 553.06,159.46 556.422,158.068 556.524,154.448 557.558,151.515 
			557.558,149.697 559.729,146.596 565.213,141.942 566.138,139.045 569.552,133.154 571.62,129.123 576.678,127.058 
			577.518,126.547 573.382,124.064 570.28,121.377 562.836,113.935 557.25,109.178 550.531,104.737 543.194,99.875 533.895,95.539 
			522.524,96.058 515.635,97.091 516.359,99.883 514.605,103.293 		"/>
	</g>
	<g>
		<polygon fill="#03A9AE" stroke="#FFFFFF" points="526.01,199.467 526.01,199.467 524.171,199.41 		"/>
		<polygon fill="#03A9AE" stroke="#FFFFFF" points="526.081,170.602 524.477,168.464 527.4,167.343 529.391,159.332 
			528.457,156.854 524.843,155.715 523.705,151.578 522.361,143.515 521.635,132.345 516.56,128.71 517.553,122.302 
			518.641,117.667 516.31,115.21 516.052,109.084 514.605,103.293 516.359,99.883 515.635,97.091 517.011,96.885 512.123,96.679 
			508.092,94.403 507.99,96.987 505.819,101.64 502.31,103.21 501.059,105.329 498.058,105.33 495.028,109.298 493.201,113.912 
			490.31,119.21 492.269,122.908 490.31,125.71 492.31,131.46 493.095,134.07 490.302,137.584 488.754,141.308 489.684,147.097 
			492.472,149.579 491.028,156.399 487.62,157.435 483.274,158.677 478.417,156.606 474.485,157.329 471.9,160.019 467.971,163.638 
			461.768,167.67 452.31,170.96 451.421,176.251 447.383,186.693 444.899,190.417 444.899,196.21 446.56,199.514 447.803,199.713 
			447.077,202.713 445.334,207.71 444.394,211.025 448.431,211.912 448.534,210.876 450.655,209.887 453.241,214.024 
			453.035,216.402 454.18,219.286 458.099,221.469 460.976,221.794 463.374,220.539 465.976,217.627 469.578,216.922 
			470.612,217.748 473.643,217.96 474.543,214.75 476.61,213.714 478.469,209.994 479.81,207.921 480.02,205.96 477.228,201.306 
			478.976,198.96 482.807,196.653 485.597,198.721 490.395,198.782 492.733,201.306 496.457,200.27 501.728,197.063 
			507.517,196.237 511.968,191.793 514.348,188.896 519.477,183.797 524.633,180.523 526.701,178.456 527.423,173.907 
			525.667,173.082 		"/>
	</g>
	<polygon fill="#03A9AE" stroke="#FFFFFF" points="444.394,211.025 445.334,207.71 447.077,202.713 447.803,199.713 446.56,199.514 
		444.899,196.21 444.899,190.417 447.383,186.693 451.421,176.251 452.31,170.96 461.768,167.67 467.971,163.638 471.9,160.019 
		474.485,157.329 478.417,156.606 483.274,158.677 487.62,157.435 491.028,156.399 492.472,149.579 489.684,147.097 
		488.754,141.308 490.302,137.584 493.095,134.07 492.31,131.46 490.31,125.71 492.269,122.908 490.31,119.21 493.201,113.912 
		495.028,109.298 498.058,105.33 501.059,105.329 502.31,103.21 505.819,101.64 507.99,96.987 508.092,94.403 502.06,93.482 
		497.721,93.276 491.004,90.174 486.892,88.271 482.736,88.415 481.597,86.452 476.638,89.451 475.296,91.206 473.642,89.139 
		471.573,90.071 469.403,89.76 468.677,89.037 468.264,85.624 465.365,80.348 462.058,79.938 461.977,77.661 460.311,76.127 
		457.528,75.082 454.111,77.661 451.833,73.321 448.832,71.771 444.394,70.294 442.861,70.012 442.758,72.7 442.244,76.214 
		440.644,77.294 439.311,78.127 439.657,78.902 441.105,79.419 440.382,83.555 438.001,86.448 437.898,90.17 435.083,92.757 
		434.773,95.958 433.322,100.194 429.595,106.397 425.978,114.46 422.311,117.46 419.971,122.732 417.311,122.294 410.897,128.51 
		405.06,133.21 406.165,132.624 409.264,132.83 411.435,133.762 413.916,133.348 415.154,133.451 416.709,135.724 420.74,136.965 
		421.685,138.21 422.56,140.835 422.806,144.307 422.935,148.835 423.117,150.716 422.29,154.952 421.568,159.086 420.326,161.979 
		418.778,163.221 417.952,163.636 419.086,165.083 421.027,165.186 422.064,166.324 420.305,167.977 421.435,168.585 
		423.923,171.181 425.788,173.665 428.997,177.592 430.685,175.314 433.76,175.314 435.723,175.314 437.173,176.659 
		437.173,179.866 436.653,181.313 434.483,181.933 432.621,182.76 431.276,185.448 430.653,187.829 430.241,190.205 
		427.685,193.308 428.48,193.308 431.587,194.859 432.31,198.683 433.963,198.683 436.06,201.21 434.31,203.71 436.857,205.195 
		437.372,206.54 438.924,210.775 441.298,210.775 444.191,210.98 445.656,211.302 	"/>
	<g>
		<polygon fill="#03A9AE" stroke="#FFFFFF" points="421.839,138.67 421.839,138.669 421.685,138.21 		"/>
		<polygon fill="#03A9AE" stroke="#FFFFFF" points="439.858,68.254 430.337,64.949 425.781,62.261 417.734,61.125 414.113,61.645 
			406.88,59.06 406.877,54.819 400.469,54.819 395.013,52.011 391.887,50.17 388.682,45.829 381.31,45.829 382.305,41.069 
			380.651,40.141 376.516,42.829 372.317,48.21 367.01,52.545 361.81,55.8 357.06,63.71 357.06,67.627 353.468,69.391 
			347.448,70.012 346.026,64.45 345.404,60.936 342.51,58.456 339.51,53.598 335.583,44.913 335.583,40.96 331.655,36.332 
			331.862,33.022 327.413,28.991 321,26.82 311.584,22.475 309.379,17.601 310.549,14.619 305.69,10.896 298.81,12.21 
			292.513,11.93 290.827,14.21 293.56,18.71 291.76,22.129 282.48,21.131 278.81,21.46 273.547,20.815 269.031,23.847 263.06,25.21 
			259.402,26.71 254.631,28.256 252.884,31.36 248.848,32.602 248.632,53.372 250.186,57.609 253.906,64.329 256.342,68.464 
			259.445,70.423 261.512,68.561 262.81,69.46 262.442,72.902 268.647,76.418 277.23,81.178 279.195,82.832 282.31,82.832 
			283.81,85.96 290.054,83.243 285.922,87.896 257.808,152.698 254.707,155.901 256.466,160.655 259.016,166.662 259.257,166.031 
			266.91,179.574 268.045,187.846 269.701,188.879 276.109,195.187 282.108,198.288 379.92,205.314 379.81,205.629 381.435,200.96 
			383.313,196.822 386.514,192.443 389.31,189.21 392.928,184.419 395.774,179.203 396.447,173.458 394.81,172.835 393.06,170.835 
			392.685,168.46 395.728,165.292 395.934,163.122 395.728,159.917 398.414,157.953 400.791,157.126 403.685,155.991 
			403.376,154.585 404.185,152.96 406.169,151.231 407.614,150.923 407.06,148.21 409.475,147.204 409.061,145.445 410.303,144.721 
			409.681,142.86 409.786,141.101 411.025,140.999 412.062,139.139 409.891,138.104 408.44,135.933 406.56,136.96 403.376,135.106 
			405.06,133.21 410.897,128.51 417.311,122.294 419.971,122.732 422.311,117.46 425.978,114.46 429.595,106.397 433.322,100.194 
			434.773,95.958 435.083,92.757 437.898,90.17 438.001,86.448 440.382,83.555 441.105,79.419 439.657,78.902 439.311,78.127 
			440.644,77.294 442.244,76.214 442.758,72.7 442.85,70.282 		"/>
	</g>
	<polygon fill="#03A9AE" stroke="#FFFFFF" points="310.549,14.619 309.379,17.601 311.584,22.475 321,26.82 327.413,28.991 
		331.862,33.022 331.655,36.332 335.583,40.96 335.583,44.913 339.51,53.598 342.51,58.456 345.404,60.936 346.026,64.45 
		347.448,70.012 353.468,69.391 357.06,67.627 357.06,63.71 361.81,55.8 367.01,52.545 372.317,48.21 376.516,42.829 
		380.651,40.141 381.146,40.418 383.763,36.634 385.311,30.325 383.138,23.401 380.038,22.883 376.317,16.578 371.81,16.578 
		368.06,6.96 367.114,-6.576 365.874,-10.607 359.948,-18.146 358.31,-12.04 355.042,-8.551 348.906,1.621 344.775,10.274 
		338.839,15.956 333.56,16.21 332.417,14.622 327.814,14.954 325.467,12.282 324.56,14.21 318.56,16.71 310.803,12.866 
		309.284,13.649 	"/>
	<g>
		<polygon fill="#03A9AE" stroke="#FFFFFF" points="266.91,179.574 267.88,186.643 267.88,186.643 		"/>
		<polygon fill="#03A9AE" stroke="#FFFFFF" points="285.922,87.896 290.054,83.243 283.81,85.96 282.31,82.832 279.195,82.832 
			277.23,81.178 268.647,76.418 262.442,72.902 262.81,69.46 261.512,68.561 259.445,70.423 256.342,68.464 253.906,64.329 
			250.186,57.609 248.632,53.372 248.691,47.688 230.716,47.611 227.926,52.987 225.44,59.812 226.787,62.086 221.872,63.96 
			219.654,63.638 217.585,60.298 211.638,60.194 208.02,63.09 207.4,68.567 207.089,72.704 208.741,75.909 204.51,72.907 
			202.339,72.393 199.237,67.84 193.235,62.362 196.235,60.294 197.27,55.848 194.479,48.507 193.036,42.007 193.758,35.286 
			189.106,26.499 189.419,24.845 190.245,21.742 186.936,19.366 183.64,17.259 183.213,16.986 179.803,16.892 170.31,21.46 
			169.504,21.14 167.817,26.504 165.335,29.812 165.129,27.334 159.546,31.571 158.201,30.535 155.722,32.812 152.929,33.535 
			152.722,36.324 150.036,37.151 148.795,40.047 146.522,40.047 147.349,36.638 145.385,35.291 142.907,36.222 139.185,38.598 
			135.693,39.208 127.508,32.358 123.476,32.916 123.683,27.645 122.754,22.583 121.098,22.065 121.572,18.429 121.563,18.421 
			118.004,16.583 116.66,17.307 114.901,19.476 112.938,19.271 110.563,22.471 107.047,19.994 104.87,22.214 107.255,23.819 
			88.548,24.024 85.964,23.091 81.523,24.229 80.678,34.547 85.448,34.151 88.86,34.151 91.545,36.736 91.442,40.973 89.168,41.18 
			87.306,39.733 83.897,40.974 78.523,42.419 78.42,54.205 85.137,59.784 85.137,63.194 87.306,66.398 87.927,70.22 87.825,73.117 
			79.04,119.312 76.455,119.415 75.318,119.003 73.665,116.624 70.876,116.316 69.345,116.831 63.433,120.245 56.199,120.968 
			44.829,126.03 36.356,131.404 33.151,141.117 29.948,146.491 30.362,154.141 22.608,158.998 22.193,163.148 26.31,164.96 
			38.72,170.917 74.389,178.21 99.965,192.645 126.81,204.71 132.472,202.094 133.06,198.96 140.018,198.788 143.536,201.371 
			145.294,199.508 148.707,199.821 148.5,197.445 151.603,196.516 153.56,199.205 156.359,196.205 156.977,192.894 164.81,192.46 
			167.836,191.863 168.66,188.038 170.831,185.866 171.348,182.866 174.14,181.523 175.56,176.253 188.299,176.665 190.884,179.872 
			193.057,182.764 196.888,185.762 199.885,189.278 202.47,190.519 205.158,187.621 207.475,189.695 207.534,189.379 
			255.872,188.969 257.444,178.444 256.207,173.996 259.016,166.662 256.466,160.655 254.707,155.901 257.808,152.698 		"/>
	</g>
	<g>
		<g>
			<polygon fill="#03A9AE" stroke="#FFFFFF" points="249.916,32.273 249.412,31.449 248.225,31.873 245.538,30.323 240.368,26.81 
				237.993,23.917 236.543,22.677 235.408,18.333 234.892,15.236 232.723,12.031 231.584,7.174 233.343,-0.268 233.549,-5.021 
				237.994,-9.881 238.615,-11.119 237.166,-13.395 235.616,-14.529 236.237,-17.318 233.032,-18.973 228.899,-20.11 
				230.964,-23.208 231.481,-26.931 229.829,-30.341 227.969,-31.479 225.281,-30.546 222.076,-30.753 221.457,-28.998 
				221.872,-25.792 219.39,-23.417 217.118,-21.35 215.462,-19.797 212.052,-19.9 211.225,-18.557 208.743,-18.043 206.882,-15.664 
				202.131,-14.012 197.996,-13.288 193.964,-14.422 192.726,-12.565 189.727,-13.08 189.003,-10.601 189.727,-6.672 
				188.696,-7.396 185.902,-5.535 182.803,-8.637 182.595,-10.807 178.978,-10.601 178.358,-9.565 177.326,-9.462 175.465,-11.838 
				175.362,-10.082 171.019,-8.732 168.748,-12.975 162.028,-13.18 158.618,-16.077 157.222,-14.401 162.854,-8.636 167.711,-4.708 
				166.576,-2.33 166.884,2.323 169.469,5.112 170.709,9.04 169.572,11.934 175.258,13.688 178.976,12.861 179.699,13.379 
				179.733,14.514 179.899,16.895 183.213,16.986 183.64,17.259 186.936,19.366 190.245,21.742 189.419,24.845 189.106,26.499 
				193.758,35.286 193.036,42.007 194.479,48.507 197.27,55.848 196.235,60.294 193.235,62.362 199.237,67.84 202.339,72.393 
				204.51,72.907 208.741,75.909 207.089,72.704 207.4,68.567 208.02,63.09 211.638,60.194 217.585,60.298 219.654,63.638 
				221.872,63.96 226.787,62.086 225.44,59.812 227.926,52.987 230.716,47.611 248.691,47.688 248.848,32.602 			"/>
		</g>
	</g>
	<g>
		<polygon fill="#03A9AE" stroke="#FFFFFF" points="223.355,263.409 228.217,255.345 232.455,247.383 232.976,242.318 
			228.31,234.96 231.425,231.354 230.802,225.773 224.802,224.118 206.574,222.813 207.851,211.296 206.574,194.503 
			207.475,189.695 205.158,187.621 202.47,190.519 199.885,189.278 196.888,185.762 193.057,182.764 190.884,179.872 
			188.299,176.665 175.56,176.253 174.14,181.523 171.348,182.866 170.831,185.866 168.66,188.038 167.836,191.863 164.81,192.46 
			156.977,192.894 156.359,196.205 153.56,199.205 151.603,196.516 148.5,197.445 148.707,199.821 145.294,199.508 143.536,201.371 
			140.018,198.788 133.06,198.96 132.472,202.094 126.81,204.71 131.051,206.8 138.157,204.783 147.15,204.682 147.15,201.528 
			150.973,205.712 150.662,209.742 150.353,212.844 149.76,215.703 150.457,221.008 151.489,223.593 150.868,228.967 
			154.385,236.82 161.103,242.917 168.471,245.71 174.536,246.435 181.98,249.948 184.356,249.844 187.147,252.942 190.352,255.115 
			193.658,256.147 198.206,257.075 202.547,261.936 205.545,263.07 209.988,263.484 214.741,262.967 219.704,265.967 
			220.048,266.048 221.059,265.711 		"/>
	</g>
	<polygon fill="#03A9AE" stroke="#FFFFFF" points="126.81,204.71 99.965,192.645 74.389,178.21 38.72,170.917 26.31,164.96 
		22.242,163.17 22.187,163.204 21.884,166.233 18.474,169.953 22.399,173.301 22.401,176.258 27.362,183.803 32.115,189.588 
		34.391,192.276 30.464,198.686 38.213,199.512 44.31,201.892 45.864,206.852 58.161,208.195 65.501,203.647 70.875,200.442 
		70.356,204.683 69.736,223.801 75.731,224.627 81.311,222.769 84.722,223.18 84.724,223.179 95.164,223.696 100.33,225.764 
		106.118,222.974 108.6,218.737 114.488,217.6 120.482,213.154 130.508,206.954 131.051,206.8 	"/>
	<path id="paraguai" fill="#03A9AE" stroke="#FFFFFF" d="M317.723,450.632l-2.105-2.125v-3.597l1.857-5.829l1.131-5.454
		l-0.926-3.952l0.924-0.679l-0.637,0.468l-1.325-2.063l-5.276-1.758l-5.797,1.862l-4.639-0.521l-1.55-6.308l-0.104-4.654
		l-1.753-6.813l0.518-2.483l-2.98-2.264l-0.121-2.598l-3.721-0.927l-6.523-3.002l-3.104,2.067l-6.625,0.002l-6.937-1.239
		l-6.065-0.83l1.652-6.308l0.31-5.27l-0.523-8.893l-1.751-4.753l-2.17-5.275l4.443-2.585l-4.134-3.514l-0.049-1.098l-1.396-0.519
		h-2.272l-3.9-5.499h-1.954l-3.5-1.956h-11.889l-1.955,1.956h-3.908l-1.875,1.874l-6.738,1.126l-2.953,0.828h-6.402l-0.851,5.923
		l-2.356,1.813l-3.075,4.947l-2.107,4.061L202.007,379v9.916l-1.956,7.736v3.823l-0.003-0.004c0,0.649,0,1.301,0,1.955
		c1.955,1.955,3.909,3.908,5.783,5.782c0,0.649,0,1.304,0,1.957c2.609,2.604,5.216,5.209,7.737,7.735c0.653,0,1.306,0,1.957,0
		c0.65,0.649,1.304,1.301,1.872,1.87c0.653,0,1.302,0,1.957,0c1.955,1.954,3.907,3.911,5.783,5.783c1.954,0,3.908,0,5.782,0
		c0.65,0.653,1.302,1.304,1.957,1.955c1.955,0,3.908,0,5.783,0c1.301,1.306,2.604,2.607,3.825,3.827c0.652,0,1.304,0,1.956,0
		c1.304,1.305,2.607,2.607,3.827,3.909c0.652,0,1.305,0,1.956,0c1.304,1.305,2.607,2.607,3.828,3.827c1.304,0,2.607,0,3.91,0
		c0.651,0.654,1.302,1.303,1.953,1.957c1.306,0,2.607,0,3.829,0c0.652,0.65,1.302,1.3,1.954,1.953c0.652,0,1.305,0,1.874,0
		c1.956,1.958,3.909,3.908,5.784,5.787c0,0.651,0,1.298,0,1.87c-0.651,0.647-1.305,1.299-1.873,1.957c0,0.653,0,1.298,0,1.953
		c-0.653,0.654-1.302,1.304-1.956,1.877c0,0.648,0,1.297,0,1.953c-1.301,1.302-2.608,2.603-3.83,3.909c0,1.954,0,3.907,0,5.781
		c-0.65,0.65-1.3,1.302-1.954,1.871c0,0.653,0,1.301,0,1.953c-1.3,1.308-2.607,2.606-3.829,3.829c0,0.654,0,1.306,0,1.955
		c3.909,0,7.738,0,11.566,0c0.652,0.652,1.299,1.306,1.872,1.955c8.388,0,16.776,0,25.081,0c0.653-0.649,1.306-1.303,1.958-1.955
		c0.649,0,1.302,0,1.954,0c0-0.649,0-1.301,0-1.955c0.653-0.647,1.305-1.302,1.954-1.87c0.653,0,1.306,0,1.875,0
		c1.953-1.959,3.908-3.912,5.781-5.783c0.653,0,1.304,0,1.957,0c0-0.651,0-1.305,0-1.954c0.652-0.651,1.3-1.305,1.955-1.953
		c0-3.911,0-7.736,0-11.566l0.996,0.433l0.24-0.106l-0.123-0.464L317.723,450.632z"/>
</g>
</svg>
