<?xml version="1.0" encoding="utf-8"?>
<!-- Generator: Adobe Illustrator 16.0.0, SVG Export Plug-In . SVG Version: 6.00 Build 0)  -->
<!DOCTYPE svg PUBLIC "-//W3C//DTD SVG 1.1//EN" "http://www.w3.org/Graphics/SVG/1.1/DTD/svg11.dtd">
<svg version="1.1" id="latam" xmlns:svg="http://www.w3.org/2000/svg"
	 xmlns="http://www.w3.org/2000/svg" xmlns:xlink="http://www.w3.org/1999/xlink" x="0px" y="0px" width="623.622px"
	 height="623.622px" viewBox="-0.001 -36.851 623.622 623.622" enable-background="new -0.001 -36.851 623.622 623.622"
	 xml:space="preserve">
<polygon fill="#84D4F7" points="318.606,-36.851 623.621,-36.851 623.621,586.771 317.729,586.763 "/>
<polygon fill="#84D4F7" points="-0.001,286.551 97.76,338.746 97.76,586.763 -0.001,586.771 "/>
<path id="Peru" fill="#D3D3D3" stroke="#FFFFFF" d="M84.853,225.62l-0.131-2.44l-3.411-0.411l-5.58,1.858l-5.995-0.826l0.62-19.118
	l0.519-4.241l-5.374,3.205l-7.34,4.548l-12.298-1.344l-1.553-4.959l-6.097-2.38l-7.75-0.826l3.928-6.41l-2.276-2.688l-4.754-5.785
	l-4.96-7.545l-0.002-2.958l-3.925-3.348l3.41-3.72l0.724-7.235l7.753-4.857l-0.414-7.65l3.204-5.374l3.205-9.713l8.473-5.374
	l11.37-5.062l7.234-0.723l5.912-3.414c0-1.871,0-3.825,0-5.78c0.649-0.652,1.389-1.305,2.127-1.955c0-0.572,0-1.224,0-1.874
	c1.479-1.305,2.954-2.607,4.433-3.909c0-2.526,0-5.049,0-7.655c-1.479,0-2.954,0-4.433,0c-0.648-0.654-1.387-1.302-2.127-1.956
	c-0.736,0-1.475,0-2.214,0c-0.742-0.652-1.479-1.302-2.218-1.954c-2.864,0-5.731,0-8.688,0c-0.735,0.652-1.475,1.302-2.218,1.954
	c-0.736-0.652-1.476-1.302-2.215-1.954c-1.389,0-2.867,0-4.346,0c-0.739,0.652-1.475,1.302-2.213,1.954c-1.39,0-2.867,0-4.345,0
	c-0.74,0.653-1.477,1.302-2.218,1.956c-5.082,0-10.165,0-15.336,0c0-1.875,0-3.829,0-5.784c-1.389-1.302-2.867-2.607-4.346-3.91
	c-0.735,0-1.475,0-2.215,0c0-0.651,0-1.301,0-1.953c-2.124-1.874-4.345-3.828-6.56-5.782c-0.738,0-1.479,0-2.218,0
	c-0.648-0.569-1.389-1.222-2.123-1.875c-1.479,0-4.393-0.344-5.872-0.344v229.373l4.325-2.209l23.667,13.111l8.154,3.173
	l11.925,5.56l12.79,6.991l2.132,4.709l8.04,3.764l3.5,2.731l5.887,1.317c1.222,0,2.525,0,3.829,0
	c1.302-1.22,2.604-2.523,3.909-3.826c0-0.654,0-1.302,0-1.958c0.568-0.649,1.22-1.3,1.871-1.953c0-3.176,0-6.352,0-9.61
	c1.303-1.223,2.607-2.524,3.91-3.825c0-0.653,0-1.304,0-1.955c1.222-1.306,2.525-2.607,3.825-3.912c0-2.522,0-5.045,0-7.651
	c-0.569,0-1.221,0-1.87,0c-1.306-1.307-2.607-2.607-3.911-3.91c0-2.526,0-5.05,0-7.656c0-3.828,0-7.736,0-11.646
	c0.652-0.57,1.304-1.221,1.957-1.874c0-0.649,0-1.303,0-1.953c0.648-0.65,1.302-1.303,1.956-1.958c0-2.523,0-5.128,0-7.735
	c-0.652-0.568-1.306-1.222-1.956-1.87c0.648-0.653,1.302-1.305,1.956-1.958c0-4.479,0-8.958,0-13.516
	c0.569-0.572,1.221-1.222,1.87-1.874c0-1.302,0-2.607,0-3.909c-0.57-0.652-1.221-1.305-1.87-1.955c0-0.572,0-1.222,0-1.874
	c-1.306-1.302-2.607-2.606-3.912-3.908c0-0.569,0-1.222,0-1.874c-0.65-0.653-1.302-1.302-1.955-1.955c0-0.652,0-1.302,0-1.954
	c-0.569-0.569-1.222-1.222-1.871-1.873c0-0.65,0-1.302,0-1.956c-0.653-0.65-1.305-1.302-1.955-1.955L84.853,225.62z"/>
<path id="Bolívia" fill="#D3D3D3" stroke="#FFFFFF" d="M95.24,338.098l-5.214-1.302c0-3.176,0-6.352,0-9.609
	c1.302-1.224,2.607-2.525,3.909-3.825c0-0.655,0-1.307,0-1.956c1.222-1.305,2.526-2.606,3.825-3.912c0-2.522,0-5.044,0-7.651
	c-0.57,0-1.222,0-1.869,0c-1.306-1.305-2.607-2.606-3.912-3.909c0-2.527,0-7.657,0-7.657s0-7.736,0-11.646
	c0.654-0.569,1.306-1.22,1.957-1.874c0-0.648,0-1.303,0-1.953c0.65-0.651,1.304-1.304,1.957-1.956c0-2.523,0-5.13,0-7.738
	c-0.653-0.568-1.307-1.222-1.957-1.87c0.65-0.653,1.304-1.305,1.957-1.958c0-4.477,0-8.957,0-13.516
	c0.569-0.571,1.221-1.221,1.868-1.874c0-1.3,0-2.607,0-3.909c-0.569-0.653-1.221-1.305-1.868-1.955c0-0.572,0-1.221,0-1.874
	c-1.306-1.302-2.607-2.606-3.912-3.908c0-0.568,0-1.222,0-1.874c-0.651-0.652-1.304-1.302-1.955-1.955c0-0.652,0-1.302,0-1.954
	c-0.569-0.569-1.222-1.222-1.871-1.873c0-0.65,0-1.303,0-1.956c-0.654-0.65-1.306-1.302-1.955-1.955
	c0-0.569-1.348-5.062-1.348-5.715l-0.131-1.786l10.439,0.517l5.166,2.068l5.789-2.79l2.481-4.237l5.888-1.137l5.994-4.445
	l10.026-6.2l7.65-2.171l8.992-0.102v-3.153l3.824,4.184l-0.311,4.03l-0.309,3.102l-0.594,2.859l0.698,5.306l1.031,2.584l-0.62,5.375
	l3.517,7.853l6.718,6.097l7.368,2.793l6.065,0.724l7.444,3.513l2.376-0.104l2.791,3.098l3.205,2.173l3.307,1.032l4.548,0.928
	l4.34,4.861l2.999,1.134l4.442,0.415l4.754-0.518l4.962,3l2.17,0.514l3.099,3.929l3.6,9.647l-0.915,8.132l1.14,18.291h28.215
	l-0.207,3.31l-1.962,5.786l4.441,5.067l4.342,4.44l3.928,4.447l1.341,1.86l-0.723,4.031l-2.178,10.427l-6.71,13.875h-3.213
	l-3.9-5.499h-1.954l-3.5-1.956h-11.889l-1.955,1.956h-3.908l-1.875,1.874l-6.738,1.126l-2.953,0.828h-6.402l-0.851,5.923
	l-2.356,1.813l-3.075,4.947l-2.107,4.061L202.007,379v9.916l-1.956,7.736v3.823l-3.825-3.828h-17.428v3.828l-1.871,1.955v1.954
	l-3.911,1.876l-2.844-1.183l-6.768-6.475l-5.071,1.161l-0.711,0.711h-1.955l-1.955-1.872l-8.622,0.96l-2.945,2.867h-3.825v3.83
	l-3.908,3.906l-0.248,3.834h-1.627c-3.176,0-6.435,0-9.691,0c0-0.652,0-1.304,0-1.959c-0.572-0.569-1.222-1.222-1.873-1.867
	c0-1.876,0-3.831,0-5.785c-0.652-0.652-1.301-1.301-1.956-1.956c0-0.653,0-1.304,0-1.955c-0.653-0.572-1.3-1.222-1.954-1.873
	c0-1.301,0-2.606,0-3.908c-0.653-0.569-1.302-1.221-1.956-1.873c0-0.647,0-1.301,0-1.954c-1.873-1.874-3.829-3.83-5.784-5.783
	c0-1.872,0-3.83,0-5.784c-0.568-0.647-1.22-1.302-1.874-1.954c0-5.785,0-11.563,0-17.346c-1.299-1.305-2.604-2.607-3.906-3.908
	c-0.57,0-1.222,0-1.874,0c0-1.222,0-2.527,0-3.83c-0.65-0.65-1.301-1.304-1.955-1.953c0-2.528,0-5.13,0-7.737
	c-0.648-0.568-1.302-1.223-1.957-1.871c0-0.654,0-1.302,0-1.958c-0.569,0-1.22,0-1.869,0L95.24,338.098z"/>
<path id="Colombia" fill="#D3D3D3" stroke="#FFFFFF" d="M69.345,116.831l1.531-0.515l2.79,0.308l1.652,2.379l1.137,0.412
	l2.585-0.103l8.785-46.195l0.102-2.896l-0.621-3.822l-2.169-3.205v-3.41l-6.718-5.579l0.103-11.785l5.374-1.445l3.41-1.241
	l1.861,1.446l2.274-0.207l0.103-4.236l-2.685-2.585h-3.413l-4.769,0.396l0.844-10.318l4.441-1.138l2.584,0.933l18.707-0.205
	l-2.384-1.605l2.176-2.22l3.516,2.478l2.375-3.2l1.963,0.205l1.759-2.169l1.344-0.724l3.571,1.843
	c-1.304-1.222-2.607-2.523-3.91-3.829c0-0.652,0-1.302,0-1.955c-0.571-0.652-1.222-1.302-1.872-1.954c0-0.568,0-1.221,0-1.873
	c1.222-1.302,2.524-2.604,3.829-3.909c0-1.875,0-3.829,0-5.783c-1.224-1.222-2.527-2.523-3.829-3.825c0-0.653,0-1.304,0-1.958
	c-0.652-0.65-1.305-1.302-1.953-1.954c0-1.871,0-3.825,0-5.78c-0.652-0.572-1.306-1.225-1.956-1.874c0-0.653,0-1.306,0-1.955
	c0.648-0.653,1.302-1.305,1.956-1.955c0-3.176,0-6.354,0-9.61c0.648-0.653,1.613-2.241,2.266-2.893l0.34-4.172H-0.001V76.222
	c0,0,4.39,0.137,5.868,0.137c0.735,0.653,1.477,1.305,2.124,1.875c0.74,0,1.48,0,2.218,0c2.215,1.954,4.437,3.909,6.56,5.782
	c0,0.652,0,1.302,0,1.954c0.74,0,1.479,0,2.215,0c1.479,1.302,2.957,2.607,4.346,3.909c0,1.956,0,3.91,0,5.784
	c5.172,0,10.254,0,15.336,0c0.742-0.654,1.479-1.302,2.218-1.956c1.479,0,2.956,0,4.344,0c0.74-0.651,1.476-1.302,2.215-1.953
	c1.479,0,2.957,0,4.346,0c0.739,0.651,1.479,1.302,2.215,1.953c0.743-0.651,1.483-1.302,2.218-1.953c2.957,0,5.824,0,8.688,0
	c0.74,0.651,1.476,1.302,2.218,1.953c0.74,0,1.479,0,2.215,0c0.739,0.653,1.479,1.302,2.127,1.956c1.479,0,2.954,0,4.433,0
	c0,2.606,0,5.128,0,7.655c-1.479,1.302-2.954,2.604-4.433,3.909c0,0.65,0,1.302,0,1.874c-0.738,0.65-1.479,1.302-2.127,1.955
	C69.345,113.004,69.345,114.96,69.345,116.831"/>
<path id="Venezuela" fill="#D3D3D3" stroke="#FFFFFF" d="M212.891-34.085l6.3,5.065l2.266,0.022l0.416,3.205l-2.482,2.375
	l-2.272,2.067l-1.656,1.553l-3.411-0.103l-0.826,1.343l-2.482,0.514l-1.861,2.38l-4.751,1.652l-4.135,0.724l-4.032-1.134
	l-1.238,1.857l-2.999-0.515l-0.724,2.479l0.724,3.928l-1.031-0.723l-2.794,1.861l-3.099-3.102l-0.208-2.17l-3.617,0.207l-0.62,1.036
	l-1.032,0.103l-1.861-2.375l-0.103,1.756l-4.343,1.35l-2.271-4.243l-6.72-0.206l-3.41-2.896l-1.396,1.676l5.632,5.765l4.857,3.928
	l-1.135,2.378l0.308,4.652l2.584,2.79l1.241,3.928l-1.138,2.894l5.686,1.754l3.718-0.827l0.723,0.518l0.104,3.513l-7.75,3
	l-2.482,1.032l-1.755,5.58l-2.482,3.308l-0.206-2.478l-5.583,4.237l-1.345-1.036l-2.479,2.276l-2.793,0.723l-0.207,2.79
	l-2.686,0.827l-1.241,2.896h-2.273l0.827-3.41l-1.963-1.347l-2.478,0.932l-3.722,2.376l-3.493,0.61l-8.185-6.85l-4.032,0.557
	l0.207-5.271l-0.929-5.063l-1.656-0.518l0.473-3.636c-1.303-1.221-2.607-2.523-3.912-3.828c0-0.652,0-1.302,0-1.955
	c-0.569-0.652-1.22-1.302-1.87-1.954c0-0.568,0-1.221,0-1.874c1.221-1.302,2.523-2.604,3.828-3.909c0-1.875,0-3.828,0-5.783
	c-1.224-1.222-2.527-2.523-3.828-3.825c0-0.652,0-1.304,0-1.958c-0.652-0.65-1.305-1.302-1.955-1.954c0-1.871,0-3.824,0-5.779
	c-0.651-0.572-1.304-1.225-1.954-1.874c0-0.653,0-1.305,0-1.955c0.648-0.652,1.302-1.304,1.954-1.954c0-3.176,0-6.355,0-9.611
	c0.649-0.653,1.615-2.241,2.266-2.893l0.345-4.174h94.548L212.891-34.085z"/>
<path id="Guiana" fill="#D3D3D3" stroke="#FFFFFF" d="M210.993-36.851c2.607,2.604,5.672,5.304,8.197,7.831c0.652,0,1.301,0,1.956,0
	l0.93-1.733l3.205,0.207l2.688-0.933l1.86,1.138l1.652,3.41l-0.517,3.723l-2.065,3.098l4.133,1.137l3.205,1.655l-0.621,2.79
	l1.549,1.134l1.449,2.275l-0.621,1.238l-4.445,4.86l-0.206,4.754l-1.758,7.441l1.139,4.857l2.169,3.205l0.516,3.098l1.135,4.344
	l1.45,1.24l2.375,2.893l5.169,3.513l2.687,1.549l2.894-1.032l3.513-0.206v-2.378l2.38-1.652l3.928,0.62l4.031-3.102l3.41,0.518
	l3.308-4.031l1.86,0.206l1.757-1.138l4.96,2.276l1.009-1.964c0-1.305,0-2.607,0-3.913c-1.222-1.221-2.523-2.522-3.825-3.825
	c0-0.653,0-1.305,0-1.955c-0.652-0.571-1.304-1.225-1.954-1.874c0-1.305,0-2.607,0-3.909c-0.653-0.571-1.306-1.222-1.956-1.873
	c0-0.654,0-1.302,0-1.956c-0.573-0.652-1.224-1.305-1.873-1.954c-0.653,0-1.306,0-1.956,0c-2.526-2.527-5.128-5.13-7.735-7.737
	c0-2.527,0-5.05,0-7.658c0.648-0.648,1.3-1.301,1.954-1.953c0-1.871,0-3.828,0-5.782c1.222-1.302,2.525-2.604,3.829-3.909
	c1.871,0,3.825,0,5.784,0c0-1.222,0-2.523,0-3.829c0.648-0.649,3.42-4.063,4.074-4.715H210.993z"/>
<path id="Suriname" fill="#D3D3D3" stroke="#FFFFFF" d="M281.271,19.991c0-1.305,0-2.607,0-3.913
	c-1.222-1.221-2.522-2.522-3.825-3.825c0-0.653,0-1.305,0-1.955c-0.652-0.571-1.303-1.225-1.954-1.874c0-1.305,0-2.606,0-3.909
	c-0.653-0.571-1.306-1.221-1.956-1.873c0-0.654,0-1.302,0-1.956c-0.572-0.652-1.225-1.305-1.873-1.954c-0.652,0-1.306,0-1.956,0
	c-2.526-2.526-5.129-5.13-7.736-7.737c0-2.527,0-5.05,0-7.657c0.648-0.648,1.3-1.302,1.954-1.954c0-1.871,0-3.829,0-5.782
	c1.222-1.302,2.524-2.604,3.829-3.909c1.872,0,3.825,0,5.783,0c0-1.222,0-2.523,0-3.829c0.649-0.65,3.423-4.064,4.078-4.718h47.486
	c-1.301,1.302-4.195,6.107-5.416,7.33c0,0.653,0,1.302,0,1.955c-0.654,0.652-1.302,1.302-1.956,1.954c0,0.653,0,1.305,0,1.955
	c0.653,0.652,1.301,1.306,1.956,1.874c0,2.606,0,5.21,0,7.737c0.651,0.652,1.301,1.302,1.953,1.954c0,0.653,0,1.302,0,1.875
	c1.302,1.302,2.607,2.604,3.828,3.909c0,1.954,0,3.909,0,5.782c-0.651,0.65-1.304,1.302-1.955,1.954c0,1.302,0,2.604,0,3.825
	c-1.304,1.306-2.605,2.607-3.826,3.829c0,1.306-0.388,7.217-0.388,8.519l-3.169-1.122l-2.584-1.964l-1.344-0.415l0.103-1.343
	l-2.79,0.206l-2.066-2.479l-6.41,2.479l-4.133,0.209l-3.41-1.552l-3.102,3.723l2.378,2.688l0.828,1.963l-1.032,2.375l-2.793-0.825
	l-3.925-0.827l-4.575-0.154"/>
<path id="Guiana-francesa" fill="#D3D3D3" stroke="#FFFFFF" d="M325.101-36.851h16.586l9.17,8.366l5.856,6.38l3.234,3.958
	l-1.239,5.169l-2.066,1.861l-4.963,7.957l-3.718,6.409l-2.791,7.544l-4.651,4.548l-1.655,1.446h-5.271l0.933-1.137l-1.55-1.241
	l-2.174,0.829l-2.375,0.103l-1.962-1.24l-2.895,1.964l-4.272,1.536c0-1.302,0.388-7.213,0.388-8.519
	c1.221-1.221,2.522-2.523,3.826-3.829c0-1.221,0-2.523,0-3.825c0.65-0.652,1.303-1.304,1.955-1.954c0-1.874,0-3.828,0-5.782
	c-1.221-1.305-2.526-2.607-3.828-3.909c0-0.572,0-1.221,0-1.875c-0.651-0.652-1.301-1.302-1.953-1.954c0-2.527,0-5.13,0-7.737
	c-0.654-0.568-1.302-1.222-1.956-1.874c0-0.649,0-1.302,0-1.954c0.653-0.653,1.301-1.302,1.956-1.955c0-0.653,0-1.302,0-1.955
	c1.221-1.221,2.837-3.774,4.139-5.075L325.101-36.851z"/>
<path id="Argentina" fill="#D3D3D3" stroke="#FFFFFF" d="M111.281,583.8c0-0.57,0-1.223,0-1.875
	c-0.65-0.648-1.299-1.303-1.955-1.955c0-1.221,0-2.523,0-3.825c-0.568-0.651-1.22-1.305-1.874-1.953c0-0.653,0-1.305,0-1.959
	c-0.647-0.647-1.299-1.302-1.954-1.957c0-1.223,0-2.522,0-3.825c-0.65-0.649-1.302-1.3-1.955-1.956c0-1.223,0-2.524,0-3.827
	c-0.569-0.653-1.221-1.304-1.874-1.953c0-0.573,0-1.223,0-1.874c-0.65-0.654-1.302-1.302-1.955-1.956c0-1.874,0-3.827,0-5.782
	c0.65-0.651,1.302-1.301,1.955-1.953c0-2.528,0-5.131,0-7.737c0.571-0.569,1.221-1.223,1.874-1.873c0-0.649,0-1.303,0-1.957
	c0.65-0.648,1.303-1.3,1.955-1.953c0-1.874,0-3.827,0-5.787c-0.65-0.645-1.302-1.299-1.955-1.953c0-3.83,0-7.655,0-11.563
	c0.65-0.573,1.303-1.222,1.955-1.869c0-3.18,0-6.44,0-9.696c1.222-1.219,2.528-2.527,3.827-3.828c0-0.647,0-1.297,0-1.955
	c0.654-0.651,1.303-1.297,1.955-1.953c0-0.569,0-1.223,0-1.874c0.652-0.653,1.302-1.298,1.957-1.956c0-1.22,0-2.521,0-3.827
	c2.526-2.522,5.127-5.129,7.737-7.736c0-0.648,0-1.303,0-1.955c-0.653-0.649-1.301-1.301-1.956-1.954c0-0.569,0-1.223,0-1.871
	c-0.653-0.651-1.3-1.305-1.955-1.959c0.652-0.647,1.299-1.3,1.955-1.953c0-1.871,0-3.825,0-5.78c-0.653-0.576-1.3-1.221-1.955-1.872
	c0-7.085,0-14.173,0-21.258c1.299-1.22,2.607-2.525,3.908-3.827c0.569,0,1.219,0,1.873,0c0.649-0.649,1.301-1.303,1.956-1.956
	c0.65,0,1.3,0,1.955,0c1.222-1.3,2.523-2.604,3.829-3.907c0.649,0,1.299,0,1.955,0c0-1.874,0-3.829,0-5.784
	c0.568-0.569,1.222-1.222,1.874-1.87c0-2.526,0-5.132,0-7.736c-0.572-0.651-1.225-1.305-1.874-1.953l0,0
	c0.568-0.653,1.222-1.305,1.874-1.961c0-0.569,0-1.222,0-1.87c1.299-1.304,2.604-2.606,3.908-3.906c0-1.223,0-2.527,0-3.829
	c1.222,0,2.524,0,3.825,0c1.303-1.221,2.607-2.528,3.91-3.827c2.525,0,5.047,0,7.654,0c0.652,0.569,1.304,1.22,1.956,1.871
	c0.653,0,1.303,0,1.955,0c0.572-0.572,1.221-1.22,1.874-1.871c1.3,0,2.607,0,3.907,0c1.874,1.871,3.83,3.827,5.784,5.782
	c0.654,0,1.3,0,1.955,0c0.569,0.569,1.221,1.221,1.874,1.874c0.65,0,1.3,0,1.955,0c0.652-0.573,1.302-1.223,1.957-1.874
	c0-0.652,0-1.302,0-1.955c0.568-0.653,1.219-1.305,1.871-1.956c0-1.22,0-2.526,0-3.828c5.785,0,11.562,0,17.428,0
	c0.569,0.652,1.222,1.3,1.872,1.957l0,0c0.65,0.651,1.302,1.299,1.954,1.871c0,0.649,0,1.301,0,1.956
	c1.955,1.955,3.909,3.908,5.783,5.782c0,0.649,0,1.304,0,1.957c2.609,2.604,5.216,5.209,7.737,7.735c0.653,0,1.306,0,1.957,0
	c0.65,0.649,1.304,1.301,1.872,1.87c0.653,0,1.302,0,1.957,0c1.955,1.954,3.907,3.911,5.783,5.783c1.954,0,3.908,0,5.782,0
	c0.65,0.653,1.302,1.304,1.957,1.955c1.955,0,3.908,0,5.783,0c1.301,1.306,2.604,2.607,3.825,3.827c0.652,0,1.304,0,1.956,0
	c1.304,1.305,2.607,2.607,3.827,3.909c0.652,0,1.305,0,1.956,0c1.304,1.305,2.607,2.607,3.828,3.827c1.304,0,2.607,0,3.91,0
	c0.651,0.654,1.302,1.303,1.953,1.957c1.306,0,2.607,0,3.829,0c0.652,0.65,1.302,1.3,1.954,1.953c0.652,0,1.305,0,1.874,0
	c1.956,1.958,3.909,3.908,5.784,5.787c0,0.651,0,1.298,0,1.87c-0.651,0.647-1.305,1.299-1.873,1.957c0,0.653,0,1.298,0,1.953
	c-0.653,0.654-1.302,1.304-1.956,1.877c0,0.648,0,1.297,0,1.953c-1.301,1.302-2.608,2.603-3.83,3.909c0,1.954,0,3.907,0,5.781
	c-0.65,0.65-1.3,1.302-1.954,1.871c0,0.653,0,1.301,0,1.953c-1.3,1.308-2.607,2.606-3.829,3.829c0,0.654,0,1.306,0,1.955
	c3.909,0,7.738,0,11.566,0c0.652,0.652,1.299,1.306,1.872,1.955c8.388,0,16.776,0,25.081,0c0.653-0.649,1.306-1.303,1.958-1.955
	c0.649,0,1.302,0,1.954,0c0-0.649,0-1.301,0-1.955c0.653-0.647,1.305-1.302,1.954-1.87c0.653,0,1.306,0,1.875,0
	c1.953-1.959,3.908-3.912,5.781-5.783c0.653,0,1.304,0,1.957,0c0-0.651,0-1.305,0-1.954c0.652-0.651,1.3-1.305,1.955-1.953
	c0-3.911,0-7.736,0-11.566l0.996,0.433l0.929-0.412l0.723-0.313l0.621,0.621v-0.415l0.929,0.209l-0.515-0.41l0.31-0.308l1.344-0.62
	l-0.308,0.928l0.206,0.725l0.309,0.204l0.31-0.826l0.309,0.416l0.413-0.416l0.62,0.826h0.208l0.517,0.105l0.206-0.105l0.103,0.105
	l-0.103,0.206l0.518-0.102l-0.103,0.514l0.205-0.103l0.415,0.621l-0.103,0.208l-0.212,0.206l0.212,0.106l-0.106,0.308l0.209,0.21
	l-0.103,0.103l0.41,0.206l0.104,0.313l-0.207,0.306l-0.104,0.104l-0.103,0.313l0.206,0.102v0.725h0.207h0.103v0.517h-0.42
	l0.104,0.62l0.308,0.105v0.206h0.107l0.308,0.103l0.205,0.21l-0.102,0.206l0.209,0.104l0.208,0.208l0.103-0.106l0.31,0.519h-0.105
	l-0.103,0.307l0.103,0.209L326.669,461v0.104l0.309,0.206h0.105l0.103,0.213l0.104,0.203l0.311,0.206l0.103,0.104l0.206,0.313h0.104
	v0.203l0.208,0.107l-0.208,0.31l0.104,0.102l0.104,0.208l-0.104,0.519l-0.62,0.826v0.211l-0.206,0.206l-0.104,0.308l0.206,0.311
	l-0.103,0.722l0.103,0.105l-0.103,0.826l-0.412-0.104v0.312h0.208l-0.104,0.307l-0.209,1.347l-0.307,0.206l0.412,0.414v0.104
	l-0.208,0.103l-0.208,0.414l0.104,0.518l0.31-0.21l0.208,0.517h-0.104l0.41,1.346h0.313l0.205,0.31l-0.518-0.105l0.313,0.516v0.311
	l-0.313,0.208l0.211,0.306l-0.414-0.204l0.104,0.414h-0.412l-0.412,1.236l-0.313,0.211l0.313,0.21l-0.208,0.206h-0.209l-0.208-0.206
	l-0.104,0.306l0.411,0.311l-0.411,0.102v0.212l-0.31,0.104l0.103,0.206l-0.207,0.102l-0.103,0.104l0.103,0.102l-0.103,0.107
	l-0.308-0.621l-0.414,0.102l-0.518,0.623l-0.517-0.31l-0.104,0.62l-0.723,0.104l-0.31,0.826l-0.414,0.104l-0.307,0.62l-1.242-0.102
	v-0.411l-0.21-0.211l-0.307,0.828l-0.31,0.621l-0.105,0.62l-0.617,0.208l-0.107,0.619l-0.41,0.103l-0.724-0.62l0.104,0.826
	l-0.207,0.105l-0.622-0.726l-0.414-0.206l-0.307,0.311h-0.518l0.412,0.726l-0.93,0.102l-0.206,0.307l-0.312,0.105l-0.723-0.828
	l-0.62,1.444h-0.309l-0.206-0.512l-0.312,0.102v0.927l-0.621-0.204l-0.62,0.308l-0.411-0.104l-0.105-0.623l-0.309-0.103
	l-0.621,1.549h-0.62l-0.103,1.553l-0.416,0.41l-0.103,0.312l-0.307,0.103l-0.518-0.103l-0.414,0.309l-0.514-0.412l-0.415,0.516
	l0.723,0.309v0.623l-0.723-0.312l-0.723,0.312l-1.036-0.105l-1.031,1.24l-0.932-0.106l-0.206,0.622l-0.517,0.105l-0.103,0.411
	l0.209,0.308l-0.106,0.311l-0.62,0.31l-0.515,0.62l-0.723-0.311l-0.83,1.245l-0.514-0.518l-0.209-0.104l-0.411,0.309l0.103,0.206
	l-0.206,0.414l-2.172,1.034V495l0.62,0.21l0.932,0.623l-0.415,1.546h-0.205l-0.416-0.827l-1.653-0.31l-0.828,0.725l0.21,1.24
	l-1.861,0.414l-0.207,0.724l0.411,0.52l-2.893,2.994l-1.652,0.31v1.446l-0.621,0.829l-0.724,0.206l-0.518,0.722l0.308,0.313
	l-0.308,0.93l-1.241,0.103l-1.446,0.518l-0.93,1.759l0.106,0.409l-1.036,1.759l-2.892,2.585l-3.41,3.717l-0.623,0.208l-1.137,0.106
	l-1.241,1.446l0.102,0.826l-0.102,0.62l-0.307,0.412l-1.549,1.138l-0.517,0.827l-1.553,0.828l-0.929,0.206h0.517l0.725,0.308
	l0.103,0.106l0.103,0.928l0.827,0.206l0.107-0.308l1.134,0.206l-0.103,0.312h0.517l0.409-0.518l0.108,0.206l0.724-0.306l0.936,1.639
	l-1.874,1.958v11.563l-1.955,1.956v5.783l-1.957,1.871l1.957,1.958v13.52l-1.957,1.953v1.872l-1.873,1.953l-0.007,14.517H111.484
	L111.281,583.8"/>
<path id="Chile" fill="#D3D3D3" stroke="#FFFFFF" d="M132.538,414.001c-3.176,0-6.435,0-9.691,0c0-0.652,0-1.304,0-1.957
	c-0.573-0.569-1.222-1.222-1.873-1.869c0-1.876,0-3.83,0-5.785c-0.653-0.651-1.301-1.301-1.956-1.954c0-0.652,0-1.304,0-1.956
	c-0.653-0.572-1.3-1.22-1.955-1.871c0-1.302,0-2.607,0-3.909c-0.652-0.569-1.302-1.222-1.957-1.874c0-0.648,0-1.302,0-1.955
	c-1.871-1.873-3.828-3.828-5.783-5.781c0-1.872,0-3.829,0-5.785c-0.568-0.647-1.221-1.301-1.874-1.955c0-5.784,0-11.563,0-17.346
	c-1.299-1.304-2.604-2.606-3.906-3.906c-0.569,0-1.221,0-1.874,0c0-1.223,0-2.527,0-3.832c-0.65-0.648-1.302-1.303-1.955-1.953
	c0-2.527,0-5.128,0-7.737c-0.649-0.568-1.303-1.22-1.957-1.87c0-0.654,0-1.301,0-1.959c-0.569,0-1.221,0-1.868,0l-0.652-0.648
	l-5.214-1.301c-0.65,0.651-1.302,1.302-1.87,1.954c0,0.653,0,1.301,0,1.956c-1.306,1.304-2.607,2.606-3.909,3.826
	c-1.238,0-2.471,0-3.639,0c0.087,4.745-0.104,10.191-0.064,14.918c3.339,3.469,0.307,2.828,3.08,6.819
	c1.796,5.911,0.758,8.075,0.791,15.915c3.639,3.285,0.352,7.598,1.973,9.397c2.435,2.701,3.289,6.397-0.234,8.355
	c-1.257,4.545-0.128,33.065,0.058,47.816c0.037,3.062,2.096,3.698,2.054,5.77c-0.054,2.784-1.848,4.069-1.883,4.096
	c0.502,1.019-0.361,8.421,0.012,10.954c0.289,1.967,1.98,1.944,1.468,2.667c-2.77,3.929,0.744,6.254-3.256,11.338
	c-0.858,1.96,0.424,11.534-0.343,13.754c-0.054,2.047,0.406,6.901-0.366,8.162c-2.418,3.934-1.761,6.813-3.344,7.829
	c0,1.072-0.635,5.679-0.355,6.213l0.18-0.185c0,1.314,1.925,2.477,2.449,3.737c2.51,4.664,2.359,6.858-0.82,12.992
	c0.494,1.517,0.494,3.882-0.007,5.397c0.718,1.535,0.825,3.94,0.417,5.617c0.336,1.371,0.583,2.833,0.415,4.246
	c1.398,1.998,1.673,5.212,2.318,7.528c2.054-2.661-0.991,4.877,3.063,10.514c1.08,1.778-0.003,4.234-0.036,6.33
	c0.105,2.708-0.044,9.101,0.347,12.049h22.964c0-0.324-0.203-4.503-0.203-4.838c-0.65-0.648-1.299-1.303-1.955-1.955
	c0-1.221,0-2.523,0-3.825c-0.568-0.651-1.22-1.305-1.874-1.953c0-0.653,0-1.305,0-1.959c-0.647-0.647-1.299-1.302-1.954-1.957
	c0-1.223,0-2.522,0-3.825c-0.65-0.651-1.302-1.3-1.955-1.956c0-1.223,0-2.524,0-3.827c-0.569-0.653-1.221-1.304-1.874-1.953
	c0-0.573,0-1.223,0-1.874c-0.65-0.654-1.302-1.302-1.955-1.956c0-1.874,0-3.827,0-5.782c0.65-0.651,1.302-1.301,1.955-1.953
	c0-2.528,0-5.131,0-7.737c0.571-0.569,1.221-1.223,1.874-1.873c0-0.649,0-1.303,0-1.957c0.65-0.648,1.303-1.3,1.955-1.953
	c0-1.874,0-3.827,0-5.787c-0.65-0.647-1.302-1.299-1.955-1.953c0-3.83,0-7.655,0-11.563c0.65-0.573,1.303-1.222,1.955-1.869
	c0-3.18,0-6.44,0-9.696c1.222-1.219,2.528-2.527,3.827-3.828c0-0.647,0-1.297,0-1.955c0.654-0.651,1.303-1.3,1.955-1.953
	c0-0.569,0-1.223,0-1.874c0.652-0.653,1.302-1.3,1.957-1.956c0-1.22,0-2.521,0-3.827c2.526-2.522,5.127-5.129,7.737-7.736
	c0-0.648,0-1.303,0-1.955c-0.653-0.649-1.301-1.301-1.956-1.954c0-0.569,0-1.223,0-1.871c-0.653-0.651-1.3-1.305-1.955-1.959
	c0.652-0.647,1.299-1.3,1.955-1.953c0-1.871,0-3.825,0-5.78c-0.653-0.576-1.3-1.223-1.955-1.872c0-7.085,0-14.173,0-21.258
	c1.299-1.22,2.607-2.525,3.907-3.827c0.57,0,1.22,0,1.874,0c0.649-0.649,1.301-1.303,1.956-1.956c0.65,0,1.3,0,1.955,0
	c1.222-1.3,2.523-2.604,3.829-3.908c0.649,0,1.299,0,1.955,0c0-1.873,0-3.829,0-5.783c0.568-0.569,1.222-1.222,1.874-1.871
	c0-2.525,0-5.131,0-7.735c-0.571-0.651-1.222-1.302-1.869-1.949h-0.004V414.001z"/>
<path id="Uruguai" fill="#D3D3D3" stroke="#FFFFFF" d="M330.509,582.666c0.652-0.654-2.703,4.098-2.703,4.098h-62.117
	c0-2.523,0-11.923,0-14.53c0.573-0.647,1.222-1.302,1.875-1.953c0-0.569,0-1.223,0-1.872c0.652-0.65,1.3-1.304,1.954-1.953
	c0-4.479,0-8.959,0-13.519c-0.65-0.654-1.3-1.306-1.954-1.957c0.652-0.571,1.3-1.219,1.954-1.873c0-1.874,0-3.827,0-5.78
	c0.653-0.653,1.301-1.303,1.957-1.961c0-3.826,0-7.651,0-11.56c0.568-0.651,1.221-1.302,1.872-1.96c0-1.22,0-2.521,0-3.825
	l6.194-0.5l12.816,11.883l0.192,5.099l6.588-7.183l10.583,10.867l8.888,5.919l8.373,4.935l4.754,7.442l5.167,2.584l-7.687,8.7"/>
<path id="rondonia" fill="#03A9AE" stroke="#FFFFFF" d="M223.355,263.409l4.862-8.064l4.238-7.962l0.521-5.065l-4.666-7.357
	l3.115-3.606l-0.623-5.581l-6.001-1.655l-18.227-1.305l1.276-11.517l-1.276-16.793l0.901-4.809l-2.317-2.074l-2.688,2.897
	l-2.585-1.241l-2.996-3.516l-3.832-2.998l-2.173-2.892l-2.585-3.207l-12.739-0.412l-1.42,5.271l-2.792,1.342l-0.518,3l-2.171,2.172
	l-0.824,3.825l-3.025,0.598l-7.833,0.433l-0.618,3.311l-2.799,3l-1.958-2.689l-3.103,0.929l0.207,2.376l-3.413-0.313l-1.758,1.863
	l-3.518-2.583l-6.958,0.172l-0.588,3.134l-5.662,2.616l4.24,2.089l7.107-2.017l8.992-0.102v-3.153l3.824,4.184l-0.311,4.03
	l-0.309,3.102l-0.594,2.859l0.698,5.306l1.031,2.584l-0.62,5.375c0,0,2.254,6.111,3.517,7.853c1.332,1.836,6.718,6.097,6.718,6.097
	l7.368,2.793l6.065,0.724l7.444,3.513l2.376-0.104l2.791,3.098l3.205,2.173l3.307,1.032l4.548,0.928l4.34,4.861l2.999,1.134
	l4.442,0.415l4.754-0.518l4.962,3l0.344,0.082l1.011-0.337L223.355,263.409z"/>
<path id="matogrosso" fill="#03A9AE" stroke="#FFFFFF" d="M374.177,252.428l-1.366-1.947l0.746-3.019l-0.207-5.998l-0.204-4.648
	l0.31-2.275l-1.138-2.273l1.896-10.954l2.999-7.853l2.599-7.832l0.109-0.315l-97.812-7.026l-5.999-3.101l-6.408-6.308l-1.656-1.034
	l-1.135-8.272l-7.653-13.542l-3.05,7.965l1.237,4.448l-1.572,10.525l-48.338,0.41l-0.96,5.124l1.276,16.793l-1.276,11.517
	l18.227,1.305l6.001,1.655l0.623,5.581l-3.115,3.606l4.666,7.357l-0.521,5.065l-4.238,7.962l-4.862,8.064l-2.544,2.551l-0.061,0.254
	l1.125,0.266l3.099,3.929l3.6,9.647l-0.915,8.132l1.14,18.291h28.215l-0.207,3.31l-1.962,5.786l4.441,5.067l4.342,4.44l3.928,4.447
	l1.11,1.54l2.298,0.112l3.926-1.136l2.689-3.103l2.481-3.733l5.384-0.304l6.21-2.172l5.873,2.583l6.731,4.245h4.14l4.452-1.864
	l3.308,0.724l1.654,1.969l2.276-0.93l6.52-5.586l0.953,7.085l-2.714,0.46l-1.238,2.794l4.864,1.141l6.206,0.622l1.853,0.181
	l-0.787-3.137l-1.555-4.145l1.14-5.383l1.731-5.408l4.689-3.698l1.759-2.175l-0.826-2.897l1.003-0.979l2.827-2.23l2.298-3.145
	l3.625-0.75l3.227-1.74l1.706-3.977l1.133-5.037l1.06-1.496l2.768-1.297l1.654,0.519l2.703-2.472l1.739-4.658l0.204-1.965
	l1.141-4.757l0.666-1.12c0,0-0.231-4.33,0.16-5.701c0.395-1.381,2.897-4.962,2.897-4.962l0.192-4.462l2.187-3.398l-0.079-0.474
	L374.177,252.428z"/>
<path id="goias" fill="#03A9AE" stroke="#FFFFFF" d="M445.23,275.993l-2.997-2.582l-2.09-1.284l-0.5-2.833l1.556-1.981l-0.222-2.519
	l-0.089-2.652l2.374-1.76l0.313-1.031l-3.31,1.343l-0.208-4.447l2.364-1.885l-9.986,0.599l-3.434,2.55l-4.353,1.075l-2.169,0.474
	l-3.67-1.974l-0.75,1.875l1.521,2.461l-0.622,1.139l-2.891-2.276l-3.21-1.242l-2.122,0.542l1.073-2.5l-4.958,1.855l-0.292-2.105
	l-1.362,3.348l-0.888,0.027l0.576-3.747l-1.967-1.656l-0.109-1.347l-1.962-1.342l-1.652,2.481l-1.343-1.758l-1.344-0.413
	l-1.969,2.376l-1.137,2.067l-0.204,2.688l-7.89-4.725l-6.378-2.406l0.253-3.469l2.229-3.252l-4.604,2.252l-1.375,3.125l0.437,2.602
	l-2.187,3.398l-0.192,4.462l-2.897,4.962l-0.16,5.701l-0.666,1.12l-1.141,4.757l-0.204,1.965l-1.739,4.658l-2.703,2.472
	l-1.654-0.519l-2.768,1.297l-1.06,1.496l-1.133,5.037l-1.706,3.977l-3.227,1.74l-3.625,0.75l-2.298,3.145l-2.827,2.23l-1.003,0.979
	l0.826,2.897l-1.759,2.175l-4.689,3.698l-1.731,5.408l-1.14,5.383l1.555,4.145l0.897,3.574l-0.724,0.211l0.518,3.819l2.376-0.205
	l2.124,0.857l-1.09,1.728l-1.209,1.737l1.313,1.157l2.861,0.061l1.997,0.045l2.892,2.175l4.555,2.484l5.383,2.383l5.176,1.448
	l4.239,1.76l2.408,3.695l0.976-0.72l-0.799-1.771l2.299-3.125l3.006-1.004l1.119-3.871l2.875-3.375l4.168-0.818l4.447,0.104
	l3.103-1.859l1.657,1.756l3.619-2.688l4.339-1.859l3.542-0.135l4.938,0.862l5.657,1.765l4.529-2.752l6.031-3.879l-1.346-3.519
	l1.655-3.001l-1.354-1.706l-1.747,0.049l-0.365-2.319l1.293-2.231l3.933-3.521l-0.726-1.248l-1.125-3.125l-3.25-4l1.992-3.32
	l0.405-2.872l-2.854-0.641l-6.444,0.056l-5.806-0.39l0.845-1.576l-0.845-2.376c0,0,1.843-0.579,2-1.131
	c0.208-0.731-1.465-2.667-1.465-2.667l1.238-0.545h11.991l1.445,1.55v1.864l-0.827,2.589v1.553l1.206,1.23l2.423-2.079l4.967-0.722
	l-1.146-3.648l-0.92-1.314l-0.33-1.936l1.88-1.478l-1.505-1.147l0.366-1.539l-0.102-1.652l1.034-1.037l2.374,0.728l2.587-0.728
	l-0.414-2.894l1.154-2.503l2.671,3.334l4.232-0.293l0.104-0.62l0.417-2.794v-2.381l0.724-1.137L445.23,275.993z"/>
<path id="DF" fill="#03A9AE" stroke="#FFFFFF" d="M411.002,294.499h11.991l1.445,1.55v1.864l-0.827,2.589v1.553l1.207,1.232
	l-0.477,0.483l-2.863-0.643l-6.444,0.056l-5.806-0.39l0.845-1.576l-0.845-2.376c0,0,1.843-0.579,2-1.131
	c0.208-0.731-1.465-2.667-1.465-2.667L411.002,294.499z"/>
<path id="minasgerais" fill="#03A9AE" stroke="#FFFFFF" d="M368.944,365.587l4.341-1.857l3.207-2.071l3.408,1.553l5.17,0.929
	l4.237-0.206l2.168,0.413l3.408,0.206l-0.514,0.828l-0.059,3.407l1.914,1.141l1.657-2.377h0.722l0.707,4.236l1.568-0.307
	l0.312-3.617l3.099-0.104l5.476-0.516l0.519-1.552l1.862,1.445l2.995-0.312l0.83-1.447l2.171-0.519l1.669,1.428l0.501-0.805
	l1.863-1.034l0.826,1.654l2.585,2.171l-0.942,1.182l-0.333,2l2.617,1.783l0.826,2.596l-2.776,1.183l1.666,2.104l0.904,4.465
	l2.173,3.832l1.761-0.518l2.563-0.116l2.608,1.878l-0.412,2.072L435,392.493l0.002,3.725l-0.725,1.139l0.931,1.555l-1.24,2.998
	l4.511,2.647l-0.062,1.7l-1.139,1.244l1.967,1.238l-0.208,1.862l5.684-0.417l3.731-1.137l-1.034-1.549l2.274-1.346l3.827,0.62
	l2.792-2.217l6.825-1.61l7.814-2.643l6.624-2.384l5.382-0.31l2.483-0.93l3.416,1.136l12.504-6.102l-1.925-1.129l1.923-2.489
	l1.451-5.28l0.31-2.485l2.687-0.828l1.13-2.484l1.526-4.332l-0.936-1.655l1.556-2.584l5.785-0.312l0.693-3.675l2.205-0.979
	l0.104-2.482v-1.538l3.205-2.085l0.928-2.896l-1.138-3.415l-1.969-2.796l-1.965-1.141l0.879-1.918l1.375,1.375l2.398,0.235
	l-0.724-2.485l-1.034-0.62l0.516-2.793l-2.781-0.587l0.625-2.875l1.952-1.191l2.174-0.619l1.45,0.622l-1.656-2.689l1.759-0.103
	l1.24,0.519l1.758-1.244l2.789-0.21l1.865,0.415l1.239-0.825l-0.621-2.793l-2.689-2.382l-3.26-3.124l1.293-2.152l0.707-5.473
	l2.81,0.409l1.142-1.14l-1.5-0.813l1.397-3.323l2.997-2.064l2.175-2.793v-2.9l-1.655-1.652l-3.002-2.38h-2.277l-1.243-1.031
	l-2.068,0.203l-4.863-1.756l-3.93,1.549l-2.374-0.207l-0.516-3.824l-6.82-6.304l-2.175,1.24l-2.48-0.514l-3.107-0.725l-6.618-3.728
	l-5.481-2.998l-3.932,0.412l-2.584,1.346l-5.769-2.632l1.626-4.607l-6.211-1.448l-5.48,1.865l-8.31,5.69l-1.316,0.517l-3.465,2.81
	l-2.719-0.076l-1.786,3.063l-4.861,2.276l-1.228-1.339l2.471-3.211l-0.942-1.748l-4.232,0.293l-2.671-3.334l-1.154,2.503
	l0.414,2.894l-2.587,0.728l-2.374-0.728l-1.034,1.037l0.102,1.652l-0.366,1.539l1.505,1.147l-1.88,1.478l0.33,1.936l0.92,1.314
	l1.146,3.648l-4.967,0.722l-2.896,2.485l-0.416,2.949l-1.992,3.32c0,0,2.616,2.878,3.25,4c0.408,0.723,1.125,3.125,1.125,3.125
	l0.726,1.248l-3.933,3.521l-1.293,2.231l0.365,2.319l1.747-0.049l1.354,1.706l-1.655,3.001l1.346,3.519l-6.031,3.879l-4.529,2.752
	l-5.657-1.765l-4.938-0.862c0,0-2.677-0.06-3.542,0.135c-1.151,0.259-4.339,1.859-4.339,1.859l-3.619,2.688l-1.657-1.756
	l-3.103,1.859l-4.447-0.104l-4.168,0.818l-2.875,3.375l-1.119,3.871l-3.006,1.004l-2.299,3.125l0.799,1.771l-2.216,2.479
	l-0.319,2.173l0.785,3.953"/>
<path id="saopaulo" fill="#03A9AE" stroke="#FFFFFF" d="M414.978,443.79l10.88-6.962l3.104-2.998l1.24-1.553l8.576-4.858
	l1.761,0.518l2.068-2.277l6.328-1.046h3.043l1.698-0.193l0.009,2.47l2.585-1.968l-3.111-2.466l3.319-1.875l4.031-2.271l3.409-0.307
	l-2.274-2.175l1.334-4.372l7.1-1.576l2.483-4.797l-3.583-0.007l-2.111,1.49l-3.73-3.621l-6.825,1.61l-2.792,2.217l-3.827-0.62
	l-2.274,1.346l1.034,1.549l-3.731,1.137l-5.684,0.417l0.208-1.862l-1.967-1.238l1.139-1.244l0.062-1.7l-4.511-2.647l1.24-2.998
	l-0.931-1.555l0.725-1.139L435,392.493l1.241-1.757l0.412-2.072l-2.608-1.878l-2.563,0.116l-1.761,0.518l-2.173-3.832l-0.904-4.465
	l-1.666-2.104l2.776-1.183l-0.826-2.596l-2.617-1.783l0.333-2l0.942-1.182l-2.585-2.171l-0.826-1.654l-1.863,1.034l-0.501,0.805
	l-1.669-1.428l-2.171,0.519l-0.83,1.447l-2.995,0.312l-1.862-1.445l-0.519,1.552l-5.476,0.516c0,0-2.537-0.429-3.099,0.104
	c-0.658,0.625-0.312,3.617-0.312,3.617l-1.568,0.307l-0.707-4.236h-0.722l-1.657,2.377l-1.914-1.141l0.059-3.407l0.514-0.828
	l-3.408-0.206l-2.168-0.413l-4.237,0.206l-5.17-0.929l-3.408-1.553l-3.207,2.071l-4.341,1.857l-1.549,3.418l-1.967,1.032
	l-2.275,0.622l-1.55,2.068l-2.271,2.583l-0.415,4.651l-1.551,0.515l-1.445,2.274l-0.934,0.411l0.415,2.38l-1.758,3.1l-1.653,0.206
	l0.411,2.374l-1.963,2.381l-1.963,2.169l-2.795,4.135l-4.647,2.483l-4.756,2.687l2.199,0.884l6.053-0.264l5.687,1.138l0.724-1.758
	l5.688,1.036l4.959,0.611l3.516,1.139l3.929,0.93l3.205,2.687l1.032-0.724l6.826,0.727l3.725-0.931l0.49,3.312h2.921l1.965,3.902
	l1.032,5.179l0.21,3.622l4.696,7.35l-1.037,4.449l4.036-0.001l6.521-0.003l1.347,1.141l-1.035,4.454l0.934,1.241l0.928-1.346
	l1.863,0.313l1.553-0.933l0.938,3.52l2.117,0.44l0.362,0.075"/>
<path id="matogrossodosul" fill="#03A9AE" stroke="#FFFFFF" d="M367.9,361.882l0.319-2.173l2.216-2.479l-0.976,0.72l-2.408-3.695
	l-4.239-1.76l-5.176-1.448l-5.383-2.383c0,0-3.464-1.782-4.555-2.484c-0.761-0.49-2.892-2.175-2.892-2.175l-1.997-0.045
	l-2.861-0.061l-1.313-1.157l1.209-1.737l1.09-1.728l-2.124-0.857l-2.376,0.205l-0.518-3.819l0.724-0.211l-0.109-0.438l-1.854-0.181
	l-6.206-0.622l-4.864-1.141l1.238-2.794l2.714-0.46l-0.953-7.085l-6.52,5.586c0,0-1.68,1.077-2.276,0.93
	c-0.624-0.154-1.654-1.969-1.654-1.969l-3.308-0.724l-4.452,1.864h-4.14l-6.731-4.245l-5.873-2.583l-6.21,2.172l-5.384,0.304
	l-2.481,3.733l-2.689,3.103l-3.926,1.136l-2.298-0.112l0.231,0.32l-0.723,4.031l-2.178,10.427l-6.314,13.058l0.109,2.434
	l4.134,3.514l-4.443,2.585l2.17,5.275l1.751,4.753l0.523,8.893l-0.31,5.27l-1.652,6.308l6.065,0.83l6.937,1.239l6.625-0.002
	l3.104-2.067l6.523,3.002l3.721,0.927l0.121,2.598l2.98,2.264l-0.518,2.483l1.753,6.813l0.104,4.654l1.55,6.308l4.639,0.521
	l5.797-1.862l5.276,1.758l1.325,2.063l3.226-2.368l1.86-7.754L326.26,418l1.652-3.412l0.416-2.378l7.647-5.48l2.502-0.769
	l-2.199-0.884l4.756-2.687l4.647-2.483l2.795-4.135l1.963-2.169l1.963-2.381l-0.411-2.374l1.653-0.206l1.758-3.1l-0.415-2.38
	l0.934-0.411l1.445-2.274l1.551-0.515l0.415-4.651l2.271-2.583l1.55-2.068l2.275-0.622l1.967-1.032l1.549-3.418l-0.259,0.248
	L367.9,361.882z"/>
<path id="Parana" fill="#03A9AE" stroke="#FFFFFF" d="M328.115,463.796l3.106-0.127l2.485-0.518l3.193,1.642l3.943-0.089l4.45,0.828
	l5.067,0.725l3.105,1.857l6.925,0.417l1.253,2.054l3.195-1.848l-0.826-3.209c0,0,1.992-1.667,2.792-1.967
	c0.705-0.265,2.997-0.313,2.997-0.313l1.761-0.412l3.413-3.52l2.589,0.831l5.274-0.314l4.139,1.033l4.286,1.552l5.385-3.004
	l8.099-0.83l1.521-3.625l3.325-2.697l-0.95-1.136l5.018-3.86l-2.479-0.516l-0.938-3.52l-1.553,0.933l-1.863-0.313l-0.928,1.346
	l-0.934-1.241l1.035-4.454l-1.347-1.141l-6.521,0.003l-4.036,0.001l1.037-4.449l-4.696-7.35l-0.21-3.622l-1.032-5.179l-1.965-3.902
	h-2.921l-0.49-3.312l-3.725,0.931l-6.826-0.727l-1.032,0.724l-3.205-2.687l-3.929-0.93l-3.516-1.139l-4.959-0.611l-5.688-1.036
	l-0.724,1.758l-5.687-1.138l-6.053,0.264l-2.502,0.769l-7.647,5.48l-0.416,2.378L326.26,418l-3.206,1.343l-1.86,7.754l-3.513,2.579
	l0.926,3.952l-1.131,5.454l-1.857,5.829v3.597l2.105,2.125l-0.746,1.828l4.333-0.5l2.781,1.384l1.446,4.344l1.233,2.691l1.056,3.081
	"/>
<path id="paraguai" fill="#03A9AE" stroke="#FFFFFF" d="M317.723,450.632l-2.105-2.125v-3.597l1.857-5.829l1.131-5.454l-0.926-3.952
	l0.924-0.679l-0.637,0.468l-1.325-2.063l-5.276-1.758l-5.797,1.862l-4.639-0.521l-1.55-6.308l-0.104-4.654l-1.753-6.813l0.518-2.483
	l-2.98-2.264l-0.121-2.598l-3.721-0.927l-6.523-3.002l-3.104,2.067l-6.625,0.002l-6.937-1.239l-6.065-0.83l1.652-6.308l0.31-5.27
	l-0.523-8.893l-1.751-4.753l-2.17-5.275l4.443-2.585l-4.134-3.514l-0.049-1.098l-1.396-0.519h-2.272l-3.9-5.499h-1.954l-3.5-1.956
	h-11.889l-1.955,1.956h-3.908l-1.875,1.874l-6.738,1.126l-2.953,0.828h-6.402l-0.851,5.923l-2.356,1.813l-3.075,4.947l-2.107,4.061
	L202.007,379v9.916l-1.956,7.736v3.823l-0.003-0.004c0,0.649,0,1.301,0,1.955c1.955,1.955,3.909,3.908,5.783,5.782
	c0,0.649,0,1.304,0,1.957c2.609,2.604,5.216,5.209,7.737,7.735c0.653,0,1.306,0,1.957,0c0.65,0.649,1.304,1.301,1.872,1.87
	c0.653,0,1.302,0,1.957,0c1.955,1.954,3.907,3.911,5.783,5.783c1.954,0,3.908,0,5.782,0c0.65,0.653,1.302,1.304,1.957,1.955
	c1.955,0,3.908,0,5.783,0c1.301,1.306,2.604,2.607,3.825,3.827c0.652,0,1.304,0,1.956,0c1.304,1.305,2.607,2.607,3.827,3.909
	c0.652,0,1.305,0,1.956,0c1.304,1.305,2.607,2.607,3.828,3.827c1.304,0,2.607,0,3.91,0c0.651,0.654,1.302,1.303,1.953,1.957
	c1.306,0,2.607,0,3.829,0c0.652,0.65,1.302,1.3,1.954,1.953c0.652,0,1.305,0,1.874,0c1.956,1.958,3.909,3.908,5.784,5.787
	c0,0.651,0,1.298,0,1.87c-0.651,0.647-1.305,1.299-1.873,1.957c0,0.653,0,1.298,0,1.953c-0.653,0.654-1.302,1.304-1.956,1.877
	c0,0.648,0,1.297,0,1.953c-1.301,1.302-2.608,2.603-3.83,3.909c0,1.954,0,3.907,0,5.781c-0.65,0.65-1.3,1.302-1.954,1.871
	c0,0.653,0,1.301,0,1.953c-1.3,1.308-2.607,2.606-3.829,3.829c0,0.654,0,1.306,0,1.955c3.909,0,7.738,0,11.566,0
	c0.652,0.652,1.299,1.306,1.872,1.955c8.388,0,16.776,0,25.081,0c0.653-0.649,1.306-1.303,1.958-1.955c0.649,0,1.302,0,1.954,0
	c0-0.649,0-1.301,0-1.955c0.653-0.647,1.305-1.302,1.954-1.87c0.653,0,1.306,0,1.875,0c1.953-1.959,3.908-3.912,5.781-5.783
	c0.653,0,1.304,0,1.957,0c0-0.651,0-1.305,0-1.954c0.652-0.651,1.3-1.305,1.955-1.953c0-3.911,0-7.736,0-11.566l0.996,0.433
	l0.24-0.106l-0.123-0.464L317.723,450.632z"/>
<path id="santacatarina" fill="#03A9AE" stroke="#FFFFFF" d="M325.219,477.44l7.199-0.958l4.345,0.105l6.105,2.272l9.254,1.038
	l2.688,2.563l3.856,0.53l6.549,4.144l9.97,9.826l12.135,1.337l0.029,2.055l-2.897,2.18l-0.106,4.035l-3.035,4.019l2.939-1.125
	l3.748,1.438l6.827-6.67l6.923-5.018l2.375-7.75l0.183-6.508l0.483-9.305l-0.541-3.688l-0.938-0.625v-2l2.958-6.611l-1.521-4.139
	l-8.099,0.83l-5.385,3.004l-4.286-1.552l-4.139-1.033l-5.274,0.314l-2.589-0.831l-3.413,3.52l-1.761,0.412l-2.997,0.313
	l-2.792,1.967l0.826,3.209c0,0-2.301,2.075-3.195,1.848c-0.583-0.148-1.253-2.054-1.253-2.054l-6.925-0.417l-3.105-1.857
	l-5.067-0.725l-4.45-0.828l-3.943,0.089l-3.193-1.642l-2.485,0.518l-3.106,0.127l-1.344,5.376l0.93,4.44L325.219,477.44z"/>
<path id="riograndedosul" fill="#03A9AE" stroke="#FFFFFF" d="M387.998,510.898l-3.748-1.438l-2.939,1.125l3.035-4.019l0.106-4.035
	l2.897-2.18l-0.029-2.055l-12.135-1.337l-9.97-9.826l-6.549-4.144l-3.856-0.53l-2.688-2.563l-9.254-1.038l-6.105-2.272l-4.345-0.105
	l-7.199,0.958l-4.159,2.185l-3.439,2.117l-7.623,2.219l-4.301,4.927l-9.449,5.698l1.125,1.375l-3.15,0.641l-5.975,6.922l-2.75,3.938
	l-2.609,1.479l-3.658,5.383l-4.754,4.348l-2.378,1.553l-0.477,1.801l-4,2.75l3.036,2.064l2.636-0.248l0.05-2.569l6.59-0.247
	l12.42,11.63l0.192,5.099l6.588-7.183l10.73,10.965l5.015,1.56l2.43,3.117l9.75,5.688l4.553,7.646l5.332,2.542l-6.785,7.859
	l0.213,6.828l2.188,0.75l9.813-8.375l3.688-8.063c0,0,3.67-6.886,5.5-8.693c1.971-1.946,9.439-5.804,9.439-5.804l8.848-7.522
	l6.542-8.77l4.983-12.023l3.986-5.862l2.402-3.304L387.998,510.898z"/>
<path id="riodejaneiro" fill="#03A9AE" stroke="#FFFFFF" d="M521.232,385.501l-1.969-1.344l-0.369,0.554l-3.75-0.5l-4.991-1.605
	l-0.826-4.758l-2.392-0.83l-1.13,2.484l-2.687,0.828l-0.31,2.485l-1.451,5.28l-1.923,2.489l1.925,1.129l-12.504,6.102l-3.416-1.136
	l-2.483,0.93l-5.382,0.31l-6.624,2.384l-7.814,2.643l3.73,3.621l2.111-1.49l3.583,0.007l-2.483,4.797l-2.795,0.62l0.694,0.475h3
	l1.584,0.652l1.666-1.026h4.25l2.667,1.443l2.5-1.069l3,0.402l-1.167-2.75l2.084-1.666l3.25,0.666l-2.04,3.203l6.873-0.703
	l8.583,0.848l1.417-2.431l-1-2.833l2.167-2.334c0,0,1.922-1.796,2.666-2.25c1.715-1.046,7.417-3.083,7.417-3.083l3.5-1.917
	l0.024-5.282l-0.844-2.038L521.232,385.501z"/>
<path id="espiritosanto" fill="#03A9AE" stroke="#FFFFFF" d="M540.623,338.696l-7.867-6.562l-1.239,0.825l-1.865-0.415l-2.789,0.21
	l-1.758,1.244l-1.24-0.519l-1.759,0.103l1.656,2.689l-1.45-0.622l-2.174,0.619l-1.952,1.191l-0.625,2.875l2.781,0.587l-0.516,2.793
	l1.034,0.62l0.724,2.485l-2.398-0.235l-1.375-1.375l-0.879,1.918l1.965,1.141l1.969,2.796l1.138,3.415l-0.928,2.896l-3.205,2.085
	v1.538l-0.104,2.482l-2.205,0.979l-0.693,3.675l-5.785,0.312l-1.556,2.584l0.936,1.655l-1.526,4.332l2.392,0.83l0.826,4.758
	l4.991,1.605l3.75,0.5l0.369-0.554l0.989,0.675l1.081-1.872l2.445-4.5l2.656-2l3.375-3.75l1.5-4c0,0,1.055-4.391,1.875-5.625
	c0.911-1.37,4.951-4.336,4.951-4.336l1.924-4.174l-0.217-6.413L540.623,338.696z"/>
<path id="bahia" fill="#03A9AE" stroke="#FFFFFF" d="M444.089,284.376l0.942,1.748l-2.471,3.211l1.228,1.339l4.861-2.276
	l1.786-3.063l2.719,0.076l3.465-2.81l1.316-0.517l8.31-5.69l5.48-1.865l6.211,1.448l-1.626,4.607l5.769,2.632l2.584-1.346
	l3.932-0.412l5.481,2.998l6.618,3.728l3.107,0.725l2.48,0.514l2.175-1.24l6.82,6.304l0.516,3.824l2.374,0.207l3.93-1.549
	l4.863,1.756l2.068-0.203l1.243,1.031h2.277l3.002,2.38l1.655,1.652v2.9l-2.175,2.793l-2.997,2.064l-1.397,3.323l1.5,0.813
	l-1.142,1.14l-2.81-0.409l-0.707,5.473l-1.293,2.152l3.26,3.124l2.689,2.382l0.621,2.793l7.867,6.562l1.797-3.655l4.757-3.931
	l1.137-1.549l0.722-13.646l1.243-6.822l2.699-9.902l-2.601-16.045l1.865-13.232l-0.622-4.135c0,0-1.349-5.378-0.644-6.984
	c0.761-1.734,6.021-4.595,6.021-4.595h2.479l8.173-7.75l7.592-14.794l-4.762,0.826l-3.829-2.482l-2.674-4.871l-1.362-3.402
	l0.421-2.059l2.069-0.313l2.17,0.415l1.863-0.724l-0.416-4.652l1.654-1.032l-1.446-5.171l-2.585-1.447l-0.62-4.858l-0.47-2.476
	l-1.86-0.312l-2.005-4.856l0.106-1.963l-1.86,0.619l-1.139-1.032l0.104-2.069h-0.931l-1.138,2.48l-1.223-2.689l-2.188-0.513
	l-1.654,0.103l-2.999-1.448h-1.032l-0.724-2.174l-2.59,0.106l-3.511,1.447l-0.211,2.172l-2.996,0.62l0.412,1.447l-2.893,2.067
	l-1.551,0.723l-1.654-0.412l-0.517,2.996l-3.723,2.791l-3.31-0.104l1.348-4.546l-2.485-2.482l-1.136-2.479l-3.827-2.068
	l-3.722,1.063l-2.381,2.897l-4.45,4.443l-5.789,0.827l-5.271,3.206l-3.724,1.036l-2.338-2.523l-4.798-0.061l-2.79-2.068
	l-3.831,2.308l-1.748,2.345l2.792,4.654l-0.21,1.961l-1.342,2.073l-1.858,3.72l-2.067,1.036l-0.899,3.211l-3.031-0.212l-1.034-0.826
	l-3.602,0.705l-2.603,2.912l-2.397,1.255l-2.877-0.325l-3.919-2.184l-1.146-2.884l0.206-2.377l-2.586-4.137l-2.121,0.989
	l-0.224,2.251l-2.26,2.3l-4.755,2.894l-0.516,2.586l-3.411,5.894l-2.559,1.659l2.457,3.508l5.896,1.554l-3.104,1.032l-1.249,1.905
	l0.218,1.301l2.895,0.412l-0.112,0.787l-2.988,0.869l-0.208,2.792l1.445,2.997l1.037,1.759l1.14-0.206l-0.107,0.724l-1.858,0.827
	v5.687l2.48-0.31l-2.693,2.147l0.208,4.447l3.31-1.343l-0.313,1.031l-2.374,1.76l0.089,2.652l0.222,2.519l-1.556,1.981l0.5,2.833
	l2.09,1.284l2.997,2.582l0.104,1.452l-0.724,1.137v2.381l-0.417,2.794L444.089,284.376z"/>
<path id="tocantins" fill="#03A9AE" stroke="#FFFFFF" d="M432.435,254.96l-3.434,2.55c0,0-3.261,0.821-4.353,1.075
	c-0.54,0.126-2.169,0.474-2.169,0.474l-3.67-1.974l-0.75,1.875l1.521,2.461l-0.622,1.139l-2.891-2.276l-3.21-1.242l-2.122,0.542
	l1.073-2.5l-4.958,1.855l-0.292-2.105l-1.362,3.348l-0.888,0.027l0.576-3.747l-1.967-1.656l-0.109-1.347l-1.962-1.342l-1.652,2.481
	l-1.343-1.758l-1.344-0.413l-1.969,2.376l-1.137,2.067l-0.204,2.688l-7.89-4.725l-6.378-2.406l0.253-3.469l2.229-3.252l-4.604,2.252
	l-1.375,3.125l0.357,2.128l-1.616-0.785l-1.366-1.947l0.746-3.019l-0.207-5.998l-0.204-4.648l0.31-2.275l-1.138-2.273l1.896-10.954
	l2.999-7.853l2.599-7.832l1.625-4.669l1.878-4.138l3.201-4.379l2.796-3.233l3.618-4.792l2.846-5.216l0.673-5.746l-1.637-0.622
	l-1.75-2l-0.375-2.375l3.043-3.168l0.206-2.17l-0.206-3.205l2.686-1.964l2.377-0.826l2.895-1.135l-0.31-1.406l0.81-1.625
	l1.983-1.729l1.445-0.308l-0.554-2.712l2.415-1.007l-0.414-1.759l1.242-0.724l-0.622-1.861l0.104-1.76l1.239-0.102l1.037-1.86
	l-2.171-1.035l-1.451-2.171l-1.88,1.028l-3.185-1.854l1.685-1.896l1.104-0.587l3.1,0.207l2.171,0.932l2.48-0.415l1.238,0.103
	l1.555,2.273l4.031,1.241l0.945,1.246l0.875,2.625l0.246,3.471l0.129,4.529l0.182,1.881l-0.827,4.236l-0.722,4.134l-1.242,2.893
	l-1.548,1.242l-0.826,0.415l1.134,1.447l1.941,0.104l1.037,1.138l-1.759,1.653l1.13,0.609l2.487,2.596l1.865,2.483l3.209,3.927
	l1.688-2.277h3.074h1.964l1.449,1.344v3.207l-0.52,1.447l-2.17,0.62l-1.862,0.828l-1.345,2.688l-0.623,2.38l-0.412,2.376
	l-2.556,3.104h0.795l3.106,1.551l0.724,3.824h1.652l2.098,2.528l-1.75,2.5l2.547,1.485l0.515,1.344l1.552,4.236h2.374l2.894,0.205
	l4.24,0.932l-0.121,1.215l-2.26,2.3l-4.755,2.894l-0.516,2.586l-3.411,5.894l-2.559,1.659l2.457,3.508l5.896,1.554l-3.104,1.032
	l-1.249,1.905l0.218,1.301l2.895,0.412l-0.112,0.787l-2.988,0.869l-0.208,2.792l1.445,2.997l1.037,1.759l1.14-0.206l-0.107,0.724
	l-1.858,0.827v5.687L432.435,254.96z"/>
<path id="piaui" fill="#03A9AE" stroke="#FFFFFF" d="M526.081,170.602l-1.604-2.137l2.923-1.121l1.991-8.012l-0.935-2.478
	l-3.614-1.139l-1.138-4.137l-1.344-8.063l-0.726-11.169l-5.075-3.635l0.993-6.408l1.088-4.635l-2.331-2.457l-0.259-6.126
	l-1.446-5.792l1.754-3.41l-0.724-2.792l1.376-0.207l-4.889-0.206l-4.031-2.276l-0.102,2.584l-2.171,4.653l-3.509,1.571l-1.251,2.119
	l-3.001,0l-3.03,3.969l-1.827,4.613l-2.891,5.299l1.959,3.697l-1.959,2.803l2,5.75l0.785,2.609l-2.794,3.514l-1.548,3.724
	l0.931,5.789l2.788,2.482c0,0-0.266,5.537-1.444,6.821c-0.603,0.656-3.408,1.036-3.408,1.036l-4.346,1.242l-4.857-2.071
	l-3.932,0.723l-2.585,2.69l-3.929,3.62l-6.203,4.032l-9.458,3.29l-0.89,5.291l-4.038,10.442l-2.483,3.723v5.794l1.661,3.303
	l1.243,0.199l-0.727,3l-1.743,4.997l-0.939,3.314l4.037,0.887l0.103-1.036l2.121-0.989l2.586,4.137l-0.206,2.377l1.146,2.884
	l3.919,2.184l2.877,0.325l2.397-1.255l2.603-2.912l3.602-0.705l1.034,0.826l3.031,0.212l0.899-3.211l2.067-1.036l1.858-3.72
	l1.342-2.073l0.21-1.961l-2.792-4.654l1.748-2.345l3.831-2.308l2.79,2.068l4.798,0.061l2.338,2.523l3.724-1.036l5.271-3.206
	l5.789-0.827l4.45-4.443l2.381-2.897l5.129-5.099l5.155-3.274l2.068-2.067l0.722-4.549l-1.756-0.825L526.081,170.602z"/>
<path id="Ceara" fill="#03A9AE" stroke="#FFFFFF" d="M516.052,109.084l0.259,6.126l2.331,2.457l-1.088,4.635l-0.993,6.408
	l5.075,3.635l0.726,11.169l1.344,8.063l1.138,4.137l3.614,1.139l0.935,2.478l-1.991,8.012l0.127-0.049l3.471-0.34l1.139,0.93
	l4.03-0.62l1.139-0.93l3.719-0.415l4.44,2.898l1.032,2.068v1.244l2.379,0.203l0.436,1.631l1.735,0.232l2.071-1.964l2.036-1.203
	l2.08-3.45l-0.307-3.412l-1.035-0.517l-0.824-3.001l-2.008-1.189l3.361-1.392l0.103-3.621l1.034-2.933v-1.818l2.171-3.101
	l5.483-4.654l0.926-2.897l3.413-5.891l2.068-4.031l5.059-2.065l0.84-0.511l-4.137-2.482l-3.102-2.687l-7.444-7.443l-5.586-4.756
	l-6.719-4.441l-7.337-4.861c0,0-6.782-3.838-9.299-4.336c-2.792-0.552-11.371,0.519-11.371,0.519l-6.889,1.034l0.724,2.792
	l-1.754,3.41L516.052,109.084z"/>
<path id="RioGrandedoNorte" fill="#03A9AE" stroke="#FFFFFF" d="M557.764,150.93l3.712,1.862l2.582,0.309l2.902-1.446l3.202-3.206
	l7.857-2.581l0.827,1.756l-2.169,3.586l-1.758,2.515l-0.623,2.17l2.483,0.312l1.239,2.068l2.585-1.138l2.894-0.103l2.788,2.893
	l2.379-1.549l-0.104-2.791l0.928-1.758l-0.725-1.651l1.965-2.17l1.962,1.653l8.281,1.139l11.481-0.003l-1.864-4.651l-1.654-6.618
	l-2.691-7.544c0,0-2.901-2.129-4.03-2.483c-1.754-0.55-7.339-0.412-7.339-0.412l-8.269-0.105l-6.717-2.479l-3.212-1.447
	l-5.059,2.065l-2.068,4.031l-3.413,5.891l-0.926,2.897l-5.483,4.654l-2.171,3.101v1.818L557.764,150.93z"/>
<path id="Paraiba" fill="#03A9AE" stroke="#FFFFFF" d="M613.288,158.284l-0.833-5.487c0,0-8.618,0.198-11.481,0.003
	c-2.085-0.142-8.281-1.139-8.281-1.139l-1.962-1.653l-1.965,2.17l0.725,1.651l-0.928,1.758l0.104,2.791l-2.379,1.549l-2.788-2.893
	l-2.894,0.103l-2.585,1.138l-1.239-2.068l-2.483-0.312l0.623-2.17l1.758-2.515l2.169-3.586l-0.827-1.756l-7.857,2.581l-3.202,3.206
	l-2.902,1.446l-2.582-0.309l-3.712-1.862l-1.24,3.518l-0.103,3.621l-3.361,1.392l2.008,1.189l0.824,3.001l1.035,0.517l0.307,3.412
	l-2.08,3.45l0.24-0.142l1.658,1.549l3.828-0.724l1.55,2.376l1.757-0.724l2.379-0.207l2.69-1.965l2.999-2.17l2.173-2.376h1.238
	l1.136-1.032l4.033,1.344l0.826,1.548l-2.478,1.448l-0.414,1.552l0.52,1.755l-2.611,1.242l-0.282,1.966l2.275-0.313l0.621,2.174
	l0.409,1.755l2.173,1.344l4.443-2.585l1.493-3.882l1.5-0.46l1.456-0.722l2.997-0.313l3.205,0.21l6.508-2.881l0.5-2.667l3.749-0.969
	l2.381,0.206l4.135,2.175l0.006,0.144l0.699-1.373l0.104-3.929L613.288,158.284z"/>
<path id="Pernambuco" fill="#03A9AE" stroke="#FFFFFF" d="M614.242,169.543l-4.135-2.175l-2.381-0.206l-3.749,0.969
	c0,0-0.079,2.135-0.5,2.667c-1.104,1.395-6.508,2.881-6.508,2.881l-3.205-0.21l-2.997,0.313l-1.456,0.722l-1.5,0.46l-1.493,3.882
	l-4.443,2.585l-2.173-1.344l-0.409-1.755l-0.621-2.174l-2.275,0.313l0.282-1.966l2.611-1.242l-0.52-1.755l0.414-1.552l2.478-1.448
	l-0.826-1.548l-4.033-1.344l-1.136,1.032h-1.238l-2.173,2.376l-2.999,2.17l-2.69,1.965l-2.379,0.207l-1.757,0.724l-1.55-2.376
	l-3.828,0.724l-1.658-1.549l-2.276,1.345l-2.071,1.964l-1.735-0.232l-0.436-1.631l-2.379-0.203v-1.244l-1.032-2.068l-4.44-2.898
	l-3.719,0.415l-1.139,0.93l-4.03,0.62l-1.139-0.93l-3.471,0.34l-3.05,1.17l1.604,2.137l-0.414,2.48l1.756,0.825l-0.722,4.549
	l-2.068,2.067l-5.155,3.274l-5.129,5.099l3.722-1.063l3.827,2.068l1.136,2.479l2.485,2.482l-1.348,4.546l3.31,0.104l3.723-2.791
	l0.517-2.996l1.654,0.412l1.551-0.723l2.893-2.067l-0.412-1.447l2.996-0.62l0.211-2.172l3.511-1.447l2.59-0.106l0.724,2.174h1.032
	l2.999,1.448l1.654-0.103l2.188,0.513l1.223,2.689l1.138-2.48h0.931l-0.104,2.069l1.139,1.032l1.86-0.619l-0.106,1.963l1.169,2.832
	l4.626-3.142l2.626-4.344l2.337,3.104l3.103,0.415l5.376,4.134l2.169,0.514l2.482-1.032l2.17,0.827l4.864-2.266l2.793-3.001
	l4.452-2.067l1.921-0.627l3.461,0.216l2.205-0.216l2.967,0.836l-0.523,0.9l0.523-0.526l1.235-4.512l1.967-6.306l1.137-5.682
	L614.242,169.543z"/>
<path id="Alagoas" fill="#03A9AE" stroke="#FFFFFF" d="M607.143,189.587l-2.205,0.216l-3.461-0.216l-1.921,0.627l-4.452,2.067
	l-2.793,3.001c0,0-3.523,2.217-4.864,2.266c-0.58,0.021-2.17-0.827-2.17-0.827l-2.482,1.032l-2.169-0.514l-5.376-4.134l-3.103-0.415
	l-2.337-3.104l-2.626,4.344l-4.626,3.142l0.836,2.025l1.86,0.312l0.263,1.384l3.62,0.985l4.34,1.044l6.102,4.023l3.825,3.617
	l4.654,2.688l2.685,2.79l1.874-3.503l4.136-4.239l4.653-5.791l6.724-8.579l1.98-3.406L607.143,189.587z"/>
<path id="Sergipe" fill="#03A9AE" stroke="#FFFFFF" d="M588.058,213.151c0,0-3.577-1.885-4.654-2.688
	c-1.055-0.787-3.825-3.617-3.825-3.617l-6.102-4.023l-4.34-1.044l-3.62-0.985l0.207,1.092l0.62,4.858l2.585,1.447l1.446,5.171
	l-1.654,1.032l0.416,4.652l-1.863,0.724l-2.17-0.415l-2.069,0.313l-0.421,2.059l1.362,3.402l2.674,4.871l3.829,2.482l4.762-0.826
	l-0.581,1.132l2.955-4.44l4.031-5.996l4.556-4.89l4.541-1.52L588.058,213.151z"/>
<path id="Maranhao" fill="#03A9AE" stroke="#FFFFFF" d="M444.394,211.025l0.939-3.314l1.743-4.997l0.727-3l-1.243-0.199
	l-1.661-3.303v-5.794l2.483-3.723l4.038-10.442l0.89-5.291l9.458-3.29l6.203-4.032l3.929-3.62l2.585-2.69l3.932-0.723l4.857,2.071
	l4.346-1.242c0,0,2.806-0.379,3.408-1.036c1.179-1.284,1.444-6.821,1.444-6.821l-2.788-2.482l-0.931-5.789l1.548-3.724l2.794-3.514
	l-0.785-2.609l-2-5.75l1.959-2.803l-1.959-3.697l2.891-5.299l1.827-4.613l3.03-3.969l3.001,0l1.251-2.119l3.509-1.571l2.171-4.653
	l0.102-2.584l-6.031-0.921l-4.339-0.206l-6.718-3.103l-4.111-1.903l-4.156,0.144l-1.139-1.963l-4.959,2.999l-1.343,1.755
	l-1.653-2.067l-2.069,0.933l-2.17-0.311l-0.726-0.723l-0.413-3.413l-2.899-5.276l-3.307-0.41l-0.081-2.277l-1.666-1.534
	l-2.783-1.046l-3.417,2.58l-2.278-4.34l-3.001-1.55l-4.438-1.478l-1.533-0.282l-0.104,2.688l-0.514,3.514l-1.6,1.08l-1.333,0.833
	l0.346,0.775l1.448,0.517l-0.724,4.136l-2.381,2.893l-0.103,3.723l-2.815,2.587l-0.31,3.2l-1.451,4.236l-3.727,6.203l-3.617,8.063
	l-3.667,3l-2.34,5.272l-2.66-0.438l-6.414,6.216l-5.837,4.7l1.104-0.587l3.1,0.207l2.171,0.932l2.48-0.415l1.238,0.103l1.555,2.273
	l4.031,1.241l0.945,1.246l0.875,2.625l0.246,3.471l0.129,4.529l0.182,1.881l-0.827,4.236l-0.722,4.134l-1.242,2.893l-1.548,1.242
	l-0.826,0.415l1.134,1.447l1.941,0.104l1.037,1.138l-1.759,1.653l1.13,0.609l2.487,2.596l1.865,2.483l3.209,3.927l1.688-2.277h3.074
	h1.964l1.449,1.344v3.207l-0.52,1.447l-2.17,0.62l-1.862,0.828l-1.345,2.688l-0.623,2.38l-0.412,2.376l-2.556,3.104h0.795
	l3.106,1.551l0.724,3.824h1.652l2.098,2.528l-1.75,2.5l2.547,1.485l0.515,1.344l1.552,4.236h2.374l2.894,0.205l1.465,0.322
	L444.394,211.025z"/>
<path id="Para" fill="#03A9AE" stroke="#FFFFFF" d="M439.858,68.254l-9.521-3.306l-4.556-2.688l-8.047-1.136
	c0,0-2.711,0.611-3.621,0.519c-1.911-0.192-7.233-2.584-7.233-2.584l-0.003-4.241h-6.407l-5.456-2.808l-3.126-1.841l-3.205-4.342
	h-7.372l0.995-4.759l-1.654-0.929l-4.135,2.688l-4.199,5.381l-5.308,4.335L361.81,55.8l-4.75,7.91v3.917l-3.593,1.764l-6.02,0.621
	l-1.422-5.562l-0.622-3.515l-2.894-2.48l-3.001-4.858l-3.927-8.685V40.96l-3.928-4.629l0.207-3.309l-4.449-4.032L321,26.82
	l-9.416-4.345l-2.205-4.874l1.17-2.982l-4.858-3.723l-6.88,1.315l-6.297-0.28l-1.687,2.28l2.733,4.5l-1.8,3.419l-9.281-0.999
	l-3.669,0.33l-5.263-0.646l-4.516,3.032l-5.971,1.364l-3.659,1.5l-4.771,1.546l-1.748,3.104l-4.035,1.242l-0.216,20.771l1.554,4.237
	l3.721,6.72l2.436,4.136l3.103,1.959l2.067-1.862l1.298,0.899l-0.369,3.442l6.205,3.516l8.583,4.76l1.964,1.654h3.116l1.5,3.129
	l6.244-2.717l-4.132,4.653l-28.114,64.801l-3.101,3.203l1.758,4.754l2.55,6.006l0.241-0.63l7.653,13.542l1.135,8.272l1.656,1.034
	l6.408,6.308l5.999,3.101l97.812,7.026l-0.109,0.315l1.625-4.669l1.878-4.138l3.201-4.379l2.796-3.233l3.618-4.792l2.846-5.216
	l0.673-5.746l-1.637-0.622l-1.75-2l-0.375-2.375l3.043-3.168l0.206-2.17l-0.206-3.205l2.686-1.964l2.377-0.826l2.895-1.135
	l-0.31-1.406l0.81-1.625l1.983-1.729l1.445-0.308l-0.554-2.712l2.415-1.007l-0.414-1.759l1.242-0.724l-0.622-1.861l0.104-1.76
	l1.239-0.102l1.037-1.86l-2.171-1.035l-1.451-2.171l-1.88,1.028l-3.185-1.854l1.685-1.896l5.837-4.7l6.414-6.216l2.66,0.438
	l2.34-5.272l3.667-3l3.617-8.063l3.727-6.203l1.451-4.236l0.31-3.2l2.815-2.587l0.103-3.723l2.381-2.893l0.724-4.136l-1.448-0.517
	l-0.346-0.775l1.333-0.833l1.6-1.08l0.514-3.514l0.093-2.418L439.858,68.254z"/>
<path id="Amapa" fill="#03A9AE" stroke="#FFFFFF" d="M310.549,14.619l-1.17,2.982l2.205,4.874L321,26.82l6.413,2.17l4.449,4.032
	l-0.207,3.309l3.928,4.629v3.953l3.927,8.685l3.001,4.858l2.894,2.48l0.622,3.515l1.422,5.562l6.02-0.621l3.593-1.764V63.71
	l4.75-7.91l5.199-3.255l5.308-4.335l4.199-5.381l4.135-2.688l0.495,0.278l2.617-3.785c0,0,1.6-4.686,1.548-6.309
	c-0.058-1.813-2.173-6.924-2.173-6.924l-3.101-0.518l-3.721-6.305h-4.507l-3.75-9.618l-0.946-13.536l-1.24-4.032l-5.926-7.539
	l-1.638,6.107l-3.269,3.489l-6.136,10.172l-4.131,8.653l-5.937,5.681l-5.278,0.255l-1.144-1.589l-4.603,0.333l-2.348-2.672
	l-0.906,1.929l-6,2.5l-7.757-3.844l-1.52,0.783L310.549,14.619z"/>
<path id="Amazonas" fill="#03A9AE" stroke="#FFFFFF" d="M285.922,87.896l4.132-4.653l-6.244,2.717l-1.5-3.129h-3.116l-1.964-1.654
	l-8.583-4.76l-6.205-3.516l0.369-3.442l-1.298-0.899l-2.067,1.862l-3.103-1.959l-2.436-4.136l-3.721-6.72l-1.554-4.237l0.059-5.684
	l-17.975-0.078l-2.791,5.376l-2.485,6.825l1.347,2.274c0,0-3.607,1.73-4.915,1.875c-0.557,0.062-2.218-0.323-2.218-0.323
	l-2.069-3.339l-5.947-0.104l-3.618,2.896l-0.62,5.477l-0.311,4.136l1.652,3.206l-4.232-3.002l-2.17-0.514l-3.103-4.552l-6.001-5.478
	l3-2.068l1.035-4.446l-2.791-7.34l-1.443-6.5l0.722-6.722l-4.652-8.787l0.313-1.653l0.826-3.103l-3.309-2.376l-3.296-2.107
	l-0.427-0.273l-3.41-0.094l-9.493,4.568l-0.807-0.32l-1.687,5.364l-2.482,3.308l-0.206-2.478l-5.583,4.237l-1.345-1.036
	l-2.479,2.276l-2.793,0.723l-0.207,2.79l-2.686,0.827l-1.241,2.896h-2.273l0.827-3.41l-1.963-1.347l-2.478,0.932l-3.722,2.376
	l-3.493,0.61l-8.185-6.85l-4.032,0.557l0.207-5.271l-0.929-5.063l-1.656-0.518l0.473-3.636c-0.003-0.002-0.005-0.005-0.008-0.008
	l-3.559-1.837l-1.344,0.724l-1.759,2.169l-1.963-0.205l-2.375,3.2l-3.516-2.478l-2.176,2.22l2.384,1.605
	c0,0-14.095,0.986-18.707,0.205c-0.677-0.115-2.584-0.933-2.584-0.933l-4.441,1.138l-0.844,10.318l4.769-0.396h3.413l2.685,2.585
	l-0.103,4.236l-2.274,0.207l-1.861-1.446l-3.41,1.241l-5.374,1.445L78.42,54.205l6.718,5.579v3.41l2.169,3.205l0.621,3.822
	l-0.102,2.896l-8.785,46.195l-2.585,0.103l-1.137-0.412l-1.652-2.379l-2.79-0.308l-1.531,0.515l-5.912,3.414l-7.234,0.723
	l-11.37,5.062l-8.473,5.374l-3.205,9.713l-3.204,5.374l0.414,7.65l-7.753,4.857l-0.416,4.15l4.118,1.813l12.41,5.956l35.669,7.294
	l25.575,14.435l26.846,12.065l5.662-2.616l0.588-3.134l6.958-0.172l3.518,2.583l1.758-1.863l3.413,0.313l-0.207-2.376l3.103-0.929
	l1.958,2.689l2.799-3l0.618-3.311l7.833-0.433l3.025-0.598l0.824-3.825l2.171-2.172l0.518-3l2.792-1.342l1.42-5.271l12.739,0.412
	l2.585,3.207l2.173,2.892l3.832,2.998l2.996,3.516l2.585,1.241l2.688-2.897l2.317,2.074l0.059-0.315l48.338-0.41l1.572-10.525
	l-1.237-4.448l2.809-7.334l-2.55-6.006l-1.758-4.754l3.101-3.203L285.922,87.896z"/>
<path id="Roraima" fill="#03A9AE" stroke="#FFFFFF" d="M249.916,32.273l-0.504-0.824l-1.187,0.423l-2.687-1.549l-5.169-3.513
	l-2.375-2.893l-1.45-1.24l-1.135-4.344l-0.516-3.098l-2.169-3.205l-1.139-4.857l1.758-7.441l0.206-4.754l4.445-4.86l0.621-1.238
	l-1.449-2.275l-1.549-1.134l0.621-2.79l-3.205-1.655l-4.133-1.137l2.065-3.098l0.517-3.723l-1.652-3.41l-1.86-1.138l-2.688,0.933
	l-3.205-0.207l-0.619,1.755l0.416,3.205l-2.482,2.375l-2.272,2.067l-1.656,1.553l-3.411-0.103l-0.826,1.343l-2.482,0.514
	l-1.861,2.38c0,0-3.534,1.336-4.751,1.652c-1.016,0.264-4.135,0.724-4.135,0.724l-4.032-1.134l-1.238,1.857l-2.999-0.515
	l-0.724,2.479l0.724,3.928l-1.031-0.723l-2.794,1.861l-3.099-3.102l-0.208-2.17l-3.617,0.207l-0.62,1.036l-1.032,0.103l-1.861-2.375
	l-0.103,1.756l-4.343,1.35l-2.271-4.243l-6.72-0.206l-3.41-2.896l-1.396,1.676l5.632,5.765l4.857,3.928l-1.135,2.378l0.308,4.652
	l2.584,2.79l1.241,3.928l-1.138,2.894l5.686,1.754l3.718-0.827l0.723,0.518l0.034,1.135l0.166,2.38l3.314,0.092l0.427,0.273
	l3.296,2.107l3.309,2.376l-0.826,3.103l-0.313,1.653l4.652,8.787l-0.722,6.722l1.443,6.5l2.791,7.34l-1.035,4.446l-3,2.068
	l6.001,5.478l3.103,4.552l2.17,0.514l4.232,3.002l-1.652-3.206l0.311-4.136l0.62-5.477l3.618-2.896l5.947,0.104l2.069,3.339
	l2.218,0.323l4.915-1.875l-1.347-2.274l2.485-6.825l2.791-5.376l17.975,0.078l0.157-15.087L249.916,32.273z"/>
<path id="Acre" fill="#03A9AE" stroke="#FFFFFF" d="M126.81,204.71l-26.846-12.065c0,0-18.698-11.864-25.575-14.435
	c-8.525-3.187-35.669-7.294-35.669-7.294l-12.41-5.956l-4.068-1.791l-0.055,0.034l-0.303,3.029l-3.41,3.72l3.925,3.348l0.002,2.958
	l4.96,7.545l4.754,5.785l2.276,2.688l-3.928,6.41l7.75,0.826l6.097,2.38l1.553,4.959l12.298,1.344l7.34-4.548l5.374-3.205
	l-0.519,4.241l-0.62,19.118l5.995,0.826l5.58-1.858l3.411,0.411l0.002-0.001l10.439,0.517l5.166,2.068l5.789-2.79l2.481-4.237
	l5.888-1.137l5.994-4.445l10.026-6.2l0.543-0.154L126.81,204.71z"/>
<rect x="-0.001" y="-36.851" fill="none" stroke="#BABABA" stroke-width="3" width="623.622" height="623.622"/>
</svg>
