<?xml version="1.0" encoding="utf-8"?>
<!-- Generator: Adobe Illustrator 16.0.0, SVG Export Plug-In . SVG Version: 6.00 Build 0)  -->
<!DOCTYPE svg PUBLIC "-//W3C//DTD SVG 1.1//EN" "http://www.w3.org/Graphics/SVG/1.1/DTD/svg11.dtd">
<svg version="1.1" id="Layer_1" xmlns="http://www.w3.org/2000/svg" xmlns:xlink="http://www.w3.org/1999/xlink" x="0px" y="0px"
	 width="17.638px" height="7.287px" viewBox="0 0 17.638 7.287" enable-background="new 0 0 17.638 7.287" xml:space="preserve">
<g>
	<path fill="#CDA146" d="M16.482,5.62c0,0.503-0.396,0.909-0.885,0.909H2.041c-0.488,0-0.885-0.406-0.885-0.909V5.519
		c0-0.503,0.396-0.909,0.885-0.909h13.557c0.489,0,0.885,0.406,0.885,0.909V5.62z"/>
	<path fill="#FFFFFF" d="M3.502,5.876c0,0.019,0.001,0.034,0.004,0.048s0.005,0.024,0.009,0.034c0.003,0.01,0.009,0.018,0.017,0.024
		C3.54,5.988,3.547,5.993,3.553,5.997S3.569,6.004,3.58,6.006C3.592,6.009,3.602,6.01,3.61,6.011
		c0.008,0.001,0.02,0.001,0.035,0.001c0.007,0.005,0.011,0.013,0.011,0.025S3.652,6.059,3.645,6.063c-0.082,0-0.164,0-0.247,0
		c-0.075,0-0.153,0-0.234,0C3.156,6.059,3.152,6.05,3.152,6.037s0.003-0.021,0.011-0.025c0.017,0,0.03,0,0.039-0.001
		c0.009-0.001,0.02-0.004,0.031-0.007c0.011-0.003,0.02-0.008,0.025-0.013C3.264,5.985,3.27,5.978,3.275,5.967
		c0.005-0.01,0.009-0.022,0.012-0.037C3.289,5.915,3.29,5.897,3.29,5.876v-0.61c0-0.025-0.001-0.047-0.004-0.063
		S3.279,5.174,3.274,5.164C3.269,5.153,3.261,5.146,3.249,5.142C3.236,5.136,3.224,5.133,3.211,5.131
		C3.199,5.13,3.181,5.129,3.157,5.129C3.152,5.124,3.15,5.116,3.15,5.103c0-0.013,0.002-0.021,0.007-0.025h0.235h0.457
		c0.027,0,0.052-0.001,0.075-0.004c0.004,0,0.006,0.001,0.006,0.004c0.001,0.003,0.002,0.02,0.004,0.048
		C3.936,5.154,3.938,5.188,3.94,5.224c0.003,0.037,0.005,0.064,0.007,0.082C3.93,5.314,3.908,5.317,3.882,5.313
		c-0.009-0.03-0.018-0.055-0.026-0.072C3.847,5.223,3.836,5.206,3.823,5.189s-0.03-0.028-0.049-0.036
		C3.754,5.146,3.73,5.143,3.703,5.143H3.565c-0.017,0-0.032,0.008-0.044,0.023C3.509,5.181,3.502,5.198,3.502,5.217v0.318h0.124
		c0.053,0,0.089-0.006,0.108-0.018c0.019-0.013,0.029-0.039,0.031-0.079C3.77,5.434,3.781,5.432,3.798,5.432
		c0.018,0,0.028,0.002,0.033,0.007C3.829,5.499,3.828,5.542,3.828,5.569c0,0.018,0.001,0.063,0.003,0.135
		C3.826,5.708,3.815,5.711,3.798,5.711c-0.017,0-0.028-0.003-0.033-0.007C3.763,5.668,3.751,5.644,3.732,5.629
		c-0.02-0.016-0.055-0.022-0.106-0.022H3.502V5.876z"/>
	<path fill="#FFFFFF" d="M4.745,5.351L4.745,5.351c0-0.036-0.004-0.067-0.012-0.095S4.714,5.207,4.701,5.191
		C4.688,5.175,4.673,5.162,4.655,5.152c-0.018-0.009-0.036-0.016-0.053-0.02C4.585,5.13,4.566,5.128,4.547,5.128
		c-0.04,0-0.064,0.009-0.075,0.027C4.461,5.173,4.456,5.209,4.456,5.263v0.304h0.065c0.028,0,0.053-0.002,0.073-0.005
		c0.02-0.003,0.041-0.009,0.061-0.018s0.036-0.021,0.048-0.037c0.013-0.016,0.023-0.036,0.03-0.063
		C4.741,5.418,4.745,5.387,4.745,5.351 M4.596,5.07c0.114,0,0.199,0.017,0.254,0.05c0.043,0.024,0.073,0.057,0.091,0.094
		c0.017,0.038,0.026,0.075,0.026,0.113c0,0.037-0.005,0.07-0.015,0.102C4.941,5.459,4.928,5.484,4.91,5.506
		C4.892,5.526,4.874,5.544,4.854,5.558c-0.02,0.015-0.041,0.025-0.063,0.034l0.207,0.32c0.023,0.035,0.045,0.061,0.066,0.076
		c0.021,0.017,0.048,0.024,0.08,0.024c0.003,0.006,0.005,0.015,0.005,0.026c0,0.013-0.001,0.021-0.003,0.025
		C5.13,6.072,5.078,6.076,4.991,6.076c-0.042,0-0.079-0.012-0.111-0.037C4.848,6.015,4.817,5.981,4.79,5.941L4.611,5.676
		C4.603,5.663,4.595,5.653,4.587,5.647C4.58,5.643,4.565,5.638,4.545,5.635c-0.02-0.003-0.05-0.005-0.09-0.005v0.246
		c0,0.021,0.001,0.039,0.003,0.054S4.464,5.957,4.47,5.967c0.005,0.011,0.011,0.019,0.017,0.024c0.005,0.005,0.014,0.01,0.025,0.013
		S4.534,6.01,4.543,6.011s0.022,0.001,0.039,0.001c0.007,0.005,0.011,0.013,0.011,0.025S4.589,6.059,4.582,6.063
		c-0.081,0-0.158,0-0.231,0c-0.075,0-0.153,0-0.235,0C4.108,6.059,4.104,6.05,4.104,6.037s0.004-0.021,0.011-0.025
		c0.017,0,0.03,0,0.039-0.001c0.009-0.001,0.02-0.004,0.031-0.007c0.012-0.003,0.02-0.008,0.025-0.013
		c0.005-0.006,0.011-0.014,0.017-0.024c0.006-0.01,0.01-0.022,0.012-0.037s0.003-0.032,0.003-0.054V5.265
		c0-0.021-0.001-0.039-0.003-0.054C4.237,5.195,4.233,5.184,4.228,5.173c-0.005-0.01-0.011-0.018-0.017-0.023
		S4.197,5.14,4.186,5.137C4.174,5.133,4.164,5.131,4.155,5.13C4.146,5.129,4.132,5.129,4.116,5.129
		C4.108,5.124,4.104,5.114,4.104,5.1S4.108,5.075,4.116,5.07c0.021,0,0.1,0,0.24,0C4.496,5.07,4.576,5.07,4.596,5.07z"/>
	<path fill="#FFFFFF" d="M5.636,5.63L5.636,5.63h0.231L5.744,5.27H5.733L5.598,5.61C5.595,5.617,5.596,5.623,5.602,5.626
		S5.62,5.63,5.636,5.63 M5.472,5.941C5.469,5.948,5.467,5.955,5.467,5.962c0,0.007,0.001,0.012,0.003,0.017
		C5.473,5.982,5.476,5.986,5.479,5.99s0.008,0.007,0.015,0.009l0.018,0.006c0.005,0.002,0.012,0.003,0.021,0.004
		C5.542,6.01,5.549,6.011,5.555,6.011C5.56,6.012,5.567,6.012,5.577,6.012c0.004,0.005,0.007,0.013,0.007,0.025
		S5.581,6.059,5.577,6.063c-0.075,0-0.143,0-0.202,0c-0.021,0-0.068,0-0.144,0C5.226,6.059,5.224,6.05,5.224,6.037
		s0.002-0.021,0.007-0.026C5.25,6.01,5.266,6.008,5.278,6.006c0.011-0.003,0.024-0.007,0.038-0.014
		C5.33,5.985,5.342,5.975,5.353,5.96c0.011-0.014,0.021-0.032,0.031-0.055l0.331-0.779c0.034,0,0.09-0.022,0.168-0.067L6.196,5.93
		C6.202,5.947,6.21,5.962,6.219,5.973C6.227,5.983,6.238,5.991,6.25,5.996s0.023,0.009,0.033,0.01
		c0.009,0.002,0.023,0.004,0.04,0.005c0.004,0.001,0.008,0.001,0.011,0.001c0.004,0.005,0.006,0.013,0.006,0.025
		S6.337,6.059,6.333,6.063c-0.076,0-0.144,0-0.204,0c-0.099,0-0.186,0-0.261,0C5.863,6.059,5.861,6.05,5.861,6.037
		s0.002-0.021,0.006-0.026c0.006,0,0.014,0,0.023,0s0.017,0,0.022,0s0.012-0.001,0.02-0.002c0.008,0,0.014-0.001,0.018-0.002
		c0.005-0.001,0.009-0.003,0.014-0.005s0.009-0.004,0.011-0.007s0.005-0.006,0.006-0.01c0.002-0.004,0.002-0.008,0.002-0.014
		S5.983,5.96,5.981,5.953L5.895,5.704H5.606c-0.018,0-0.03,0.001-0.038,0.005C5.562,5.712,5.556,5.72,5.552,5.729L5.472,5.941z"/>
	<path fill="#FFFFFF" d="M7.37,6.062C7.355,6.069,7.342,6.074,7.33,6.076C7.318,6.079,7.299,6.08,7.274,6.08
		c-0.021-0.02-0.041-0.042-0.061-0.067l-0.51-0.606c-0.018-0.021-0.03-0.03-0.037-0.03c-0.008,0-0.012,0.01-0.012,0.03v0.452
		c0,0.023,0,0.043,0.002,0.059c0.001,0.016,0.004,0.028,0.009,0.04c0.005,0.012,0.01,0.02,0.015,0.025
		c0.005,0.006,0.013,0.011,0.026,0.015c0.012,0.005,0.023,0.008,0.034,0.009c0.01,0.002,0.026,0.003,0.047,0.005
		c0.004,0.005,0.007,0.014,0.007,0.026S6.791,6.059,6.787,6.063c-0.101,0-0.158,0-0.17,0c-0.015,0-0.072,0-0.171,0
		C6.44,6.059,6.438,6.05,6.438,6.037S6.44,6.016,6.445,6.011c0.021-0.002,0.036-0.003,0.047-0.005s0.022-0.005,0.034-0.009
		c0.012-0.005,0.02-0.01,0.025-0.016s0.01-0.015,0.015-0.026c0.005-0.011,0.008-0.024,0.009-0.039
		C6.577,5.9,6.578,5.881,6.578,5.858V5.224C6.573,5.201,6.559,5.18,6.537,5.159c-0.022-0.02-0.049-0.03-0.079-0.03
		C6.453,5.125,6.451,5.116,6.451,5.104s0.002-0.021,0.007-0.026h0.248l0.136,0.16l0.404,0.477c0.008,0.009,0.015,0.015,0.02,0.019
		c0.006,0.003,0.011,0.003,0.015,0c0.004-0.004,0.006-0.012,0.006-0.024V5.279c0-0.018,0-0.033-0.001-0.046
		C7.285,5.221,7.283,5.209,7.28,5.198C7.278,5.188,7.275,5.18,7.273,5.173C7.271,5.166,7.266,5.16,7.26,5.155
		c-0.006-0.006-0.012-0.01-0.017-0.012C7.238,5.141,7.23,5.138,7.219,5.135C7.208,5.133,7.198,5.131,7.19,5.13
		C7.182,5.129,7.17,5.128,7.153,5.126C7.149,5.122,7.147,5.113,7.147,5.101c0-0.014,0.002-0.021,0.006-0.023c0.101,0,0.16,0,0.177,0
		c0.01,0,0.065,0,0.164,0C7.5,5.082,7.501,5.091,7.501,5.104S7.5,5.125,7.495,5.129C7.474,5.131,7.458,5.133,7.448,5.135
		S7.426,5.14,7.414,5.144c-0.012,0.005-0.021,0.01-0.025,0.016c-0.005,0.006-0.01,0.015-0.015,0.025
		C7.369,5.196,7.366,5.21,7.364,5.225C7.363,5.239,7.362,5.259,7.362,5.282v0.624L7.37,6.062z"/>
	<path fill="#FFFFFF" d="M8.202,6.076c-0.153,0-0.274-0.031-0.364-0.096C7.779,5.938,7.734,5.88,7.702,5.807
		C7.669,5.731,7.653,5.657,7.653,5.582c0-0.082,0.015-0.156,0.044-0.223c0.029-0.067,0.069-0.122,0.12-0.166
		c0.05-0.043,0.108-0.076,0.175-0.1C8.058,5.07,8.128,5.059,8.203,5.059c0.055,0,0.104,0.005,0.147,0.016
		c0.043,0.011,0.081,0.021,0.112,0.033s0.056,0.019,0.074,0.021c0.019,0.115,0.03,0.193,0.034,0.235
		c-0.009,0.005-0.02,0.008-0.032,0.01C8.526,5.375,8.515,5.374,8.505,5.371C8.496,5.343,8.487,5.316,8.477,5.295
		C8.467,5.272,8.454,5.25,8.437,5.228C8.42,5.205,8.401,5.187,8.379,5.172S8.33,5.146,8.297,5.137
		c-0.033-0.01-0.069-0.014-0.11-0.014c-0.059,0-0.112,0.019-0.158,0.058S7.946,5.271,7.921,5.337
		C7.896,5.401,7.883,5.474,7.883,5.553c0,0.078,0.014,0.151,0.042,0.22S7.991,5.896,8.04,5.937C8.089,5.978,8.143,5.998,8.2,5.998
		c0.13,0,0.243-0.054,0.338-0.159c0.008,0,0.018,0.004,0.028,0.011c0.01,0.008,0.018,0.015,0.022,0.021
		C8.537,5.938,8.478,5.989,8.412,6.024S8.276,6.076,8.202,6.076"/>
	<path fill="#FFFFFF" d="M9.592,5.265c0-0.021-0.001-0.039-0.003-0.054C9.587,5.195,9.583,5.184,9.578,5.173
		c-0.005-0.01-0.011-0.018-0.017-0.023S9.547,5.14,9.536,5.137C9.524,5.133,9.514,5.131,9.505,5.13S9.482,5.129,9.466,5.129
		C9.458,5.124,9.455,5.116,9.455,5.103c0-0.013,0.004-0.021,0.011-0.025c0.081,0,0.16,0,0.234,0c0.073,0,0.151,0,0.232,0
		C9.94,5.082,9.943,5.09,9.943,5.103c0,0.014-0.003,0.021-0.011,0.026c-0.017,0-0.03,0-0.039,0.001s-0.02,0.003-0.031,0.007
		C9.851,5.14,9.842,5.144,9.837,5.149S9.826,5.163,9.82,5.173c-0.006,0.011-0.01,0.022-0.012,0.038
		C9.807,5.226,9.806,5.243,9.806,5.265v0.611c0,0.021,0.001,0.039,0.003,0.054S9.814,5.957,9.82,5.967
		c0.006,0.011,0.011,0.019,0.017,0.024c0.005,0.005,0.014,0.01,0.025,0.013S9.884,6.01,9.893,6.011s0.022,0.001,0.039,0.001
		C9.94,6.017,9.943,6.024,9.943,6.037S9.94,6.059,9.932,6.063c-0.081,0-0.159,0-0.232,0c-0.075,0-0.153,0-0.234,0
		C9.458,6.059,9.455,6.05,9.455,6.037s0.004-0.021,0.011-0.025c0.017,0,0.03,0,0.039-0.001s0.02-0.004,0.031-0.007
		s0.02-0.008,0.025-0.013c0.005-0.006,0.011-0.014,0.017-0.024c0.006-0.01,0.01-0.022,0.012-0.037s0.003-0.032,0.003-0.054v-0.3
		H9.12v0.3c0,0.021,0.001,0.039,0.003,0.054c0.002,0.015,0.005,0.027,0.011,0.037C9.14,5.978,9.146,5.985,9.151,5.991
		c0.006,0.005,0.014,0.01,0.025,0.013S9.198,6.01,9.207,6.011s0.022,0.001,0.039,0.001c0.007,0.005,0.011,0.013,0.011,0.025
		S9.253,6.059,9.246,6.063c-0.081,0-0.158,0-0.231,0c-0.075,0-0.153,0-0.235,0C8.772,6.059,8.769,6.05,8.769,6.037
		S8.772,6.017,8.78,6.012c0.017,0,0.03,0,0.039-0.001s0.02-0.004,0.031-0.007c0.012-0.003,0.02-0.008,0.025-0.013
		C8.88,5.985,8.886,5.978,8.892,5.967c0.006-0.01,0.01-0.022,0.012-0.037s0.003-0.032,0.003-0.054V5.265
		c0-0.021-0.001-0.039-0.003-0.054C8.901,5.195,8.897,5.184,8.892,5.173C8.886,5.163,8.88,5.155,8.875,5.149S8.861,5.14,8.85,5.137
		C8.838,5.133,8.828,5.131,8.819,5.13S8.796,5.129,8.78,5.129C8.772,5.124,8.769,5.116,8.769,5.103c0-0.013,0.004-0.021,0.011-0.025
		c0.082,0,0.16,0,0.235,0c0.073,0,0.15,0,0.231,0C9.253,5.082,9.257,5.09,9.257,5.103c0,0.014-0.004,0.021-0.011,0.026
		c-0.017,0-0.03,0-0.039,0.001s-0.02,0.003-0.031,0.007C9.165,5.14,9.157,5.144,9.151,5.149C9.146,5.155,9.14,5.163,9.134,5.173
		C9.128,5.184,9.125,5.195,9.123,5.211C9.121,5.226,9.12,5.243,9.12,5.265v0.237h0.473V5.265z"/>
	<path fill="#FFFFFF" d="M10.249,5.265c0-0.021-0.001-0.039-0.003-0.054c-0.002-0.016-0.006-0.027-0.012-0.038
		c-0.006-0.01-0.011-0.018-0.017-0.023s-0.014-0.01-0.025-0.013c-0.011-0.004-0.022-0.006-0.031-0.007
		c-0.009-0.001-0.022-0.001-0.039-0.001c-0.007-0.005-0.011-0.013-0.011-0.026c0-0.013,0.004-0.021,0.011-0.025
		c0.081,0,0.16,0,0.235,0c0.073,0,0.15,0,0.231,0C10.596,5.082,10.6,5.09,10.6,5.103c0,0.014-0.003,0.021-0.011,0.026
		c-0.017,0-0.03,0-0.039,0.001s-0.02,0.003-0.031,0.007c-0.011,0.003-0.02,0.007-0.025,0.013s-0.011,0.014-0.017,0.023
		c-0.006,0.011-0.01,0.022-0.012,0.038c-0.002,0.015-0.003,0.032-0.003,0.054v0.611c0,0.021,0.001,0.039,0.003,0.054
		s0.006,0.027,0.012,0.037c0.005,0.011,0.011,0.019,0.017,0.024c0.005,0.005,0.014,0.01,0.025,0.013s0.021,0.006,0.031,0.007
		s0.022,0.001,0.039,0.001C10.596,6.017,10.6,6.024,10.6,6.037s-0.003,0.021-0.011,0.026c-0.081,0-0.158,0-0.231,0
		c-0.075,0-0.154,0-0.235,0c-0.007-0.005-0.011-0.014-0.011-0.026s0.004-0.021,0.011-0.025c0.017,0,0.03,0,0.039-0.001
		c0.009-0.001,0.02-0.004,0.031-0.007s0.02-0.008,0.025-0.013c0.005-0.006,0.011-0.014,0.017-0.024
		c0.006-0.01,0.01-0.022,0.012-0.037s0.003-0.032,0.003-0.054V5.265z"/>
	<path fill="#FFFFFF" d="M11.336,5.101c0.011,0.097,0.017,0.174,0.017,0.231c-0.008,0.007-0.02,0.011-0.036,0.011
		s-0.03-0.002-0.04-0.005c-0.007-0.023-0.013-0.044-0.019-0.062c-0.006-0.018-0.015-0.036-0.026-0.058
		c-0.011-0.021-0.023-0.038-0.036-0.051s-0.03-0.024-0.05-0.033c-0.021-0.009-0.043-0.014-0.068-0.014
		c-0.039,0-0.071,0.013-0.094,0.037c-0.024,0.024-0.036,0.058-0.036,0.101c0,0.021,0.006,0.041,0.018,0.063s0.027,0.04,0.045,0.058
		c0.019,0.017,0.037,0.031,0.054,0.044c0.018,0.013,0.035,0.023,0.053,0.032c0.094,0.048,0.162,0.096,0.205,0.143
		c0.025,0.028,0.045,0.057,0.059,0.086c0.013,0.028,0.02,0.061,0.02,0.098c0,0.08-0.034,0.15-0.103,0.213
		c-0.062,0.055-0.138,0.082-0.23,0.082c-0.061,0-0.11-0.002-0.148-0.007c-0.037-0.005-0.067-0.01-0.089-0.016
		c-0.021-0.004-0.043-0.007-0.065-0.007c-0.019-0.064-0.029-0.148-0.029-0.252c0.036-0.009,0.061-0.011,0.077-0.005
		c0.015,0.067,0.045,0.121,0.09,0.161c0.045,0.041,0.094,0.062,0.147,0.062c0.046,0,0.084-0.012,0.114-0.035
		c0.029-0.023,0.044-0.054,0.044-0.092s-0.012-0.073-0.037-0.104c-0.025-0.031-0.059-0.062-0.101-0.091
		c-0.011-0.008-0.036-0.023-0.075-0.046c-0.04-0.022-0.076-0.045-0.108-0.069c-0.031-0.022-0.058-0.048-0.079-0.077
		c-0.017-0.022-0.029-0.05-0.037-0.082c-0.009-0.032-0.014-0.063-0.014-0.095c0-0.035,0.009-0.07,0.027-0.104
		c0.019-0.034,0.042-0.063,0.072-0.087c0.03-0.023,0.064-0.042,0.105-0.055c0.041-0.012,0.08-0.019,0.117-0.019
		c0.042,0,0.077,0.003,0.106,0.008s0.057,0.011,0.083,0.019C11.294,5.092,11.317,5.098,11.336,5.101"/>
	<path fill="#FFFFFF" d="M11.697,5.265c0-0.021-0.001-0.039-0.003-0.054c-0.002-0.016-0.006-0.027-0.011-0.038
		c-0.006-0.01-0.011-0.018-0.017-0.023c-0.006-0.006-0.014-0.01-0.026-0.013c-0.011-0.004-0.021-0.006-0.031-0.007
		c-0.009-0.001-0.022-0.001-0.039-0.001c-0.007-0.005-0.011-0.013-0.011-0.026c0-0.013,0.004-0.021,0.011-0.025
		c0.082,0,0.16,0,0.235,0c0.073,0,0.15,0,0.231,0c0.007,0.005,0.011,0.013,0.011,0.025c0,0.014-0.004,0.021-0.011,0.026
		c-0.017,0-0.03,0-0.039,0.001c-0.009,0.001-0.02,0.003-0.031,0.007c-0.012,0.003-0.02,0.007-0.025,0.013s-0.011,0.014-0.017,0.023
		c-0.005,0.011-0.009,0.022-0.011,0.038c-0.002,0.015-0.003,0.032-0.003,0.054v0.611c0,0.021,0.001,0.039,0.003,0.054
		s0.006,0.027,0.011,0.037c0.006,0.011,0.012,0.019,0.017,0.024c0.005,0.005,0.014,0.01,0.025,0.013
		c0.011,0.003,0.021,0.006,0.031,0.007c0.009,0.001,0.022,0.001,0.039,0.001c0.007,0.005,0.011,0.013,0.011,0.025
		s-0.004,0.021-0.011,0.026c-0.082,0-0.159,0-0.231,0c-0.076,0-0.154,0-0.235,0c-0.007-0.005-0.011-0.014-0.011-0.026
		s0.004-0.021,0.011-0.025c0.017,0,0.03,0,0.039-0.001c0.009-0.001,0.02-0.004,0.031-0.007c0.012-0.003,0.02-0.008,0.026-0.013
		c0.005-0.006,0.011-0.014,0.017-0.024c0.005-0.01,0.009-0.022,0.011-0.037s0.003-0.032,0.003-0.054V5.265z"/>
	<path fill="#FFFFFF" d="M13.141,6.062c-0.015,0.008-0.028,0.013-0.04,0.015C13.089,6.079,13.07,6.08,13.045,6.08
		c-0.021-0.02-0.041-0.042-0.061-0.067l-0.51-0.606c-0.017-0.021-0.029-0.03-0.037-0.03c-0.008,0-0.012,0.01-0.012,0.03v0.452
		c0,0.023,0.001,0.043,0.002,0.059s0.004,0.028,0.009,0.04s0.01,0.02,0.015,0.025c0.004,0.006,0.013,0.011,0.025,0.015
		c0.013,0.005,0.024,0.008,0.034,0.009c0.01,0.002,0.026,0.003,0.047,0.005c0.004,0.005,0.007,0.014,0.007,0.026
		s-0.002,0.021-0.007,0.026c-0.101,0-0.158,0-0.17,0c-0.015,0-0.072,0-0.171,0c-0.004-0.005-0.007-0.014-0.007-0.026
		s0.002-0.021,0.007-0.026c0.021-0.002,0.037-0.003,0.047-0.005c0.01-0.002,0.022-0.005,0.034-0.009
		c0.012-0.005,0.021-0.01,0.025-0.016s0.01-0.015,0.015-0.026c0.005-0.011,0.008-0.024,0.009-0.039
		c0.001-0.016,0.002-0.035,0.002-0.058V5.224c-0.005-0.022-0.019-0.044-0.041-0.064c-0.022-0.02-0.048-0.03-0.079-0.03
		c-0.004-0.004-0.007-0.013-0.007-0.025s0.002-0.021,0.007-0.026h0.248l0.136,0.16l0.404,0.477c0.008,0.009,0.014,0.015,0.02,0.019
		c0.006,0.003,0.011,0.003,0.015,0c0.004-0.004,0.006-0.012,0.006-0.024V5.279c0-0.018,0-0.033-0.001-0.046
		c0-0.013-0.002-0.024-0.005-0.035c-0.003-0.01-0.005-0.019-0.008-0.025c-0.002-0.007-0.006-0.013-0.013-0.018
		c-0.007-0.006-0.012-0.01-0.018-0.012c-0.005-0.003-0.013-0.006-0.023-0.009c-0.011-0.002-0.021-0.004-0.029-0.005
		s-0.021-0.002-0.037-0.004c-0.005-0.004-0.007-0.013-0.007-0.025c0-0.014,0.002-0.021,0.007-0.023c0.101,0,0.16,0,0.177,0
		c0.011,0,0.065,0,0.165,0c0.004,0.005,0.007,0.014,0.007,0.026s-0.002,0.021-0.007,0.025c-0.021,0.002-0.037,0.004-0.047,0.006
		c-0.01,0.002-0.022,0.005-0.034,0.009c-0.012,0.005-0.021,0.01-0.025,0.016s-0.01,0.015-0.015,0.025
		c-0.005,0.012-0.008,0.025-0.01,0.04c-0.001,0.015-0.001,0.034-0.001,0.058v0.624L13.141,6.062z"/>
	<path fill="#FFFFFF" d="M13.988,5.059c0.054,0,0.105,0.005,0.155,0.014c0.049,0.009,0.093,0.018,0.13,0.026
		c0.037,0.009,0.068,0.014,0.092,0.014c0.01,0.11,0.021,0.193,0.033,0.25l-0.066,0.009c-0.011-0.034-0.025-0.066-0.043-0.095
		c-0.018-0.028-0.042-0.054-0.071-0.078c-0.028-0.023-0.064-0.042-0.107-0.056s-0.091-0.02-0.144-0.02
		c-0.096,0-0.173,0.037-0.231,0.112c-0.059,0.078-0.088,0.187-0.088,0.328c0,0.042,0.004,0.083,0.012,0.124
		c0.008,0.041,0.021,0.081,0.04,0.12c0.019,0.04,0.042,0.075,0.069,0.104c0.027,0.03,0.063,0.055,0.105,0.073
		c0.043,0.018,0.09,0.027,0.142,0.027c0.042,0,0.077-0.005,0.104-0.014c0.027-0.01,0.053-0.026,0.079-0.051V5.723
		c0-0.028-0.009-0.047-0.027-0.055c-0.018-0.008-0.05-0.014-0.098-0.018c-0.004-0.005-0.006-0.015-0.006-0.028
		c0-0.015,0.002-0.024,0.006-0.028c0.095,0,0.171,0,0.227,0c0.061,0,0.121,0,0.182,0c0.004,0.004,0.006,0.014,0.006,0.028
		c0,0.014-0.002,0.023-0.006,0.028c-0.024,0.002-0.042,0.009-0.053,0.019c-0.012,0.011-0.018,0.028-0.018,0.054V5.9
		c0,0.016,0.008,0.029,0.025,0.042c-0.051,0.041-0.118,0.074-0.199,0.098c-0.082,0.024-0.167,0.036-0.257,0.036
		c-0.086,0-0.161-0.009-0.226-0.027c-0.064-0.019-0.121-0.048-0.17-0.088c-0.053-0.043-0.095-0.097-0.124-0.163
		c-0.029-0.065-0.043-0.134-0.043-0.204c0-0.082,0.015-0.157,0.043-0.224c0.029-0.067,0.07-0.124,0.124-0.17
		C13.695,5.105,13.83,5.059,13.988,5.059"/>
	<path fill="#005F96" d="M16.179,2.924c-0.052,0-0.103,0.013-0.148,0.038c-0.139,0.077-0.294,0.117-0.453,0.117
		c-0.517,0-0.936-0.419-0.936-0.936s0.418-0.937,0.936-0.937c0.171,0,0.339,0.048,0.485,0.136c0.033,0.02,0.07,0.029,0.108,0.029
		c0.122,0,0.22-0.099,0.22-0.22c0-0.082-0.046-0.157-0.119-0.195h-0.001L16.27,0.956c-0.226-0.13-0.48-0.198-0.742-0.198
		c-0.82,0-1.485,0.664-1.485,1.484s0.665,1.485,1.485,1.485c0.289,0,0.568-0.084,0.81-0.241h0.001
		c0.089-0.057,0.143-0.153,0.143-0.259C16.482,3.06,16.346,2.924,16.179,2.924"/>
	<path fill="#005F96" d="M13.292,0.797c-0.176,0-0.319,0.144-0.319,0.319v2.256c0,0.177,0.143,0.319,0.319,0.319
		c0.176,0,0.319-0.143,0.319-0.319V1.116C13.611,0.94,13.468,0.797,13.292,0.797"/>
	<path fill="#005F96" d="M12.397,0.799h-1.402c-0.14,0-0.255,0.114-0.255,0.256v2.317c0,0.177,0.143,0.319,0.319,0.319
		s0.319-0.143,0.319-0.319V2.365h0.647c0.141,0,0.255-0.114,0.255-0.255c0-0.142-0.114-0.256-0.255-0.256h-0.647V1.31h1.02
		c0.141,0,0.255-0.114,0.255-0.255C12.652,0.913,12.538,0.799,12.397,0.799"/>
	<path fill="#005F96" d="M9.841,0.797c-0.176,0-0.319,0.144-0.319,0.319v2.256c0,0.177,0.143,0.319,0.319,0.319
		c0.176,0,0.318-0.143,0.318-0.319V1.116C10.16,0.94,10.017,0.797,9.841,0.797"/>
	<path fill="#005F96" d="M8.135,2.007L8.135,2.007C8.042,2.087,7.912,2.1,7.795,2.079C7.668,2.057,7.51,2.007,7.395,1.943
		C7.367,1.93,7.35,1.917,7.336,1.905c-0.03-0.024-0.028-0.057-0.028-0.057V1.343c0.003-0.056,0.068-0.053,0.11-0.057
		c0.134-0.01,0.305-0.014,0.437,0.007c0.118,0.02,0.245,0.063,0.326,0.156C8.25,1.527,8.284,1.633,8.278,1.736
		C8.271,1.846,8.217,1.937,8.135,2.007 M8.645,2.73C8.49,2.602,8.353,2.544,8.18,2.456l0.133-0.04
		c0.033-0.015,0.068-0.028,0.101-0.045C8.443,2.357,8.472,2.34,8.5,2.323c0.112-0.064,0.195-0.143,0.274-0.245
		c0.087-0.112,0.123-0.249,0.131-0.39C8.918,1.444,8.853,1.229,8.67,1.06C8.659,1.051,8.639,1.035,8.625,1.021
		C8.403,0.85,8.118,0.798,7.845,0.798H6.99c-0.176,0-0.319,0.144-0.319,0.319v2.255c0,0.177,0.143,0.319,0.319,0.319
		c0.176,0,0.319-0.143,0.319-0.319V2.674c0-0.056,0.053-0.084,0.111-0.085C7.538,2.586,7.693,2.66,7.788,2.726
		C8.055,2.91,8.212,3.141,8.363,3.419C8.423,3.531,8.485,3.65,8.56,3.753c0.056,0.076,0.125,0.152,0.215,0.187
		c0.082,0.031,0.212,0.021,0.286-0.027c0.059-0.04,0.114-0.099,0.128-0.171C9.207,3.65,9.182,3.577,9.159,3.49
		C9.06,3.192,8.887,2.93,8.645,2.73z"/>
	<path fill="#005F96" d="M6.059,0.799c-0.145,0-0.262,0.117-0.262,0.263v1.482c0,0.182-0.031,0.391-0.175,0.52
		C5.49,3.182,5.359,3.204,5.188,3.204c-0.18,0.001-0.341-0.048-0.476-0.17c-0.143-0.128-0.199-0.301-0.2-0.49L4.51,1.117
		c0-0.176-0.143-0.319-0.319-0.319H4.058c-0.176,0-0.319,0.144-0.319,0.319v1.427c0,0.332,0.094,0.633,0.342,0.862
		c0.248,0.229,0.625,0.316,0.955,0.321c0.035,0,0.07-0.001,0.106,0C5.364,3.729,5.53,3.702,5.73,3.603
		C5.918,3.51,6.08,3.37,6.185,3.188c0.111-0.192,0.137-0.425,0.137-0.644V1.062C6.322,0.916,6.204,0.799,6.059,0.799"/>
	<path fill="#005F96" d="M2.763,1.736L2.763,1.736c-0.006,0.109-0.061,0.2-0.144,0.271C2.526,2.087,2.397,2.1,2.28,2.079
		C2.153,2.057,1.988,2.003,1.876,1.946C1.838,1.928,1.795,1.905,1.794,1.869c0-0.176,0-0.351,0-0.526
		c0-0.058,0.085-0.055,0.11-0.057C1.997,1.279,2.095,1.277,2.188,1.28c0.05,0.002,0.102,0.005,0.152,0.013
		c0.118,0.02,0.245,0.063,0.325,0.156C2.734,1.527,2.769,1.633,2.763,1.736 M3.155,1.059C2.93,0.857,2.624,0.798,2.33,0.798H1.475
		c-0.172,0-0.314,0.138-0.319,0.309v2.275c0.005,0.172,0.147,0.31,0.319,0.31c0.176,0,0.319-0.143,0.319-0.319V2.533
		c0-0.159,0.049-0.114,0.193-0.049C2.035,2.507,2.083,2.529,2.131,2.55c0.119,0.051,0.25,0.092,0.38,0.092h0.002h0.001
		c0.19,0.011,0.342-0.015,0.503-0.115C3.307,2.346,3.426,2.029,3.435,1.7C3.442,1.443,3.346,1.229,3.155,1.059z"/>
</g>
</svg>
