<?xml version="1.0" encoding="utf-8"?>
<!-- Generator: Adobe Illustrator 16.0.0, SVG Export Plug-In . SVG Version: 6.00 Build 0)  -->
<!DOCTYPE svg PUBLIC "-//W3C//DTD SVG 1.1//EN" "http://www.w3.org/Graphics/SVG/1.1/DTD/svg11.dtd">
<svg version="1.1" id="Layer_1" xmlns="http://www.w3.org/2000/svg" xmlns:xlink="http://www.w3.org/1999/xlink" x="0px" y="0px"
	 width="115.569px" height="24.151px" viewBox="0 0 115.569 24.151" enable-background="new 0 0 115.569 24.151"
	 xml:space="preserve">
<g>
	<path fill="#FFFFFF" d="M12.076,0C5.417,0,0,5.417,0,12.076s5.417,12.075,12.076,12.075c6.658,0,12.075-5.417,12.075-12.075
		S18.734,0,12.076,0z M12.076,22.972c-6.008,0-10.896-4.888-10.896-10.896S6.067,1.18,12.076,1.18
		c6.008,0,10.896,4.888,10.896,10.896S18.083,22.972,12.076,22.972z"/>
	<path fill="#FFFFFF" d="M18.55,6.167l-3.947-2.283c0,0,0,0,0,0L13.83,3.437c-0.016-0.01-0.032-0.018-0.048-0.025
		c-0.005-0.002-0.01-0.004-0.015-0.007c-0.012-0.004-0.023-0.01-0.036-0.014c-0.003,0-0.005-0.001-0.008-0.002
		c-0.002,0-0.004-0.001-0.005-0.001s-0.002-0.001-0.003-0.001c-0.013-0.004-0.026-0.008-0.039-0.011
		c-0.007-0.001-0.015-0.003-0.023-0.005c-0.012-0.002-0.023-0.004-0.035-0.006c-0.002,0-0.004,0-0.006,0
		c-0.002,0-0.005-0.001-0.008-0.001c-0.005,0-0.011-0.001-0.016-0.002c-0.005,0-0.011,0-0.016,0
		c-0.009-0.001-0.019,0.001-0.028,0.001c-0.023,0-0.047,0-0.07,0.002c-0.016,0.002-0.031,0.005-0.046,0.008
		c-0.021,0.004-0.042,0.008-0.063,0.015c-0.015,0.004-0.03,0.01-0.044,0.017C13.3,3.41,13.28,3.417,13.261,3.428
		c-0.014,0.007-0.027,0.016-0.041,0.025c-0.019,0.012-0.037,0.023-0.054,0.038c-0.004,0.003-0.008,0.005-0.012,0.008
		c-0.007,0.007-0.02,0.018-0.033,0.029c-0.025,0.022-0.721,0.725-0.943,0.95v0L12.11,4.546l-0.068-0.069v0
		c-0.192-0.195-0.737-0.745-0.898-0.906c-0.096-0.116-0.23-0.187-0.373-0.206c-0.005-0.001-0.009-0.002-0.014-0.002
		c-0.026-0.003-0.052-0.003-0.078-0.002c-0.01,0-0.02-0.002-0.03-0.001c-0.005,0-0.011,0-0.016,0c-0.01,0.001-0.02,0.002-0.03,0.003
		c-0.012,0.002-0.023,0.004-0.036,0.006c-0.007,0.002-0.015,0.004-0.023,0.005c-0.013,0.003-0.025,0.007-0.038,0.011
		C10.5,3.388,10.495,3.39,10.49,3.391c-0.012,0.004-0.024,0.01-0.036,0.014c-0.005,0.002-0.01,0.004-0.015,0.007
		c-0.017,0.007-0.033,0.015-0.049,0.025L9.618,3.884c0,0,0.001,0,0.001,0L9.341,4.045c0.001,0,0.003-0.001,0.004-0.002L5.679,6.157
		C4.628,6.763,3.975,7.893,3.974,9.106L3.97,14.57c-0.001,1.213,0.651,2.343,1.701,2.95l4.73,2.736
		c0.526,0.304,1.115,0.456,1.705,0.456c0.588,0,1.176-0.151,1.701-0.453l4.734-2.729c1.051-0.605,1.705-1.735,1.706-2.949
		l0.004-5.464C20.251,7.905,19.6,6.773,18.55,6.167z M12.11,6.234l0.068,0.069l2.858,2.907l0.041,0.042
		c0.014,0.02,0.029,0.038,0.046,0.057c0.142,0.153,0.267,0.317,0.382,0.488c0.458,0.675,0.708,1.471,0.708,2.297
		c0,2.24-1.805,4.066-4.036,4.103c-0.023,0-0.045,0.002-0.068,0.002c-0.022,0-0.045-0.002-0.068-0.002
		c-2.231-0.037-4.036-1.863-4.036-4.103c0-0.826,0.251-1.622,0.708-2.297C8.83,9.625,8.955,9.46,9.097,9.308
		c0.017-0.019,0.032-0.037,0.046-0.057l0.041-0.042l2.858-2.907L12.11,6.234z M19.071,14.582c-0.001,0.793-0.429,1.534-1.117,1.93
		l-4.734,2.729c-0.688,0.397-1.542,0.396-2.23-0.001l-4.73-2.736c-0.688-0.397-1.115-1.139-1.114-1.933L5.15,9.106
		c0-0.794,0.428-1.534,1.117-1.931l4.321-2.491l0.694,0.707L8.271,8.46l-0.03,0.03c0,0,0,0,0,0c-0.026,0.027-0.05,0.056-0.07,0.086
		C8.063,8.699,7.96,8.825,7.864,8.954C7.821,9.013,7.779,9.073,7.738,9.133C7.734,9.139,7.73,9.145,7.726,9.15
		c-0.525,0.781-0.831,1.687-0.886,2.634c-0.006,0.103-0.01,0.206-0.01,0.309c0,2.912,2.369,5.28,5.28,5.28s5.28-2.369,5.28-5.28
		c0-0.103-0.004-0.206-0.01-0.309c-0.055-0.947-0.361-1.853-0.886-2.634c-0.004-0.005-0.008-0.011-0.012-0.017
		c-0.041-0.06-0.083-0.121-0.126-0.179c-0.096-0.129-0.198-0.255-0.306-0.376c-0.021-0.03-0.043-0.06-0.07-0.086c0,0,0,0,0,0
		l-0.03-0.03l-3.01-3.069l0.696-0.708l4.326,2.502c0.688,0.397,1.114,1.138,1.114,1.933L19.071,14.582z"/>
	<path fill="#FFFFFF" d="M97.57,4.18c-0.993,0-1.802,0.805-1.802,1.799v12.728c0,0.994,0.809,1.798,1.802,1.798
		c0.993,0,1.798-0.804,1.798-1.798V5.979C99.368,4.985,98.564,4.18,97.57,4.18z"/>
	<path fill="#FFFFFF" d="M78.101,4.18c-0.995,0-1.8,0.804-1.8,1.799v12.728c0,0.995,0.807,1.798,1.8,1.798
		c0.993,0,1.797-0.805,1.797-1.798V5.979C79.898,4.986,79.095,4.18,78.101,4.18z"/>
	<path fill="#FFFFFF" d="M71.354,15.084c-0.876-0.724-1.65-1.049-2.625-1.543l0.751-0.228c0.187-0.083,0.385-0.163,0.569-0.252
		c0.163-0.08,0.326-0.18,0.483-0.271c0.635-0.366,1.101-0.807,1.549-1.385c0.493-0.635,0.695-1.404,0.738-2.196
		c0.075-1.382-0.295-2.595-1.32-3.547c-0.064-0.053-0.176-0.139-0.261-0.223c-1.248-0.964-2.858-1.252-4.4-1.252h-4.821
		c-0.994,0-1.798,0.805-1.798,1.799v12.722c0,0.993,0.805,1.798,1.798,1.798s1.799-0.805,1.799-1.798v-3.939
		c0-0.313,0.295-0.474,0.625-0.482c0.667-0.017,1.541,0.405,2.077,0.773c1.51,1.039,2.392,2.339,3.244,3.912
		c0.343,0.631,0.69,1.302,1.113,1.884c0.314,0.432,0.706,0.857,1.215,1.052c0.458,0.176,1.198,0.121,1.609-0.155
		c0.335-0.226,0.644-0.557,0.724-0.965c0.101-0.509-0.039-0.922-0.171-1.416C73.693,17.692,72.721,16.212,71.354,15.084z
		 M68.476,11.002c-0.525,0.451-1.254,0.524-1.914,0.41c-0.719-0.125-1.613-0.41-2.262-0.765c-0.159-0.08-0.25-0.148-0.331-0.215
		c-0.167-0.139-0.153-0.32-0.153-0.32V7.258c0.016-0.316,0.383-0.301,0.623-0.32c0.755-0.057,1.718-0.079,2.464,0.04
		c0.664,0.105,1.38,0.357,1.834,0.878c0.385,0.441,0.58,1.037,0.546,1.62C69.247,10.097,68.94,10.604,68.476,11.002z"/>
	<path fill="#FFFFFF" d="M40.384,5.657c-1.272-1.138-2.999-1.471-4.657-1.471h-4.823c-0.973,0-1.772,0.772-1.8,1.736l0,12.838
		c0.028,0.972,0.829,1.745,1.801,1.745c0.993,0,1.798-0.805,1.798-1.798v-4.733c0-0.9,0.278-0.645,1.088-0.276
		c0.273,0.124,0.542,0.253,0.818,0.369c0.671,0.284,1.408,0.518,2.143,0.518h0.009l0.009,0c1.073,0.058,1.929-0.082,2.841-0.652
		c1.629-1.017,2.3-2.807,2.35-4.664C42,7.823,41.462,6.62,40.384,5.657z M38.17,9.476c-0.034,0.621-0.343,1.127-0.808,1.527
		c-0.526,0.45-1.255,0.523-1.915,0.409c-0.718-0.125-1.648-0.431-2.283-0.751c-0.211-0.107-0.454-0.229-0.463-0.438
		c0-0.989,0-1.977,0-2.965c0-0.326,0.482-0.309,0.622-0.32c0.525-0.04,1.08-0.051,1.605-0.034c0.286,0.01,0.576,0.029,0.858,0.074
		c0.666,0.105,1.381,0.357,1.836,0.877C38.009,8.297,38.203,8.893,38.17,9.476z"/>
	<path fill="#FFFFFF" d="M56.766,4.19c-0.819,0-1.481,0.662-1.481,1.48v8.361c0,1.028-0.176,2.208-0.985,2.93
		c-0.748,0.667-1.48,0.797-2.453,0.798c-1.014,0.001-1.924-0.271-2.684-0.958c-0.806-0.727-1.125-1.7-1.126-2.771l-0.011-8.046
		c-0.001-0.996-0.803-1.801-1.798-1.801h-0.751c-0.995,0-1.801,0.805-1.801,1.8v8.047c0,1.876,0.531,3.574,1.928,4.867
		c1.401,1.296,3.525,1.784,5.384,1.811c0.199,0.002,0.398-0.002,0.597-0.001c1.259,0.014,2.194-0.143,3.325-0.702
		c1.061-0.524,1.972-1.31,2.565-2.34c0.625-1.088,0.773-2.401,0.773-3.634V5.671C58.248,4.853,57.583,4.19,56.766,4.19z"/>
	<path fill="#FFFFFF" d="M113.853,16.177c-0.291,0-0.578,0.073-0.833,0.214c-0.784,0.434-1.659,0.662-2.554,0.662
		c-2.915,0-5.278-2.363-5.278-5.277c0-2.916,2.362-5.28,5.278-5.28c0.969,0,1.914,0.265,2.733,0.765
		c0.187,0.107,0.396,0.165,0.611,0.165c0.686,0,1.24-0.556,1.24-1.241c0-0.463-0.26-0.888-0.669-1.1l-0.007-0.003l-0.007-0.004
		c-1.276-0.735-2.71-1.12-4.184-1.12c-4.626,0-8.378,3.749-8.378,8.375s3.751,8.377,8.378,8.377c1.628,0,3.206-0.469,4.57-1.358
		l0.005-0.003c0.503-0.314,0.81-0.862,0.81-1.456C115.569,16.944,114.799,16.177,113.853,16.177z"/>
	<path fill="#FFFFFF" d="M92.52,4.189H84.61c-0.794,0-1.44,0.645-1.44,1.438v13.079c0,0.994,0.805,1.798,1.799,1.798
		c0.993,0,1.798-0.804,1.798-1.798v-5.685h3.65c0.795,0,1.439-0.643,1.439-1.438c0-0.795-0.644-1.441-1.439-1.441h-3.65V7.068h5.752
		c0.796,0,1.439-0.644,1.439-1.44C93.958,4.833,93.314,4.189,92.52,4.189z"/>
</g>
</svg>
